G04 #@! TF.GenerationSoftware,KiCad,Pcbnew,(5.1.9)-1*
G04 #@! TF.CreationDate,2023-02-03T17:28:33+00:00*
G04 #@! TF.ProjectId,C64RAMCart,43363452-414d-4436-9172-742e6b696361,rev?*
G04 #@! TF.SameCoordinates,Original*
G04 #@! TF.FileFunction,Soldermask,Top*
G04 #@! TF.FilePolarity,Negative*
%FSLAX46Y46*%
G04 Gerber Fmt 4.6, Leading zero omitted, Abs format (unit mm)*
G04 Created by KiCad (PCBNEW (5.1.9)-1) date 2023-02-03 17:28:33*
%MOMM*%
%LPD*%
G01*
G04 APERTURE LIST*
%ADD10C,3.102000*%
%ADD11C,1.702000*%
%ADD12O,1.702000X1.702000*%
%ADD13C,2.102000*%
%ADD14C,5.100000*%
%ADD15O,2.502000X2.502000*%
%ADD16O,1.802000X1.802000*%
%ADD17C,1.902000*%
%ADD18C,0.254000*%
%ADD19C,0.100000*%
G04 APERTURE END LIST*
G36*
G01*
X214930000Y-117970000D02*
X214930000Y-120970000D01*
G75*
G02*
X214879000Y-121021000I-51000J0D01*
G01*
X211879000Y-121021000D01*
G75*
G02*
X211828000Y-120970000I0J51000D01*
G01*
X211828000Y-117970000D01*
G75*
G02*
X211879000Y-117919000I51000J0D01*
G01*
X214879000Y-117919000D01*
G75*
G02*
X214930000Y-117970000I0J-51000D01*
G01*
G37*
D10*
X192889000Y-119470000D03*
D11*
X157029000Y-40370000D03*
D12*
X164649000Y-40370000D03*
D11*
X145504000Y-40370000D03*
X150504000Y-40370000D03*
X135424000Y-40370000D03*
X140424000Y-40370000D03*
X125344000Y-40370000D03*
X130344000Y-40370000D03*
X115264000Y-40370000D03*
X120264000Y-40370000D03*
X105184000Y-40370000D03*
X110184000Y-40370000D03*
X100104000Y-40370000D03*
X95104000Y-40370000D03*
D13*
X197204000Y-42620000D03*
X197204000Y-38120000D03*
X203704000Y-42620000D03*
X203704000Y-38120000D03*
D14*
X212250000Y-40111000D03*
X84409000Y-127255000D03*
X212250000Y-127095000D03*
X84889000Y-40111000D03*
G36*
G01*
X134904000Y-161432000D02*
X134904000Y-153432000D01*
G75*
G02*
X134955000Y-153381000I51000J0D01*
G01*
X136455000Y-153381000D01*
G75*
G02*
X136506000Y-153432000I0J-51000D01*
G01*
X136506000Y-161432000D01*
G75*
G02*
X136455000Y-161483000I-51000J0D01*
G01*
X134955000Y-161483000D01*
G75*
G02*
X134904000Y-161432000I0J51000D01*
G01*
G37*
G36*
G01*
X132364000Y-161432000D02*
X132364000Y-153432000D01*
G75*
G02*
X132415000Y-153381000I51000J0D01*
G01*
X133915000Y-153381000D01*
G75*
G02*
X133966000Y-153432000I0J-51000D01*
G01*
X133966000Y-161432000D01*
G75*
G02*
X133915000Y-161483000I-51000J0D01*
G01*
X132415000Y-161483000D01*
G75*
G02*
X132364000Y-161432000I0J51000D01*
G01*
G37*
G36*
G01*
X129824000Y-161432000D02*
X129824000Y-153432000D01*
G75*
G02*
X129875000Y-153381000I51000J0D01*
G01*
X131375000Y-153381000D01*
G75*
G02*
X131426000Y-153432000I0J-51000D01*
G01*
X131426000Y-161432000D01*
G75*
G02*
X131375000Y-161483000I-51000J0D01*
G01*
X129875000Y-161483000D01*
G75*
G02*
X129824000Y-161432000I0J51000D01*
G01*
G37*
G36*
G01*
X127284000Y-161432000D02*
X127284000Y-153432000D01*
G75*
G02*
X127335000Y-153381000I51000J0D01*
G01*
X128835000Y-153381000D01*
G75*
G02*
X128886000Y-153432000I0J-51000D01*
G01*
X128886000Y-161432000D01*
G75*
G02*
X128835000Y-161483000I-51000J0D01*
G01*
X127335000Y-161483000D01*
G75*
G02*
X127284000Y-161432000I0J51000D01*
G01*
G37*
G36*
G01*
X124744000Y-161432000D02*
X124744000Y-153432000D01*
G75*
G02*
X124795000Y-153381000I51000J0D01*
G01*
X126295000Y-153381000D01*
G75*
G02*
X126346000Y-153432000I0J-51000D01*
G01*
X126346000Y-161432000D01*
G75*
G02*
X126295000Y-161483000I-51000J0D01*
G01*
X124795000Y-161483000D01*
G75*
G02*
X124744000Y-161432000I0J51000D01*
G01*
G37*
G36*
G01*
X122204000Y-161432000D02*
X122204000Y-153432000D01*
G75*
G02*
X122255000Y-153381000I51000J0D01*
G01*
X123755000Y-153381000D01*
G75*
G02*
X123806000Y-153432000I0J-51000D01*
G01*
X123806000Y-161432000D01*
G75*
G02*
X123755000Y-161483000I-51000J0D01*
G01*
X122255000Y-161483000D01*
G75*
G02*
X122204000Y-161432000I0J51000D01*
G01*
G37*
G36*
G01*
X119664000Y-161432000D02*
X119664000Y-153432000D01*
G75*
G02*
X119715000Y-153381000I51000J0D01*
G01*
X121215000Y-153381000D01*
G75*
G02*
X121266000Y-153432000I0J-51000D01*
G01*
X121266000Y-161432000D01*
G75*
G02*
X121215000Y-161483000I-51000J0D01*
G01*
X119715000Y-161483000D01*
G75*
G02*
X119664000Y-161432000I0J51000D01*
G01*
G37*
G36*
G01*
X117124000Y-161432000D02*
X117124000Y-153432000D01*
G75*
G02*
X117175000Y-153381000I51000J0D01*
G01*
X118675000Y-153381000D01*
G75*
G02*
X118726000Y-153432000I0J-51000D01*
G01*
X118726000Y-161432000D01*
G75*
G02*
X118675000Y-161483000I-51000J0D01*
G01*
X117175000Y-161483000D01*
G75*
G02*
X117124000Y-161432000I0J51000D01*
G01*
G37*
G36*
G01*
X114584000Y-161432000D02*
X114584000Y-153432000D01*
G75*
G02*
X114635000Y-153381000I51000J0D01*
G01*
X116135000Y-153381000D01*
G75*
G02*
X116186000Y-153432000I0J-51000D01*
G01*
X116186000Y-161432000D01*
G75*
G02*
X116135000Y-161483000I-51000J0D01*
G01*
X114635000Y-161483000D01*
G75*
G02*
X114584000Y-161432000I0J51000D01*
G01*
G37*
G36*
G01*
X112044000Y-161432000D02*
X112044000Y-153432000D01*
G75*
G02*
X112095000Y-153381000I51000J0D01*
G01*
X113595000Y-153381000D01*
G75*
G02*
X113646000Y-153432000I0J-51000D01*
G01*
X113646000Y-161432000D01*
G75*
G02*
X113595000Y-161483000I-51000J0D01*
G01*
X112095000Y-161483000D01*
G75*
G02*
X112044000Y-161432000I0J51000D01*
G01*
G37*
G36*
G01*
X109504000Y-161432000D02*
X109504000Y-153432000D01*
G75*
G02*
X109555000Y-153381000I51000J0D01*
G01*
X111055000Y-153381000D01*
G75*
G02*
X111106000Y-153432000I0J-51000D01*
G01*
X111106000Y-161432000D01*
G75*
G02*
X111055000Y-161483000I-51000J0D01*
G01*
X109555000Y-161483000D01*
G75*
G02*
X109504000Y-161432000I0J51000D01*
G01*
G37*
G36*
G01*
X106964000Y-161432000D02*
X106964000Y-153432000D01*
G75*
G02*
X107015000Y-153381000I51000J0D01*
G01*
X108515000Y-153381000D01*
G75*
G02*
X108566000Y-153432000I0J-51000D01*
G01*
X108566000Y-161432000D01*
G75*
G02*
X108515000Y-161483000I-51000J0D01*
G01*
X107015000Y-161483000D01*
G75*
G02*
X106964000Y-161432000I0J51000D01*
G01*
G37*
G36*
G01*
X104424000Y-161432000D02*
X104424000Y-153432000D01*
G75*
G02*
X104475000Y-153381000I51000J0D01*
G01*
X105975000Y-153381000D01*
G75*
G02*
X106026000Y-153432000I0J-51000D01*
G01*
X106026000Y-161432000D01*
G75*
G02*
X105975000Y-161483000I-51000J0D01*
G01*
X104475000Y-161483000D01*
G75*
G02*
X104424000Y-161432000I0J51000D01*
G01*
G37*
G36*
G01*
X101884000Y-161432000D02*
X101884000Y-153432000D01*
G75*
G02*
X101935000Y-153381000I51000J0D01*
G01*
X103435000Y-153381000D01*
G75*
G02*
X103486000Y-153432000I0J-51000D01*
G01*
X103486000Y-161432000D01*
G75*
G02*
X103435000Y-161483000I-51000J0D01*
G01*
X101935000Y-161483000D01*
G75*
G02*
X101884000Y-161432000I0J51000D01*
G01*
G37*
G36*
G01*
X99344000Y-161432000D02*
X99344000Y-153432000D01*
G75*
G02*
X99395000Y-153381000I51000J0D01*
G01*
X100895000Y-153381000D01*
G75*
G02*
X100946000Y-153432000I0J-51000D01*
G01*
X100946000Y-161432000D01*
G75*
G02*
X100895000Y-161483000I-51000J0D01*
G01*
X99395000Y-161483000D01*
G75*
G02*
X99344000Y-161432000I0J51000D01*
G01*
G37*
G36*
G01*
X96804000Y-161432000D02*
X96804000Y-153432000D01*
G75*
G02*
X96855000Y-153381000I51000J0D01*
G01*
X98355000Y-153381000D01*
G75*
G02*
X98406000Y-153432000I0J-51000D01*
G01*
X98406000Y-161432000D01*
G75*
G02*
X98355000Y-161483000I-51000J0D01*
G01*
X96855000Y-161483000D01*
G75*
G02*
X96804000Y-161432000I0J51000D01*
G01*
G37*
G36*
G01*
X94264000Y-161432000D02*
X94264000Y-153432000D01*
G75*
G02*
X94315000Y-153381000I51000J0D01*
G01*
X95815000Y-153381000D01*
G75*
G02*
X95866000Y-153432000I0J-51000D01*
G01*
X95866000Y-161432000D01*
G75*
G02*
X95815000Y-161483000I-51000J0D01*
G01*
X94315000Y-161483000D01*
G75*
G02*
X94264000Y-161432000I0J51000D01*
G01*
G37*
G36*
G01*
X91724000Y-161432000D02*
X91724000Y-153432000D01*
G75*
G02*
X91775000Y-153381000I51000J0D01*
G01*
X93275000Y-153381000D01*
G75*
G02*
X93326000Y-153432000I0J-51000D01*
G01*
X93326000Y-161432000D01*
G75*
G02*
X93275000Y-161483000I-51000J0D01*
G01*
X91775000Y-161483000D01*
G75*
G02*
X91724000Y-161432000I0J51000D01*
G01*
G37*
G36*
G01*
X89184000Y-161432000D02*
X89184000Y-153432000D01*
G75*
G02*
X89235000Y-153381000I51000J0D01*
G01*
X90735000Y-153381000D01*
G75*
G02*
X90786000Y-153432000I0J-51000D01*
G01*
X90786000Y-161432000D01*
G75*
G02*
X90735000Y-161483000I-51000J0D01*
G01*
X89235000Y-161483000D01*
G75*
G02*
X89184000Y-161432000I0J51000D01*
G01*
G37*
G36*
G01*
X86644000Y-161432000D02*
X86644000Y-153432000D01*
G75*
G02*
X86695000Y-153381000I51000J0D01*
G01*
X88195000Y-153381000D01*
G75*
G02*
X88246000Y-153432000I0J-51000D01*
G01*
X88246000Y-161432000D01*
G75*
G02*
X88195000Y-161483000I-51000J0D01*
G01*
X86695000Y-161483000D01*
G75*
G02*
X86644000Y-161432000I0J51000D01*
G01*
G37*
G36*
G01*
X84104000Y-161432000D02*
X84104000Y-153432000D01*
G75*
G02*
X84155000Y-153381000I51000J0D01*
G01*
X85655000Y-153381000D01*
G75*
G02*
X85706000Y-153432000I0J-51000D01*
G01*
X85706000Y-161432000D01*
G75*
G02*
X85655000Y-161483000I-51000J0D01*
G01*
X84155000Y-161483000D01*
G75*
G02*
X84104000Y-161432000I0J51000D01*
G01*
G37*
G36*
G01*
X81564000Y-161432000D02*
X81564000Y-153432000D01*
G75*
G02*
X81615000Y-153381000I51000J0D01*
G01*
X83115000Y-153381000D01*
G75*
G02*
X83166000Y-153432000I0J-51000D01*
G01*
X83166000Y-161432000D01*
G75*
G02*
X83115000Y-161483000I-51000J0D01*
G01*
X81615000Y-161483000D01*
G75*
G02*
X81564000Y-161432000I0J51000D01*
G01*
G37*
G36*
G01*
X134904000Y-161432000D02*
X134904000Y-153432000D01*
G75*
G02*
X134955000Y-153381000I51000J0D01*
G01*
X136455000Y-153381000D01*
G75*
G02*
X136506000Y-153432000I0J-51000D01*
G01*
X136506000Y-161432000D01*
G75*
G02*
X136455000Y-161483000I-51000J0D01*
G01*
X134955000Y-161483000D01*
G75*
G02*
X134904000Y-161432000I0J51000D01*
G01*
G37*
G36*
G01*
X132364000Y-161432000D02*
X132364000Y-153432000D01*
G75*
G02*
X132415000Y-153381000I51000J0D01*
G01*
X133915000Y-153381000D01*
G75*
G02*
X133966000Y-153432000I0J-51000D01*
G01*
X133966000Y-161432000D01*
G75*
G02*
X133915000Y-161483000I-51000J0D01*
G01*
X132415000Y-161483000D01*
G75*
G02*
X132364000Y-161432000I0J51000D01*
G01*
G37*
G36*
G01*
X129824000Y-161432000D02*
X129824000Y-153432000D01*
G75*
G02*
X129875000Y-153381000I51000J0D01*
G01*
X131375000Y-153381000D01*
G75*
G02*
X131426000Y-153432000I0J-51000D01*
G01*
X131426000Y-161432000D01*
G75*
G02*
X131375000Y-161483000I-51000J0D01*
G01*
X129875000Y-161483000D01*
G75*
G02*
X129824000Y-161432000I0J51000D01*
G01*
G37*
G36*
G01*
X127284000Y-161432000D02*
X127284000Y-153432000D01*
G75*
G02*
X127335000Y-153381000I51000J0D01*
G01*
X128835000Y-153381000D01*
G75*
G02*
X128886000Y-153432000I0J-51000D01*
G01*
X128886000Y-161432000D01*
G75*
G02*
X128835000Y-161483000I-51000J0D01*
G01*
X127335000Y-161483000D01*
G75*
G02*
X127284000Y-161432000I0J51000D01*
G01*
G37*
G36*
G01*
X124744000Y-161432000D02*
X124744000Y-153432000D01*
G75*
G02*
X124795000Y-153381000I51000J0D01*
G01*
X126295000Y-153381000D01*
G75*
G02*
X126346000Y-153432000I0J-51000D01*
G01*
X126346000Y-161432000D01*
G75*
G02*
X126295000Y-161483000I-51000J0D01*
G01*
X124795000Y-161483000D01*
G75*
G02*
X124744000Y-161432000I0J51000D01*
G01*
G37*
G36*
G01*
X122204000Y-161432000D02*
X122204000Y-153432000D01*
G75*
G02*
X122255000Y-153381000I51000J0D01*
G01*
X123755000Y-153381000D01*
G75*
G02*
X123806000Y-153432000I0J-51000D01*
G01*
X123806000Y-161432000D01*
G75*
G02*
X123755000Y-161483000I-51000J0D01*
G01*
X122255000Y-161483000D01*
G75*
G02*
X122204000Y-161432000I0J51000D01*
G01*
G37*
G36*
G01*
X119664000Y-161432000D02*
X119664000Y-153432000D01*
G75*
G02*
X119715000Y-153381000I51000J0D01*
G01*
X121215000Y-153381000D01*
G75*
G02*
X121266000Y-153432000I0J-51000D01*
G01*
X121266000Y-161432000D01*
G75*
G02*
X121215000Y-161483000I-51000J0D01*
G01*
X119715000Y-161483000D01*
G75*
G02*
X119664000Y-161432000I0J51000D01*
G01*
G37*
G36*
G01*
X117124000Y-161432000D02*
X117124000Y-153432000D01*
G75*
G02*
X117175000Y-153381000I51000J0D01*
G01*
X118675000Y-153381000D01*
G75*
G02*
X118726000Y-153432000I0J-51000D01*
G01*
X118726000Y-161432000D01*
G75*
G02*
X118675000Y-161483000I-51000J0D01*
G01*
X117175000Y-161483000D01*
G75*
G02*
X117124000Y-161432000I0J51000D01*
G01*
G37*
G36*
G01*
X114584000Y-161432000D02*
X114584000Y-153432000D01*
G75*
G02*
X114635000Y-153381000I51000J0D01*
G01*
X116135000Y-153381000D01*
G75*
G02*
X116186000Y-153432000I0J-51000D01*
G01*
X116186000Y-161432000D01*
G75*
G02*
X116135000Y-161483000I-51000J0D01*
G01*
X114635000Y-161483000D01*
G75*
G02*
X114584000Y-161432000I0J51000D01*
G01*
G37*
G36*
G01*
X112044000Y-161432000D02*
X112044000Y-153432000D01*
G75*
G02*
X112095000Y-153381000I51000J0D01*
G01*
X113595000Y-153381000D01*
G75*
G02*
X113646000Y-153432000I0J-51000D01*
G01*
X113646000Y-161432000D01*
G75*
G02*
X113595000Y-161483000I-51000J0D01*
G01*
X112095000Y-161483000D01*
G75*
G02*
X112044000Y-161432000I0J51000D01*
G01*
G37*
G36*
G01*
X109504000Y-161432000D02*
X109504000Y-153432000D01*
G75*
G02*
X109555000Y-153381000I51000J0D01*
G01*
X111055000Y-153381000D01*
G75*
G02*
X111106000Y-153432000I0J-51000D01*
G01*
X111106000Y-161432000D01*
G75*
G02*
X111055000Y-161483000I-51000J0D01*
G01*
X109555000Y-161483000D01*
G75*
G02*
X109504000Y-161432000I0J51000D01*
G01*
G37*
G36*
G01*
X106964000Y-161432000D02*
X106964000Y-153432000D01*
G75*
G02*
X107015000Y-153381000I51000J0D01*
G01*
X108515000Y-153381000D01*
G75*
G02*
X108566000Y-153432000I0J-51000D01*
G01*
X108566000Y-161432000D01*
G75*
G02*
X108515000Y-161483000I-51000J0D01*
G01*
X107015000Y-161483000D01*
G75*
G02*
X106964000Y-161432000I0J51000D01*
G01*
G37*
G36*
G01*
X104424000Y-161432000D02*
X104424000Y-153432000D01*
G75*
G02*
X104475000Y-153381000I51000J0D01*
G01*
X105975000Y-153381000D01*
G75*
G02*
X106026000Y-153432000I0J-51000D01*
G01*
X106026000Y-161432000D01*
G75*
G02*
X105975000Y-161483000I-51000J0D01*
G01*
X104475000Y-161483000D01*
G75*
G02*
X104424000Y-161432000I0J51000D01*
G01*
G37*
G36*
G01*
X101884000Y-161432000D02*
X101884000Y-153432000D01*
G75*
G02*
X101935000Y-153381000I51000J0D01*
G01*
X103435000Y-153381000D01*
G75*
G02*
X103486000Y-153432000I0J-51000D01*
G01*
X103486000Y-161432000D01*
G75*
G02*
X103435000Y-161483000I-51000J0D01*
G01*
X101935000Y-161483000D01*
G75*
G02*
X101884000Y-161432000I0J51000D01*
G01*
G37*
G36*
G01*
X99344000Y-161432000D02*
X99344000Y-153432000D01*
G75*
G02*
X99395000Y-153381000I51000J0D01*
G01*
X100895000Y-153381000D01*
G75*
G02*
X100946000Y-153432000I0J-51000D01*
G01*
X100946000Y-161432000D01*
G75*
G02*
X100895000Y-161483000I-51000J0D01*
G01*
X99395000Y-161483000D01*
G75*
G02*
X99344000Y-161432000I0J51000D01*
G01*
G37*
G36*
G01*
X96804000Y-161432000D02*
X96804000Y-153432000D01*
G75*
G02*
X96855000Y-153381000I51000J0D01*
G01*
X98355000Y-153381000D01*
G75*
G02*
X98406000Y-153432000I0J-51000D01*
G01*
X98406000Y-161432000D01*
G75*
G02*
X98355000Y-161483000I-51000J0D01*
G01*
X96855000Y-161483000D01*
G75*
G02*
X96804000Y-161432000I0J51000D01*
G01*
G37*
G36*
G01*
X94264000Y-161432000D02*
X94264000Y-153432000D01*
G75*
G02*
X94315000Y-153381000I51000J0D01*
G01*
X95815000Y-153381000D01*
G75*
G02*
X95866000Y-153432000I0J-51000D01*
G01*
X95866000Y-161432000D01*
G75*
G02*
X95815000Y-161483000I-51000J0D01*
G01*
X94315000Y-161483000D01*
G75*
G02*
X94264000Y-161432000I0J51000D01*
G01*
G37*
G36*
G01*
X91724000Y-161432000D02*
X91724000Y-153432000D01*
G75*
G02*
X91775000Y-153381000I51000J0D01*
G01*
X93275000Y-153381000D01*
G75*
G02*
X93326000Y-153432000I0J-51000D01*
G01*
X93326000Y-161432000D01*
G75*
G02*
X93275000Y-161483000I-51000J0D01*
G01*
X91775000Y-161483000D01*
G75*
G02*
X91724000Y-161432000I0J51000D01*
G01*
G37*
G36*
G01*
X89184000Y-161432000D02*
X89184000Y-153432000D01*
G75*
G02*
X89235000Y-153381000I51000J0D01*
G01*
X90735000Y-153381000D01*
G75*
G02*
X90786000Y-153432000I0J-51000D01*
G01*
X90786000Y-161432000D01*
G75*
G02*
X90735000Y-161483000I-51000J0D01*
G01*
X89235000Y-161483000D01*
G75*
G02*
X89184000Y-161432000I0J51000D01*
G01*
G37*
G36*
G01*
X86644000Y-161432000D02*
X86644000Y-153432000D01*
G75*
G02*
X86695000Y-153381000I51000J0D01*
G01*
X88195000Y-153381000D01*
G75*
G02*
X88246000Y-153432000I0J-51000D01*
G01*
X88246000Y-161432000D01*
G75*
G02*
X88195000Y-161483000I-51000J0D01*
G01*
X86695000Y-161483000D01*
G75*
G02*
X86644000Y-161432000I0J51000D01*
G01*
G37*
G36*
G01*
X84104000Y-161432000D02*
X84104000Y-153432000D01*
G75*
G02*
X84155000Y-153381000I51000J0D01*
G01*
X85655000Y-153381000D01*
G75*
G02*
X85706000Y-153432000I0J-51000D01*
G01*
X85706000Y-161432000D01*
G75*
G02*
X85655000Y-161483000I-51000J0D01*
G01*
X84155000Y-161483000D01*
G75*
G02*
X84104000Y-161432000I0J51000D01*
G01*
G37*
G36*
G01*
X81564000Y-161432000D02*
X81564000Y-153432000D01*
G75*
G02*
X81615000Y-153381000I51000J0D01*
G01*
X83115000Y-153381000D01*
G75*
G02*
X83166000Y-153432000I0J-51000D01*
G01*
X83166000Y-161432000D01*
G75*
G02*
X83115000Y-161483000I-51000J0D01*
G01*
X81615000Y-161483000D01*
G75*
G02*
X81564000Y-161432000I0J51000D01*
G01*
G37*
D11*
X85879000Y-47420000D03*
X90879000Y-47420000D03*
X119819000Y-114215000D03*
X124819000Y-114215000D03*
D15*
X200769000Y-100470000D03*
G36*
G01*
X212180000Y-99270000D02*
X212180000Y-101670000D01*
G75*
G02*
X212129000Y-101721000I-51000J0D01*
G01*
X209729000Y-101721000D01*
G75*
G02*
X209678000Y-101670000I0J51000D01*
G01*
X209678000Y-99270000D01*
G75*
G02*
X209729000Y-99219000I51000J0D01*
G01*
X212129000Y-99219000D01*
G75*
G02*
X212180000Y-99270000I0J-51000D01*
G01*
G37*
G36*
G01*
X176879000Y-124996000D02*
X174479000Y-124996000D01*
G75*
G02*
X174428000Y-124945000I0J51000D01*
G01*
X174428000Y-122545000D01*
G75*
G02*
X174479000Y-122494000I51000J0D01*
G01*
X176879000Y-122494000D01*
G75*
G02*
X176930000Y-122545000I0J-51000D01*
G01*
X176930000Y-124945000D01*
G75*
G02*
X176879000Y-124996000I-51000J0D01*
G01*
G37*
X175679000Y-113585000D03*
D11*
X182754000Y-122645000D03*
D12*
X182754000Y-115025000D03*
G36*
G01*
X204124000Y-90071000D02*
X202424000Y-90071000D01*
G75*
G02*
X202373000Y-90020000I0J51000D01*
G01*
X202373000Y-88320000D01*
G75*
G02*
X202424000Y-88269000I51000J0D01*
G01*
X204124000Y-88269000D01*
G75*
G02*
X204175000Y-88320000I0J-51000D01*
G01*
X204175000Y-90020000D01*
G75*
G02*
X204124000Y-90071000I-51000J0D01*
G01*
G37*
D16*
X205814000Y-89170000D03*
X208354000Y-89170000D03*
G36*
G01*
X96619000Y-125136000D02*
X95019000Y-125136000D01*
G75*
G02*
X94968000Y-125085000I0J51000D01*
G01*
X94968000Y-123485000D01*
G75*
G02*
X95019000Y-123434000I51000J0D01*
G01*
X96619000Y-123434000D01*
G75*
G02*
X96670000Y-123485000I0J-51000D01*
G01*
X96670000Y-125085000D01*
G75*
G02*
X96619000Y-125136000I-51000J0D01*
G01*
G37*
D12*
X111059000Y-116665000D03*
X98359000Y-124285000D03*
X108519000Y-116665000D03*
X100899000Y-124285000D03*
X105979000Y-116665000D03*
X103439000Y-124285000D03*
X103439000Y-116665000D03*
X105979000Y-124285000D03*
X100899000Y-116665000D03*
X108519000Y-124285000D03*
X98359000Y-116665000D03*
X111059000Y-124285000D03*
X95819000Y-116665000D03*
D11*
X119819000Y-119195000D03*
X124819000Y-119195000D03*
D12*
X212679000Y-113340000D03*
D11*
X212679000Y-105720000D03*
X84879000Y-80720000D03*
D12*
X92499000Y-80720000D03*
G36*
G01*
X97539000Y-81456000D02*
X95939000Y-81456000D01*
G75*
G02*
X95888000Y-81405000I0J51000D01*
G01*
X95888000Y-79805000D01*
G75*
G02*
X95939000Y-79754000I51000J0D01*
G01*
X97539000Y-79754000D01*
G75*
G02*
X97590000Y-79805000I0J-51000D01*
G01*
X97590000Y-81405000D01*
G75*
G02*
X97539000Y-81456000I-51000J0D01*
G01*
G37*
X96739000Y-78065000D03*
X96739000Y-75525000D03*
X96739000Y-72985000D03*
X96739000Y-70445000D03*
X96739000Y-67905000D03*
X96739000Y-65365000D03*
X96739000Y-62825000D03*
X96739000Y-60285000D03*
G36*
G01*
X97098999Y-88275000D02*
X97098999Y-86675000D01*
G75*
G02*
X97149999Y-86624000I51000J0D01*
G01*
X98749999Y-86624000D01*
G75*
G02*
X98800999Y-86675000I0J-51000D01*
G01*
X98800999Y-88275000D01*
G75*
G02*
X98749999Y-88326000I-51000J0D01*
G01*
X97149999Y-88326000D01*
G75*
G02*
X97098999Y-88275000I0J51000D01*
G01*
G37*
X100489999Y-87475000D03*
X103029999Y-87475000D03*
X105569999Y-87475000D03*
X108109999Y-87475000D03*
X110649999Y-87475000D03*
X113189999Y-87475000D03*
X115729999Y-87475000D03*
D16*
X84619000Y-114305000D03*
X84619000Y-111765000D03*
G36*
G01*
X83718000Y-110075000D02*
X83718000Y-108375000D01*
G75*
G02*
X83769000Y-108324000I51000J0D01*
G01*
X85469000Y-108324000D01*
G75*
G02*
X85520000Y-108375000I0J-51000D01*
G01*
X85520000Y-110075000D01*
G75*
G02*
X85469000Y-110126000I-51000J0D01*
G01*
X83769000Y-110126000D01*
G75*
G02*
X83718000Y-110075000I0J51000D01*
G01*
G37*
G36*
G01*
X83778000Y-58545000D02*
X83778000Y-56945000D01*
G75*
G02*
X83829000Y-56894000I51000J0D01*
G01*
X85429000Y-56894000D01*
G75*
G02*
X85480000Y-56945000I0J-51000D01*
G01*
X85480000Y-58545000D01*
G75*
G02*
X85429000Y-58596000I-51000J0D01*
G01*
X83829000Y-58596000D01*
G75*
G02*
X83778000Y-58545000I0J51000D01*
G01*
G37*
D12*
X92249000Y-75525000D03*
X84629000Y-60285000D03*
X92249000Y-72985000D03*
X84629000Y-62825000D03*
X92249000Y-70445000D03*
X84629000Y-65365000D03*
X92249000Y-67905000D03*
X84629000Y-67905000D03*
X92249000Y-65365000D03*
X84629000Y-70445000D03*
X92249000Y-62825000D03*
X84629000Y-72985000D03*
X92249000Y-60285000D03*
X84629000Y-75525000D03*
X92249000Y-57745000D03*
G36*
G01*
X135409000Y-126636000D02*
X133809000Y-126636000D01*
G75*
G02*
X133758000Y-126585000I0J51000D01*
G01*
X133758000Y-124985000D01*
G75*
G02*
X133809000Y-124934000I51000J0D01*
G01*
X135409000Y-124934000D01*
G75*
G02*
X135460000Y-124985000I0J-51000D01*
G01*
X135460000Y-126585000D01*
G75*
G02*
X135409000Y-126636000I-51000J0D01*
G01*
G37*
X167629000Y-110545000D03*
X137149000Y-125785000D03*
X165089000Y-110545000D03*
X139689000Y-125785000D03*
X162549000Y-110545000D03*
X142229000Y-125785000D03*
X160009000Y-110545000D03*
X144769000Y-125785000D03*
X157469000Y-110545000D03*
X147309000Y-125785000D03*
X154929000Y-110545000D03*
X149849000Y-125785000D03*
X152389000Y-110545000D03*
X152389000Y-125785000D03*
X149849000Y-110545000D03*
X154929000Y-125785000D03*
X147309000Y-110545000D03*
X157469000Y-125785000D03*
X144769000Y-110545000D03*
X160009000Y-125785000D03*
X142229000Y-110545000D03*
X162549000Y-125785000D03*
X139689000Y-110545000D03*
X165089000Y-125785000D03*
X137149000Y-110545000D03*
X167629000Y-125785000D03*
X134609000Y-110545000D03*
G36*
G01*
X137789999Y-90169000D02*
X139389999Y-90169000D01*
G75*
G02*
X139440999Y-90220000I0J-51000D01*
G01*
X139440999Y-91820000D01*
G75*
G02*
X139389999Y-91871000I-51000J0D01*
G01*
X137789999Y-91871000D01*
G75*
G02*
X137738999Y-91820000I0J51000D01*
G01*
X137738999Y-90220000D01*
G75*
G02*
X137789999Y-90169000I51000J0D01*
G01*
G37*
X90329999Y-106260000D03*
X136049999Y-91020000D03*
X92869999Y-106260000D03*
X133509999Y-91020000D03*
X95409999Y-106260000D03*
X130969999Y-91020000D03*
X97949999Y-106260000D03*
X128429999Y-91020000D03*
X100489999Y-106260000D03*
X125889999Y-91020000D03*
X103029999Y-106260000D03*
X123349999Y-91020000D03*
X105569999Y-106260000D03*
X120809999Y-91020000D03*
X108109999Y-106260000D03*
X118269999Y-91020000D03*
X110649999Y-106260000D03*
X115729999Y-91020000D03*
X113189999Y-106260000D03*
X113189999Y-91020000D03*
X115729999Y-106260000D03*
X110649999Y-91020000D03*
X118269999Y-106260000D03*
X108109999Y-91020000D03*
X120809999Y-106260000D03*
X105569999Y-91020000D03*
X123349999Y-106260000D03*
X103029999Y-91020000D03*
X125889999Y-106260000D03*
X100489999Y-91020000D03*
X128429999Y-106260000D03*
X97949999Y-91020000D03*
X130969999Y-106260000D03*
X95409999Y-91020000D03*
X133509999Y-106260000D03*
X92869999Y-91020000D03*
X136049999Y-106260000D03*
X90329999Y-91020000D03*
X138589999Y-106260000D03*
X193029000Y-106260000D03*
X144769000Y-91020000D03*
X190489000Y-106260000D03*
X147309000Y-91020000D03*
X187949000Y-106260000D03*
X149849000Y-91020000D03*
X185409000Y-106260000D03*
X152389000Y-91020000D03*
X182869000Y-106260000D03*
X154929000Y-91020000D03*
X180329000Y-106260000D03*
X157469000Y-91020000D03*
X177789000Y-106260000D03*
X160009000Y-91020000D03*
X175249000Y-106260000D03*
X162549000Y-91020000D03*
X172709000Y-106260000D03*
X165089000Y-91020000D03*
X170169000Y-106260000D03*
X167629000Y-91020000D03*
X167629000Y-106260000D03*
X170169000Y-91020000D03*
X165089000Y-106260000D03*
X172709000Y-91020000D03*
X162549000Y-106260000D03*
X175249000Y-91020000D03*
X160009000Y-106260000D03*
X177789000Y-91020000D03*
X157469000Y-106260000D03*
X180329000Y-91020000D03*
X154929000Y-106260000D03*
X182869000Y-91020000D03*
X152389000Y-106260000D03*
X185409000Y-91020000D03*
X149849000Y-106260000D03*
X187949000Y-91020000D03*
X147309000Y-106260000D03*
X190489000Y-91020000D03*
X144769000Y-106260000D03*
G36*
G01*
X192229000Y-90169000D02*
X193829000Y-90169000D01*
G75*
G02*
X193880000Y-90220000I0J-51000D01*
G01*
X193880000Y-91820000D01*
G75*
G02*
X193829000Y-91871000I-51000J0D01*
G01*
X192229000Y-91871000D01*
G75*
G02*
X192178000Y-91820000I0J51000D01*
G01*
X192178000Y-90220000D01*
G75*
G02*
X192229000Y-90169000I51000J0D01*
G01*
G37*
G36*
G01*
X100173001Y-51050001D02*
X100173001Y-49450001D01*
G75*
G02*
X100224001Y-49399001I51000J0D01*
G01*
X101824001Y-49399001D01*
G75*
G02*
X101875001Y-49450001I0J-51000D01*
G01*
X101875001Y-51050001D01*
G75*
G02*
X101824001Y-51101001I-51000J0D01*
G01*
X100224001Y-51101001D01*
G75*
G02*
X100173001Y-51050001I0J51000D01*
G01*
G37*
X116264001Y-83270001D03*
X101024001Y-52790001D03*
X116264001Y-80730001D03*
X101024001Y-55330001D03*
X116264001Y-78190001D03*
X101024001Y-57870001D03*
X116264001Y-75650001D03*
X101024001Y-60410001D03*
X116264001Y-73110001D03*
X101024001Y-62950001D03*
X116264001Y-70570001D03*
X101024001Y-65490001D03*
X116264001Y-68030001D03*
X101024001Y-68030001D03*
X116264001Y-65490001D03*
X101024001Y-70570001D03*
X116264001Y-62950001D03*
X101024001Y-73110001D03*
X116264001Y-60410001D03*
X101024001Y-75650001D03*
X116264001Y-57870001D03*
X101024001Y-78190001D03*
X116264001Y-55330001D03*
X101024001Y-80730001D03*
X116264001Y-52790001D03*
X101024001Y-83270001D03*
X116264001Y-50250001D03*
X135197000Y-50250001D03*
X119957000Y-83270001D03*
X135197000Y-52790001D03*
X119957000Y-80730001D03*
X135197000Y-55330001D03*
X119957000Y-78190001D03*
X135197000Y-57870001D03*
X119957000Y-75650001D03*
X135197000Y-60410001D03*
X119957000Y-73110001D03*
X135197000Y-62950001D03*
X119957000Y-70570001D03*
X135197000Y-65490001D03*
X119957000Y-68030001D03*
X135197000Y-68030001D03*
X119957000Y-65490001D03*
X135197000Y-70570001D03*
X119957000Y-62950001D03*
X135197000Y-73110001D03*
X119957000Y-60410001D03*
X135197000Y-75650001D03*
X119957000Y-57870001D03*
X135197000Y-78190001D03*
X119957000Y-55330001D03*
X135197000Y-80730001D03*
X119957000Y-52790001D03*
X135197000Y-83270001D03*
G36*
G01*
X119106000Y-51050001D02*
X119106000Y-49450001D01*
G75*
G02*
X119157000Y-49399001I51000J0D01*
G01*
X120757000Y-49399001D01*
G75*
G02*
X120808000Y-49450001I0J-51000D01*
G01*
X120808000Y-51050001D01*
G75*
G02*
X120757000Y-51101001I-51000J0D01*
G01*
X119157000Y-51101001D01*
G75*
G02*
X119106000Y-51050001I0J51000D01*
G01*
G37*
G36*
G01*
X138038999Y-51050001D02*
X138038999Y-49450001D01*
G75*
G02*
X138089999Y-49399001I51000J0D01*
G01*
X139689999Y-49399001D01*
G75*
G02*
X139740999Y-49450001I0J-51000D01*
G01*
X139740999Y-51050001D01*
G75*
G02*
X139689999Y-51101001I-51000J0D01*
G01*
X138089999Y-51101001D01*
G75*
G02*
X138038999Y-51050001I0J51000D01*
G01*
G37*
X154129999Y-83270001D03*
X138889999Y-52790001D03*
X154129999Y-80730001D03*
X138889999Y-55330001D03*
X154129999Y-78190001D03*
X138889999Y-57870001D03*
X154129999Y-75650001D03*
X138889999Y-60410001D03*
X154129999Y-73110001D03*
X138889999Y-62950001D03*
X154129999Y-70570001D03*
X138889999Y-65490001D03*
X154129999Y-68030001D03*
X138889999Y-68030001D03*
X154129999Y-65490001D03*
X138889999Y-70570001D03*
X154129999Y-62950001D03*
X138889999Y-73110001D03*
X154129999Y-60410001D03*
X138889999Y-75650001D03*
X154129999Y-57870001D03*
X138889999Y-78190001D03*
X154129999Y-55330001D03*
X138889999Y-80730001D03*
X154129999Y-52790001D03*
X138889999Y-83270001D03*
X154129999Y-50250001D03*
X173062998Y-50250001D03*
X157822998Y-83270001D03*
X173062998Y-52790001D03*
X157822998Y-80730001D03*
X173062998Y-55330001D03*
X157822998Y-78190001D03*
X173062998Y-57870001D03*
X157822998Y-75650001D03*
X173062998Y-60410001D03*
X157822998Y-73110001D03*
X173062998Y-62950001D03*
X157822998Y-70570001D03*
X173062998Y-65490001D03*
X157822998Y-68030001D03*
X173062998Y-68030001D03*
X157822998Y-65490001D03*
X173062998Y-70570001D03*
X157822998Y-62950001D03*
X173062998Y-73110001D03*
X157822998Y-60410001D03*
X173062998Y-75650001D03*
X157822998Y-57870001D03*
X173062998Y-78190001D03*
X157822998Y-55330001D03*
X173062998Y-80730001D03*
X157822998Y-52790001D03*
X173062998Y-83270001D03*
G36*
G01*
X156971998Y-51050001D02*
X156971998Y-49450001D01*
G75*
G02*
X157022998Y-49399001I51000J0D01*
G01*
X158622998Y-49399001D01*
G75*
G02*
X158673998Y-49450001I0J-51000D01*
G01*
X158673998Y-51050001D01*
G75*
G02*
X158622998Y-51101001I-51000J0D01*
G01*
X157022998Y-51101001D01*
G75*
G02*
X156971998Y-51050001I0J51000D01*
G01*
G37*
G36*
G01*
X175904997Y-51050001D02*
X175904997Y-49450001D01*
G75*
G02*
X175955997Y-49399001I51000J0D01*
G01*
X177555997Y-49399001D01*
G75*
G02*
X177606997Y-49450001I0J-51000D01*
G01*
X177606997Y-51050001D01*
G75*
G02*
X177555997Y-51101001I-51000J0D01*
G01*
X175955997Y-51101001D01*
G75*
G02*
X175904997Y-51050001I0J51000D01*
G01*
G37*
X191995997Y-83270001D03*
X176755997Y-52790001D03*
X191995997Y-80730001D03*
X176755997Y-55330001D03*
X191995997Y-78190001D03*
X176755997Y-57870001D03*
X191995997Y-75650001D03*
X176755997Y-60410001D03*
X191995997Y-73110001D03*
X176755997Y-62950001D03*
X191995997Y-70570001D03*
X176755997Y-65490001D03*
X191995997Y-68030001D03*
X176755997Y-68030001D03*
X191995997Y-65490001D03*
X176755997Y-70570001D03*
X191995997Y-62950001D03*
X176755997Y-73110001D03*
X191995997Y-60410001D03*
X176755997Y-75650001D03*
X191995997Y-57870001D03*
X176755997Y-78190001D03*
X191995997Y-55330001D03*
X176755997Y-80730001D03*
X191995997Y-52790001D03*
X176755997Y-83270001D03*
X191995997Y-50250001D03*
X210929000Y-50315000D03*
X195689000Y-83335000D03*
X210929000Y-52855000D03*
X195689000Y-80795000D03*
X210929000Y-55395000D03*
X195689000Y-78255000D03*
X210929000Y-57935000D03*
X195689000Y-75715000D03*
X210929000Y-60475000D03*
X195689000Y-73175000D03*
X210929000Y-63015000D03*
X195689000Y-70635000D03*
X210929000Y-65555000D03*
X195689000Y-68095000D03*
X210929000Y-68095000D03*
X195689000Y-65555000D03*
X210929000Y-70635000D03*
X195689000Y-63015000D03*
X210929000Y-73175000D03*
X195689000Y-60475000D03*
X210929000Y-75715000D03*
X195689000Y-57935000D03*
X210929000Y-78255000D03*
X195689000Y-55395000D03*
X210929000Y-80795000D03*
X195689000Y-52855000D03*
X210929000Y-83335000D03*
G36*
G01*
X194838000Y-51115000D02*
X194838000Y-49515000D01*
G75*
G02*
X194889000Y-49464000I51000J0D01*
G01*
X196489000Y-49464000D01*
G75*
G02*
X196540000Y-49515000I0J-51000D01*
G01*
X196540000Y-51115000D01*
G75*
G02*
X196489000Y-51166000I-51000J0D01*
G01*
X194889000Y-51166000D01*
G75*
G02*
X194838000Y-51115000I0J51000D01*
G01*
G37*
G36*
G01*
X189280000Y-39345000D02*
X189280000Y-41145000D01*
G75*
G02*
X189229000Y-41196000I-51000J0D01*
G01*
X187429000Y-41196000D01*
G75*
G02*
X187378000Y-41145000I0J51000D01*
G01*
X187378000Y-39345000D01*
G75*
G02*
X187429000Y-39294000I51000J0D01*
G01*
X189229000Y-39294000D01*
G75*
G02*
X189280000Y-39345000I0J-51000D01*
G01*
G37*
D17*
X185789000Y-40245000D03*
D13*
X172354000Y-42620000D03*
X172354000Y-38120000D03*
X178854000Y-42620000D03*
X178854000Y-38120000D03*
D18*
X137889400Y-161168197D02*
X137819773Y-161298459D01*
X137693420Y-161452420D01*
X137539459Y-161578773D01*
X137409197Y-161648400D01*
X80660803Y-161648400D01*
X80530541Y-161578773D01*
X80376580Y-161452420D01*
X80250227Y-161298459D01*
X80180600Y-161168197D01*
X80180600Y-152987000D01*
X137889400Y-152987000D01*
X137889400Y-161168197D01*
D19*
G36*
X137889400Y-161168197D02*
G01*
X137819773Y-161298459D01*
X137693420Y-161452420D01*
X137539459Y-161578773D01*
X137409197Y-161648400D01*
X80660803Y-161648400D01*
X80530541Y-161578773D01*
X80376580Y-161452420D01*
X80250227Y-161298459D01*
X80180600Y-161168197D01*
X80180600Y-152987000D01*
X137889400Y-152987000D01*
X137889400Y-161168197D01*
G37*
M02*
