G04 #@! TF.GenerationSoftware,KiCad,Pcbnew,(5.1.9)-1*
G04 #@! TF.CreationDate,2023-04-19T14:15:06+01:00*
G04 #@! TF.ProjectId,C64RAMCart,43363452-414d-4436-9172-742e6b696361,rev?*
G04 #@! TF.SameCoordinates,Original*
G04 #@! TF.FileFunction,Legend,Bot*
G04 #@! TF.FilePolarity,Positive*
%FSLAX46Y46*%
G04 Gerber Fmt 4.6, Leading zero omitted, Abs format (unit mm)*
G04 Created by KiCad (PCBNEW (5.1.9)-1) date 2023-04-19 14:15:06*
%MOMM*%
%LPD*%
G01*
G04 APERTURE LIST*
%ADD10C,0.200000*%
%ADD11C,0.150000*%
%ADD12C,3.102000*%
%ADD13C,1.702000*%
%ADD14C,2.102000*%
%ADD15O,2.502000X2.502000*%
%ADD16O,1.702000X1.702000*%
%ADD17O,1.802000X1.802000*%
%ADD18C,5.100000*%
%ADD19C,0.254000*%
%ADD20C,0.100000*%
G04 APERTURE END LIST*
D10*
X104902857Y-135317857D02*
X104688571Y-135389285D01*
X104617142Y-135460714D01*
X104545714Y-135603571D01*
X104545714Y-135817857D01*
X104617142Y-135960714D01*
X104688571Y-136032142D01*
X104831428Y-136103571D01*
X105402857Y-136103571D01*
X105402857Y-134603571D01*
X104902857Y-134603571D01*
X104760000Y-134675000D01*
X104688571Y-134746428D01*
X104617142Y-134889285D01*
X104617142Y-135032142D01*
X104688571Y-135175000D01*
X104760000Y-135246428D01*
X104902857Y-135317857D01*
X105402857Y-135317857D01*
X104045714Y-135103571D02*
X103688571Y-136103571D01*
X103331428Y-135103571D02*
X103688571Y-136103571D01*
X103831428Y-136460714D01*
X103902857Y-136532142D01*
X104045714Y-136603571D01*
X101188571Y-134603571D02*
X101188571Y-135675000D01*
X101260000Y-135889285D01*
X101402857Y-136032142D01*
X101617142Y-136103571D01*
X101760000Y-136103571D01*
X100474285Y-135960714D02*
X100402857Y-136032142D01*
X100474285Y-136103571D01*
X100545714Y-136032142D01*
X100474285Y-135960714D01*
X100474285Y-136103571D01*
X98688571Y-136032142D02*
X98474285Y-136103571D01*
X98117142Y-136103571D01*
X97974285Y-136032142D01*
X97902857Y-135960714D01*
X97831428Y-135817857D01*
X97831428Y-135675000D01*
X97902857Y-135532142D01*
X97974285Y-135460714D01*
X98117142Y-135389285D01*
X98402857Y-135317857D01*
X98545714Y-135246428D01*
X98617142Y-135175000D01*
X98688571Y-135032142D01*
X98688571Y-134889285D01*
X98617142Y-134746428D01*
X98545714Y-134675000D01*
X98402857Y-134603571D01*
X98045714Y-134603571D01*
X97831428Y-134675000D01*
X96545714Y-136032142D02*
X96688571Y-136103571D01*
X96974285Y-136103571D01*
X97117142Y-136032142D01*
X97188571Y-135960714D01*
X97260000Y-135817857D01*
X97260000Y-135389285D01*
X97188571Y-135246428D01*
X97117142Y-135175000D01*
X96974285Y-135103571D01*
X96688571Y-135103571D01*
X96545714Y-135175000D01*
X95902857Y-136103571D02*
X95902857Y-134603571D01*
X95260000Y-136103571D02*
X95260000Y-135317857D01*
X95331428Y-135175000D01*
X95474285Y-135103571D01*
X95688571Y-135103571D01*
X95831428Y-135175000D01*
X95902857Y-135246428D01*
X93902857Y-135103571D02*
X93902857Y-136103571D01*
X94545714Y-135103571D02*
X94545714Y-135889285D01*
X94474285Y-136032142D01*
X94331428Y-136103571D01*
X94117142Y-136103571D01*
X93974285Y-136032142D01*
X93902857Y-135960714D01*
X92545714Y-136032142D02*
X92688571Y-136103571D01*
X92974285Y-136103571D01*
X93117142Y-136032142D01*
X93188571Y-135960714D01*
X93260000Y-135817857D01*
X93260000Y-135389285D01*
X93188571Y-135246428D01*
X93117142Y-135175000D01*
X92974285Y-135103571D01*
X92688571Y-135103571D01*
X92545714Y-135175000D01*
X91902857Y-136103571D02*
X91902857Y-134603571D01*
X91260000Y-136103571D02*
X91260000Y-135317857D01*
X91331428Y-135175000D01*
X91474285Y-135103571D01*
X91688571Y-135103571D01*
X91831428Y-135175000D01*
X91902857Y-135246428D01*
X90760000Y-135103571D02*
X90188571Y-135103571D01*
X90545714Y-134603571D02*
X90545714Y-135889285D01*
X90474285Y-136032142D01*
X90331428Y-136103571D01*
X90188571Y-136103571D01*
X87902857Y-136103571D02*
X87902857Y-135317857D01*
X87974285Y-135175000D01*
X88117142Y-135103571D01*
X88402857Y-135103571D01*
X88545714Y-135175000D01*
X87902857Y-136032142D02*
X88045714Y-136103571D01*
X88402857Y-136103571D01*
X88545714Y-136032142D01*
X88617142Y-135889285D01*
X88617142Y-135746428D01*
X88545714Y-135603571D01*
X88402857Y-135532142D01*
X88045714Y-135532142D01*
X87902857Y-135460714D01*
X87260000Y-136032142D02*
X87117142Y-136103571D01*
X86831428Y-136103571D01*
X86688571Y-136032142D01*
X86617142Y-135889285D01*
X86617142Y-135817857D01*
X86688571Y-135675000D01*
X86831428Y-135603571D01*
X87045714Y-135603571D01*
X87188571Y-135532142D01*
X87260000Y-135389285D01*
X87260000Y-135317857D01*
X87188571Y-135175000D01*
X87045714Y-135103571D01*
X86831428Y-135103571D01*
X86688571Y-135175000D01*
X105402857Y-137553571D02*
X105402857Y-139053571D01*
X105402857Y-137625000D02*
X105260000Y-137553571D01*
X104974285Y-137553571D01*
X104831428Y-137625000D01*
X104760000Y-137696428D01*
X104688571Y-137839285D01*
X104688571Y-138267857D01*
X104760000Y-138410714D01*
X104831428Y-138482142D01*
X104974285Y-138553571D01*
X105260000Y-138553571D01*
X105402857Y-138482142D01*
X103402857Y-137553571D02*
X103402857Y-138553571D01*
X104045714Y-137553571D02*
X104045714Y-138339285D01*
X103974285Y-138482142D01*
X103831428Y-138553571D01*
X103617142Y-138553571D01*
X103474285Y-138482142D01*
X103402857Y-138410714D01*
X102688571Y-138553571D02*
X102688571Y-137053571D01*
X102688571Y-137625000D02*
X102545714Y-137553571D01*
X102260000Y-137553571D01*
X102117142Y-137625000D01*
X102045714Y-137696428D01*
X101974285Y-137839285D01*
X101974285Y-138267857D01*
X102045714Y-138410714D01*
X102117142Y-138482142D01*
X102260000Y-138553571D01*
X102545714Y-138553571D01*
X102688571Y-138482142D01*
X101117142Y-138553571D02*
X101260000Y-138482142D01*
X101331428Y-138339285D01*
X101331428Y-137053571D01*
X100545714Y-138553571D02*
X100545714Y-137553571D01*
X100545714Y-137053571D02*
X100617142Y-137125000D01*
X100545714Y-137196428D01*
X100474285Y-137125000D01*
X100545714Y-137053571D01*
X100545714Y-137196428D01*
X99902857Y-138482142D02*
X99760000Y-138553571D01*
X99474285Y-138553571D01*
X99331428Y-138482142D01*
X99260000Y-138339285D01*
X99260000Y-138267857D01*
X99331428Y-138125000D01*
X99474285Y-138053571D01*
X99688571Y-138053571D01*
X99831428Y-137982142D01*
X99902857Y-137839285D01*
X99902857Y-137767857D01*
X99831428Y-137625000D01*
X99688571Y-137553571D01*
X99474285Y-137553571D01*
X99331428Y-137625000D01*
X98617142Y-138553571D02*
X98617142Y-137053571D01*
X97974285Y-138553571D02*
X97974285Y-137767857D01*
X98045714Y-137625000D01*
X98188571Y-137553571D01*
X98402857Y-137553571D01*
X98545714Y-137625000D01*
X98617142Y-137696428D01*
X96688571Y-138482142D02*
X96831428Y-138553571D01*
X97117142Y-138553571D01*
X97260000Y-138482142D01*
X97331428Y-138339285D01*
X97331428Y-137767857D01*
X97260000Y-137625000D01*
X97117142Y-137553571D01*
X96831428Y-137553571D01*
X96688571Y-137625000D01*
X96617142Y-137767857D01*
X96617142Y-137910714D01*
X97331428Y-138053571D01*
X95331428Y-138553571D02*
X95331428Y-137053571D01*
X95331428Y-138482142D02*
X95474285Y-138553571D01*
X95760000Y-138553571D01*
X95902857Y-138482142D01*
X95974285Y-138410714D01*
X96045714Y-138267857D01*
X96045714Y-137839285D01*
X95974285Y-137696428D01*
X95902857Y-137625000D01*
X95760000Y-137553571D01*
X95474285Y-137553571D01*
X95331428Y-137625000D01*
X93474285Y-138553571D02*
X93474285Y-137553571D01*
X93474285Y-137053571D02*
X93545714Y-137125000D01*
X93474285Y-137196428D01*
X93402857Y-137125000D01*
X93474285Y-137053571D01*
X93474285Y-137196428D01*
X92760000Y-137553571D02*
X92760000Y-138553571D01*
X92760000Y-137696428D02*
X92688571Y-137625000D01*
X92545714Y-137553571D01*
X92331428Y-137553571D01*
X92188571Y-137625000D01*
X92117142Y-137767857D01*
X92117142Y-138553571D01*
X90474285Y-137553571D02*
X89902857Y-137553571D01*
X90260000Y-137053571D02*
X90260000Y-138339285D01*
X90188571Y-138482142D01*
X90045714Y-138553571D01*
X89902857Y-138553571D01*
X89402857Y-138553571D02*
X89402857Y-137053571D01*
X88760000Y-138553571D02*
X88760000Y-137767857D01*
X88831428Y-137625000D01*
X88974285Y-137553571D01*
X89188571Y-137553571D01*
X89331428Y-137625000D01*
X89402857Y-137696428D01*
X87474285Y-138482142D02*
X87617142Y-138553571D01*
X87902857Y-138553571D01*
X88045714Y-138482142D01*
X88117142Y-138339285D01*
X88117142Y-137767857D01*
X88045714Y-137625000D01*
X87902857Y-137553571D01*
X87617142Y-137553571D01*
X87474285Y-137625000D01*
X87402857Y-137767857D01*
X87402857Y-137910714D01*
X88117142Y-138053571D01*
X104760000Y-139503571D02*
X105045714Y-139503571D01*
X105188571Y-139575000D01*
X105260000Y-139646428D01*
X105402857Y-139860714D01*
X105474285Y-140146428D01*
X105474285Y-140717857D01*
X105402857Y-140860714D01*
X105331428Y-140932142D01*
X105188571Y-141003571D01*
X104902857Y-141003571D01*
X104760000Y-140932142D01*
X104688571Y-140860714D01*
X104617142Y-140717857D01*
X104617142Y-140360714D01*
X104688571Y-140217857D01*
X104760000Y-140146428D01*
X104902857Y-140075000D01*
X105188571Y-140075000D01*
X105331428Y-140146428D01*
X105402857Y-140217857D01*
X105474285Y-140360714D01*
X103331428Y-140003571D02*
X103331428Y-141003571D01*
X103688571Y-139432142D02*
X104045714Y-140503571D01*
X103117142Y-140503571D01*
X102474285Y-139503571D02*
X102617142Y-139789285D01*
X101260000Y-140932142D02*
X101402857Y-141003571D01*
X101688571Y-141003571D01*
X101831428Y-140932142D01*
X101902857Y-140789285D01*
X101902857Y-140217857D01*
X101831428Y-140075000D01*
X101688571Y-140003571D01*
X101402857Y-140003571D01*
X101260000Y-140075000D01*
X101188571Y-140217857D01*
X101188571Y-140360714D01*
X101902857Y-140503571D01*
X100545714Y-141003571D02*
X100545714Y-140003571D01*
X100545714Y-140289285D02*
X100474285Y-140146428D01*
X100402857Y-140075000D01*
X100260000Y-140003571D01*
X100117142Y-140003571D01*
X98474285Y-141003571D02*
X98474285Y-140003571D01*
X98474285Y-140146428D02*
X98402857Y-140075000D01*
X98260000Y-140003571D01*
X98045714Y-140003571D01*
X97902857Y-140075000D01*
X97831428Y-140217857D01*
X97831428Y-141003571D01*
X97831428Y-140217857D02*
X97760000Y-140075000D01*
X97617142Y-140003571D01*
X97402857Y-140003571D01*
X97260000Y-140075000D01*
X97188571Y-140217857D01*
X97188571Y-141003571D01*
X95831428Y-141003571D02*
X95831428Y-140217857D01*
X95902857Y-140075000D01*
X96045714Y-140003571D01*
X96331428Y-140003571D01*
X96474285Y-140075000D01*
X95831428Y-140932142D02*
X95974285Y-141003571D01*
X96331428Y-141003571D01*
X96474285Y-140932142D01*
X96545714Y-140789285D01*
X96545714Y-140646428D01*
X96474285Y-140503571D01*
X96331428Y-140432142D01*
X95974285Y-140432142D01*
X95831428Y-140360714D01*
X94474285Y-140003571D02*
X94474285Y-141217857D01*
X94545714Y-141360714D01*
X94617142Y-141432142D01*
X94760000Y-141503571D01*
X94974285Y-141503571D01*
X95117142Y-141432142D01*
X94474285Y-140932142D02*
X94617142Y-141003571D01*
X94902857Y-141003571D01*
X95045714Y-140932142D01*
X95117142Y-140860714D01*
X95188571Y-140717857D01*
X95188571Y-140289285D01*
X95117142Y-140146428D01*
X95045714Y-140075000D01*
X94902857Y-140003571D01*
X94617142Y-140003571D01*
X94474285Y-140075000D01*
X93117142Y-141003571D02*
X93117142Y-140217857D01*
X93188571Y-140075000D01*
X93331428Y-140003571D01*
X93617142Y-140003571D01*
X93760000Y-140075000D01*
X93117142Y-140932142D02*
X93260000Y-141003571D01*
X93617142Y-141003571D01*
X93760000Y-140932142D01*
X93831428Y-140789285D01*
X93831428Y-140646428D01*
X93760000Y-140503571D01*
X93617142Y-140432142D01*
X93260000Y-140432142D01*
X93117142Y-140360714D01*
X92545714Y-140003571D02*
X91760000Y-140003571D01*
X92545714Y-141003571D01*
X91760000Y-141003571D01*
X91188571Y-141003571D02*
X91188571Y-140003571D01*
X91188571Y-139503571D02*
X91260000Y-139575000D01*
X91188571Y-139646428D01*
X91117142Y-139575000D01*
X91188571Y-139503571D01*
X91188571Y-139646428D01*
X90474285Y-140003571D02*
X90474285Y-141003571D01*
X90474285Y-140146428D02*
X90402857Y-140075000D01*
X90260000Y-140003571D01*
X90045714Y-140003571D01*
X89902857Y-140075000D01*
X89831428Y-140217857D01*
X89831428Y-141003571D01*
X88545714Y-140932142D02*
X88688571Y-141003571D01*
X88974285Y-141003571D01*
X89117142Y-140932142D01*
X89188571Y-140789285D01*
X89188571Y-140217857D01*
X89117142Y-140075000D01*
X88974285Y-140003571D01*
X88688571Y-140003571D01*
X88545714Y-140075000D01*
X88474285Y-140217857D01*
X88474285Y-140360714D01*
X89188571Y-140503571D01*
X105402857Y-143453571D02*
X105402857Y-141953571D01*
X104902857Y-143025000D01*
X104402857Y-141953571D01*
X104402857Y-143453571D01*
X103045714Y-143453571D02*
X103045714Y-142667857D01*
X103117142Y-142525000D01*
X103260000Y-142453571D01*
X103545714Y-142453571D01*
X103688571Y-142525000D01*
X103045714Y-143382142D02*
X103188571Y-143453571D01*
X103545714Y-143453571D01*
X103688571Y-143382142D01*
X103760000Y-143239285D01*
X103760000Y-143096428D01*
X103688571Y-142953571D01*
X103545714Y-142882142D01*
X103188571Y-142882142D01*
X103045714Y-142810714D01*
X102331428Y-143453571D02*
X102331428Y-142453571D01*
X102331428Y-142739285D02*
X102260000Y-142596428D01*
X102188571Y-142525000D01*
X102045714Y-142453571D01*
X101902857Y-142453571D01*
X100760000Y-143382142D02*
X100902857Y-143453571D01*
X101188571Y-143453571D01*
X101331428Y-143382142D01*
X101402857Y-143310714D01*
X101474285Y-143167857D01*
X101474285Y-142739285D01*
X101402857Y-142596428D01*
X101331428Y-142525000D01*
X101188571Y-142453571D01*
X100902857Y-142453571D01*
X100760000Y-142525000D01*
X100117142Y-143453571D02*
X100117142Y-141953571D01*
X99474285Y-143453571D02*
X99474285Y-142667857D01*
X99545714Y-142525000D01*
X99688571Y-142453571D01*
X99902857Y-142453571D01*
X100045714Y-142525000D01*
X100117142Y-142596428D01*
X96831428Y-143453571D02*
X97688571Y-143453571D01*
X97260000Y-143453571D02*
X97260000Y-141953571D01*
X97402857Y-142167857D01*
X97545714Y-142310714D01*
X97688571Y-142382142D01*
X96117142Y-143453571D02*
X95831428Y-143453571D01*
X95688571Y-143382142D01*
X95617142Y-143310714D01*
X95474285Y-143096428D01*
X95402857Y-142810714D01*
X95402857Y-142239285D01*
X95474285Y-142096428D01*
X95545714Y-142025000D01*
X95688571Y-141953571D01*
X95974285Y-141953571D01*
X96117142Y-142025000D01*
X96188571Y-142096428D01*
X96260000Y-142239285D01*
X96260000Y-142596428D01*
X96188571Y-142739285D01*
X96117142Y-142810714D01*
X95974285Y-142882142D01*
X95688571Y-142882142D01*
X95545714Y-142810714D01*
X95474285Y-142739285D01*
X95402857Y-142596428D01*
X94545714Y-142596428D02*
X94688571Y-142525000D01*
X94760000Y-142453571D01*
X94831428Y-142310714D01*
X94831428Y-142239285D01*
X94760000Y-142096428D01*
X94688571Y-142025000D01*
X94545714Y-141953571D01*
X94260000Y-141953571D01*
X94117142Y-142025000D01*
X94045714Y-142096428D01*
X93974285Y-142239285D01*
X93974285Y-142310714D01*
X94045714Y-142453571D01*
X94117142Y-142525000D01*
X94260000Y-142596428D01*
X94545714Y-142596428D01*
X94688571Y-142667857D01*
X94760000Y-142739285D01*
X94831428Y-142882142D01*
X94831428Y-143167857D01*
X94760000Y-143310714D01*
X94688571Y-143382142D01*
X94545714Y-143453571D01*
X94260000Y-143453571D01*
X94117142Y-143382142D01*
X94045714Y-143310714D01*
X93974285Y-143167857D01*
X93974285Y-142882142D01*
X94045714Y-142739285D01*
X94117142Y-142667857D01*
X94260000Y-142596428D01*
X93260000Y-143453571D02*
X92974285Y-143453571D01*
X92831428Y-143382142D01*
X92760000Y-143310714D01*
X92617142Y-143096428D01*
X92545714Y-142810714D01*
X92545714Y-142239285D01*
X92617142Y-142096428D01*
X92688571Y-142025000D01*
X92831428Y-141953571D01*
X93117142Y-141953571D01*
X93260000Y-142025000D01*
X93331428Y-142096428D01*
X93402857Y-142239285D01*
X93402857Y-142596428D01*
X93331428Y-142739285D01*
X93260000Y-142810714D01*
X93117142Y-142882142D01*
X92831428Y-142882142D01*
X92688571Y-142810714D01*
X92617142Y-142739285D01*
X92545714Y-142596428D01*
X166577857Y-120678571D02*
X166577857Y-119178571D01*
X165935000Y-120678571D02*
X165935000Y-119892857D01*
X166006428Y-119750000D01*
X166149285Y-119678571D01*
X166363571Y-119678571D01*
X166506428Y-119750000D01*
X166577857Y-119821428D01*
X165435000Y-119678571D02*
X164863571Y-119678571D01*
X165220714Y-119178571D02*
X165220714Y-120464285D01*
X165149285Y-120607142D01*
X165006428Y-120678571D01*
X164863571Y-120678571D01*
X164577857Y-119678571D02*
X164006428Y-119678571D01*
X164363571Y-119178571D02*
X164363571Y-120464285D01*
X164292142Y-120607142D01*
X164149285Y-120678571D01*
X164006428Y-120678571D01*
X163506428Y-119678571D02*
X163506428Y-121178571D01*
X163506428Y-119750000D02*
X163363571Y-119678571D01*
X163077857Y-119678571D01*
X162935000Y-119750000D01*
X162863571Y-119821428D01*
X162792142Y-119964285D01*
X162792142Y-120392857D01*
X162863571Y-120535714D01*
X162935000Y-120607142D01*
X163077857Y-120678571D01*
X163363571Y-120678571D01*
X163506428Y-120607142D01*
X162220714Y-120607142D02*
X162077857Y-120678571D01*
X161792142Y-120678571D01*
X161649285Y-120607142D01*
X161577857Y-120464285D01*
X161577857Y-120392857D01*
X161649285Y-120250000D01*
X161792142Y-120178571D01*
X162006428Y-120178571D01*
X162149285Y-120107142D01*
X162220714Y-119964285D01*
X162220714Y-119892857D01*
X162149285Y-119750000D01*
X162006428Y-119678571D01*
X161792142Y-119678571D01*
X161649285Y-119750000D01*
X160935000Y-120535714D02*
X160863571Y-120607142D01*
X160935000Y-120678571D01*
X161006428Y-120607142D01*
X160935000Y-120535714D01*
X160935000Y-120678571D01*
X160935000Y-119750000D02*
X160863571Y-119821428D01*
X160935000Y-119892857D01*
X161006428Y-119821428D01*
X160935000Y-119750000D01*
X160935000Y-119892857D01*
X159149285Y-119107142D02*
X160435000Y-121035714D01*
X157577857Y-119107142D02*
X158863571Y-121035714D01*
X156435000Y-119678571D02*
X156435000Y-120892857D01*
X156506428Y-121035714D01*
X156577857Y-121107142D01*
X156720714Y-121178571D01*
X156935000Y-121178571D01*
X157077857Y-121107142D01*
X156435000Y-120607142D02*
X156577857Y-120678571D01*
X156863571Y-120678571D01*
X157006428Y-120607142D01*
X157077857Y-120535714D01*
X157149285Y-120392857D01*
X157149285Y-119964285D01*
X157077857Y-119821428D01*
X157006428Y-119750000D01*
X156863571Y-119678571D01*
X156577857Y-119678571D01*
X156435000Y-119750000D01*
X155720714Y-120678571D02*
X155720714Y-119678571D01*
X155720714Y-119178571D02*
X155792142Y-119250000D01*
X155720714Y-119321428D01*
X155649285Y-119250000D01*
X155720714Y-119178571D01*
X155720714Y-119321428D01*
X155220714Y-119678571D02*
X154649285Y-119678571D01*
X155006428Y-119178571D02*
X155006428Y-120464285D01*
X154935000Y-120607142D01*
X154792142Y-120678571D01*
X154649285Y-120678571D01*
X154149285Y-120678571D02*
X154149285Y-119178571D01*
X153506428Y-120678571D02*
X153506428Y-119892857D01*
X153577857Y-119750000D01*
X153720714Y-119678571D01*
X153935000Y-119678571D01*
X154077857Y-119750000D01*
X154149285Y-119821428D01*
X152149285Y-119678571D02*
X152149285Y-120678571D01*
X152792142Y-119678571D02*
X152792142Y-120464285D01*
X152720714Y-120607142D01*
X152577857Y-120678571D01*
X152363571Y-120678571D01*
X152220714Y-120607142D01*
X152149285Y-120535714D01*
X151435000Y-120678571D02*
X151435000Y-119178571D01*
X151435000Y-119750000D02*
X151292142Y-119678571D01*
X151006428Y-119678571D01*
X150863571Y-119750000D01*
X150792142Y-119821428D01*
X150720714Y-119964285D01*
X150720714Y-120392857D01*
X150792142Y-120535714D01*
X150863571Y-120607142D01*
X151006428Y-120678571D01*
X151292142Y-120678571D01*
X151435000Y-120607142D01*
X150077857Y-120535714D02*
X150006428Y-120607142D01*
X150077857Y-120678571D01*
X150149285Y-120607142D01*
X150077857Y-120535714D01*
X150077857Y-120678571D01*
X148720714Y-120607142D02*
X148863571Y-120678571D01*
X149149285Y-120678571D01*
X149292142Y-120607142D01*
X149363571Y-120535714D01*
X149435000Y-120392857D01*
X149435000Y-119964285D01*
X149363571Y-119821428D01*
X149292142Y-119750000D01*
X149149285Y-119678571D01*
X148863571Y-119678571D01*
X148720714Y-119750000D01*
X147863571Y-120678571D02*
X148006428Y-120607142D01*
X148077857Y-120535714D01*
X148149285Y-120392857D01*
X148149285Y-119964285D01*
X148077857Y-119821428D01*
X148006428Y-119750000D01*
X147863571Y-119678571D01*
X147649285Y-119678571D01*
X147506428Y-119750000D01*
X147435000Y-119821428D01*
X147363571Y-119964285D01*
X147363571Y-120392857D01*
X147435000Y-120535714D01*
X147506428Y-120607142D01*
X147649285Y-120678571D01*
X147863571Y-120678571D01*
X146720714Y-120678571D02*
X146720714Y-119678571D01*
X146720714Y-119821428D02*
X146649285Y-119750000D01*
X146506428Y-119678571D01*
X146292142Y-119678571D01*
X146149285Y-119750000D01*
X146077857Y-119892857D01*
X146077857Y-120678571D01*
X146077857Y-119892857D02*
X146006428Y-119750000D01*
X145863571Y-119678571D01*
X145649285Y-119678571D01*
X145506428Y-119750000D01*
X145435000Y-119892857D01*
X145435000Y-120678571D01*
X143649285Y-119107142D02*
X144935000Y-121035714D01*
X143149285Y-120678571D02*
X143149285Y-119178571D01*
X142292142Y-120678571D02*
X142935000Y-119821428D01*
X142292142Y-119178571D02*
X143149285Y-120035714D01*
X141006428Y-120678571D02*
X141006428Y-119892857D01*
X141077857Y-119750000D01*
X141220714Y-119678571D01*
X141506428Y-119678571D01*
X141649285Y-119750000D01*
X141006428Y-120607142D02*
X141149285Y-120678571D01*
X141506428Y-120678571D01*
X141649285Y-120607142D01*
X141720714Y-120464285D01*
X141720714Y-120321428D01*
X141649285Y-120178571D01*
X141506428Y-120107142D01*
X141149285Y-120107142D01*
X141006428Y-120035714D01*
X140435000Y-119678571D02*
X140077857Y-120678571D01*
X139720714Y-119678571D02*
X140077857Y-120678571D01*
X140220714Y-121035714D01*
X140292142Y-121107142D01*
X140435000Y-121178571D01*
X139363571Y-119678571D02*
X138792142Y-119678571D01*
X139149285Y-119178571D02*
X139149285Y-120464285D01*
X139077857Y-120607142D01*
X138935000Y-120678571D01*
X138792142Y-120678571D01*
X138077857Y-120678571D02*
X138220714Y-120607142D01*
X138292142Y-120535714D01*
X138363571Y-120392857D01*
X138363571Y-119964285D01*
X138292142Y-119821428D01*
X138220714Y-119750000D01*
X138077857Y-119678571D01*
X137863571Y-119678571D01*
X137720714Y-119750000D01*
X137649285Y-119821428D01*
X137577857Y-119964285D01*
X137577857Y-120392857D01*
X137649285Y-120535714D01*
X137720714Y-120607142D01*
X137863571Y-120678571D01*
X138077857Y-120678571D01*
X171940000Y-118214285D02*
X172035238Y-118309523D01*
X172320952Y-118404761D01*
X172511428Y-118404761D01*
X172797142Y-118309523D01*
X172987619Y-118119047D01*
X173082857Y-117928571D01*
X173178095Y-117547619D01*
X173178095Y-117261904D01*
X173082857Y-116880952D01*
X172987619Y-116690476D01*
X172797142Y-116500000D01*
X172511428Y-116404761D01*
X172320952Y-116404761D01*
X172035238Y-116500000D01*
X171940000Y-116595238D01*
X170225714Y-116404761D02*
X170606666Y-116404761D01*
X170797142Y-116500000D01*
X170892380Y-116595238D01*
X171082857Y-116880952D01*
X171178095Y-117261904D01*
X171178095Y-118023809D01*
X171082857Y-118214285D01*
X170987619Y-118309523D01*
X170797142Y-118404761D01*
X170416190Y-118404761D01*
X170225714Y-118309523D01*
X170130476Y-118214285D01*
X170035238Y-118023809D01*
X170035238Y-117547619D01*
X170130476Y-117357142D01*
X170225714Y-117261904D01*
X170416190Y-117166666D01*
X170797142Y-117166666D01*
X170987619Y-117261904D01*
X171082857Y-117357142D01*
X171178095Y-117547619D01*
X168320952Y-117071428D02*
X168320952Y-118404761D01*
X168797142Y-116309523D02*
X169273333Y-117738095D01*
X168035238Y-117738095D01*
X167273333Y-117642857D02*
X165749523Y-117642857D01*
X163654285Y-118214285D02*
X163749523Y-118309523D01*
X164035238Y-118404761D01*
X164225714Y-118404761D01*
X164511428Y-118309523D01*
X164701904Y-118119047D01*
X164797142Y-117928571D01*
X164892380Y-117547619D01*
X164892380Y-117261904D01*
X164797142Y-116880952D01*
X164701904Y-116690476D01*
X164511428Y-116500000D01*
X164225714Y-116404761D01*
X164035238Y-116404761D01*
X163749523Y-116500000D01*
X163654285Y-116595238D01*
X162797142Y-118404761D02*
X162797142Y-116404761D01*
X162130476Y-117833333D01*
X161463809Y-116404761D01*
X161463809Y-118404761D01*
X160130476Y-116404761D02*
X159749523Y-116404761D01*
X159559047Y-116500000D01*
X159368571Y-116690476D01*
X159273333Y-117071428D01*
X159273333Y-117738095D01*
X159368571Y-118119047D01*
X159559047Y-118309523D01*
X159749523Y-118404761D01*
X160130476Y-118404761D01*
X160320952Y-118309523D01*
X160511428Y-118119047D01*
X160606666Y-117738095D01*
X160606666Y-117071428D01*
X160511428Y-116690476D01*
X160320952Y-116500000D01*
X160130476Y-116404761D01*
X158511428Y-118309523D02*
X158225714Y-118404761D01*
X157749523Y-118404761D01*
X157559047Y-118309523D01*
X157463809Y-118214285D01*
X157368571Y-118023809D01*
X157368571Y-117833333D01*
X157463809Y-117642857D01*
X157559047Y-117547619D01*
X157749523Y-117452380D01*
X158130476Y-117357142D01*
X158320952Y-117261904D01*
X158416190Y-117166666D01*
X158511428Y-116976190D01*
X158511428Y-116785714D01*
X158416190Y-116595238D01*
X158320952Y-116500000D01*
X158130476Y-116404761D01*
X157654285Y-116404761D01*
X157368571Y-116500000D01*
X156511428Y-117642857D02*
X154987619Y-117642857D01*
X152892380Y-118404761D02*
X153559047Y-117452380D01*
X154035238Y-118404761D02*
X154035238Y-116404761D01*
X153273333Y-116404761D01*
X153082857Y-116500000D01*
X152987619Y-116595238D01*
X152892380Y-116785714D01*
X152892380Y-117071428D01*
X152987619Y-117261904D01*
X153082857Y-117357142D01*
X153273333Y-117452380D01*
X154035238Y-117452380D01*
X152130476Y-117833333D02*
X151178095Y-117833333D01*
X152320952Y-118404761D02*
X151654285Y-116404761D01*
X150987619Y-118404761D01*
X150320952Y-118404761D02*
X150320952Y-116404761D01*
X149654285Y-117833333D01*
X148987619Y-116404761D01*
X148987619Y-118404761D01*
X148035238Y-117642857D02*
X146511428Y-117642857D01*
X144416190Y-118214285D02*
X144511428Y-118309523D01*
X144797142Y-118404761D01*
X144987619Y-118404761D01*
X145273333Y-118309523D01*
X145463809Y-118119047D01*
X145559047Y-117928571D01*
X145654285Y-117547619D01*
X145654285Y-117261904D01*
X145559047Y-116880952D01*
X145463809Y-116690476D01*
X145273333Y-116500000D01*
X144987619Y-116404761D01*
X144797142Y-116404761D01*
X144511428Y-116500000D01*
X144416190Y-116595238D01*
X142701904Y-118404761D02*
X142701904Y-117357142D01*
X142797142Y-117166666D01*
X142987619Y-117071428D01*
X143368571Y-117071428D01*
X143559047Y-117166666D01*
X142701904Y-118309523D02*
X142892380Y-118404761D01*
X143368571Y-118404761D01*
X143559047Y-118309523D01*
X143654285Y-118119047D01*
X143654285Y-117928571D01*
X143559047Y-117738095D01*
X143368571Y-117642857D01*
X142892380Y-117642857D01*
X142701904Y-117547619D01*
X141749523Y-118404761D02*
X141749523Y-117071428D01*
X141749523Y-117452380D02*
X141654285Y-117261904D01*
X141559047Y-117166666D01*
X141368571Y-117071428D01*
X141178095Y-117071428D01*
X140797142Y-117071428D02*
X140035238Y-117071428D01*
X140511428Y-116404761D02*
X140511428Y-118119047D01*
X140416190Y-118309523D01*
X140225714Y-118404761D01*
X140035238Y-118404761D01*
X139368571Y-118404761D02*
X139368571Y-117071428D01*
X139368571Y-117452380D02*
X139273333Y-117261904D01*
X139178095Y-117166666D01*
X138987619Y-117071428D01*
X138797142Y-117071428D01*
X138130476Y-118404761D02*
X138130476Y-117071428D01*
X138130476Y-116404761D02*
X138225714Y-116500000D01*
X138130476Y-116595238D01*
X138035238Y-116500000D01*
X138130476Y-116404761D01*
X138130476Y-116595238D01*
X136320952Y-118404761D02*
X136320952Y-116404761D01*
X136320952Y-118309523D02*
X136511428Y-118404761D01*
X136892380Y-118404761D01*
X137082857Y-118309523D01*
X137178095Y-118214285D01*
X137273333Y-118023809D01*
X137273333Y-117452380D01*
X137178095Y-117261904D01*
X137082857Y-117166666D01*
X136892380Y-117071428D01*
X136511428Y-117071428D01*
X136320952Y-117166666D01*
X134511428Y-117071428D02*
X134511428Y-118690476D01*
X134606666Y-118880952D01*
X134701904Y-118976190D01*
X134892380Y-119071428D01*
X135178095Y-119071428D01*
X135368571Y-118976190D01*
X134511428Y-118309523D02*
X134701904Y-118404761D01*
X135082857Y-118404761D01*
X135273333Y-118309523D01*
X135368571Y-118214285D01*
X135463809Y-118023809D01*
X135463809Y-117452380D01*
X135368571Y-117261904D01*
X135273333Y-117166666D01*
X135082857Y-117071428D01*
X134701904Y-117071428D01*
X134511428Y-117166666D01*
X132797142Y-118309523D02*
X132987619Y-118404761D01*
X133368571Y-118404761D01*
X133559047Y-118309523D01*
X133654285Y-118119047D01*
X133654285Y-117357142D01*
X133559047Y-117166666D01*
X133368571Y-117071428D01*
X132987619Y-117071428D01*
X132797142Y-117166666D01*
X132701904Y-117357142D01*
X132701904Y-117547619D01*
X133654285Y-117738095D01*
X162302857Y-122642857D02*
X162088571Y-122714285D01*
X162017142Y-122785714D01*
X161945714Y-122928571D01*
X161945714Y-123142857D01*
X162017142Y-123285714D01*
X162088571Y-123357142D01*
X162231428Y-123428571D01*
X162802857Y-123428571D01*
X162802857Y-121928571D01*
X162302857Y-121928571D01*
X162160000Y-122000000D01*
X162088571Y-122071428D01*
X162017142Y-122214285D01*
X162017142Y-122357142D01*
X162088571Y-122500000D01*
X162160000Y-122571428D01*
X162302857Y-122642857D01*
X162802857Y-122642857D01*
X161088571Y-123428571D02*
X161231428Y-123357142D01*
X161302857Y-123285714D01*
X161374285Y-123142857D01*
X161374285Y-122714285D01*
X161302857Y-122571428D01*
X161231428Y-122500000D01*
X161088571Y-122428571D01*
X160874285Y-122428571D01*
X160731428Y-122500000D01*
X160660000Y-122571428D01*
X160588571Y-122714285D01*
X160588571Y-123142857D01*
X160660000Y-123285714D01*
X160731428Y-123357142D01*
X160874285Y-123428571D01*
X161088571Y-123428571D01*
X159302857Y-123428571D02*
X159302857Y-122642857D01*
X159374285Y-122500000D01*
X159517142Y-122428571D01*
X159802857Y-122428571D01*
X159945714Y-122500000D01*
X159302857Y-123357142D02*
X159445714Y-123428571D01*
X159802857Y-123428571D01*
X159945714Y-123357142D01*
X160017142Y-123214285D01*
X160017142Y-123071428D01*
X159945714Y-122928571D01*
X159802857Y-122857142D01*
X159445714Y-122857142D01*
X159302857Y-122785714D01*
X158588571Y-123428571D02*
X158588571Y-122428571D01*
X158588571Y-122714285D02*
X158517142Y-122571428D01*
X158445714Y-122500000D01*
X158302857Y-122428571D01*
X158160000Y-122428571D01*
X157017142Y-123428571D02*
X157017142Y-121928571D01*
X157017142Y-123357142D02*
X157160000Y-123428571D01*
X157445714Y-123428571D01*
X157588571Y-123357142D01*
X157660000Y-123285714D01*
X157731428Y-123142857D01*
X157731428Y-122714285D01*
X157660000Y-122571428D01*
X157588571Y-122500000D01*
X157445714Y-122428571D01*
X157160000Y-122428571D01*
X157017142Y-122500000D01*
X155160000Y-123428571D02*
X155160000Y-122428571D01*
X155160000Y-122714285D02*
X155088571Y-122571428D01*
X155017142Y-122500000D01*
X154874285Y-122428571D01*
X154731428Y-122428571D01*
X153660000Y-123357142D02*
X153802857Y-123428571D01*
X154088571Y-123428571D01*
X154231428Y-123357142D01*
X154302857Y-123214285D01*
X154302857Y-122642857D01*
X154231428Y-122500000D01*
X154088571Y-122428571D01*
X153802857Y-122428571D01*
X153660000Y-122500000D01*
X153588571Y-122642857D01*
X153588571Y-122785714D01*
X154302857Y-122928571D01*
X153088571Y-122428571D02*
X152731428Y-123428571D01*
X152374285Y-122428571D01*
X151802857Y-123428571D02*
X151802857Y-122428571D01*
X151802857Y-121928571D02*
X151874285Y-122000000D01*
X151802857Y-122071428D01*
X151731428Y-122000000D01*
X151802857Y-121928571D01*
X151802857Y-122071428D01*
X151160000Y-123357142D02*
X151017142Y-123428571D01*
X150731428Y-123428571D01*
X150588571Y-123357142D01*
X150517142Y-123214285D01*
X150517142Y-123142857D01*
X150588571Y-123000000D01*
X150731428Y-122928571D01*
X150945714Y-122928571D01*
X151088571Y-122857142D01*
X151160000Y-122714285D01*
X151160000Y-122642857D01*
X151088571Y-122500000D01*
X150945714Y-122428571D01*
X150731428Y-122428571D01*
X150588571Y-122500000D01*
X149874285Y-123428571D02*
X149874285Y-122428571D01*
X149874285Y-121928571D02*
X149945714Y-122000000D01*
X149874285Y-122071428D01*
X149802857Y-122000000D01*
X149874285Y-121928571D01*
X149874285Y-122071428D01*
X148945714Y-123428571D02*
X149088571Y-123357142D01*
X149160000Y-123285714D01*
X149231428Y-123142857D01*
X149231428Y-122714285D01*
X149160000Y-122571428D01*
X149088571Y-122500000D01*
X148945714Y-122428571D01*
X148731428Y-122428571D01*
X148588571Y-122500000D01*
X148517142Y-122571428D01*
X148445714Y-122714285D01*
X148445714Y-123142857D01*
X148517142Y-123285714D01*
X148588571Y-123357142D01*
X148731428Y-123428571D01*
X148945714Y-123428571D01*
X147802857Y-122428571D02*
X147802857Y-123428571D01*
X147802857Y-122571428D02*
X147731428Y-122500000D01*
X147588571Y-122428571D01*
X147374285Y-122428571D01*
X147231428Y-122500000D01*
X147160000Y-122642857D01*
X147160000Y-123428571D01*
X146445714Y-123285714D02*
X146374285Y-123357142D01*
X146445714Y-123428571D01*
X146517142Y-123357142D01*
X146445714Y-123285714D01*
X146445714Y-123428571D01*
X146445714Y-122500000D02*
X146374285Y-122571428D01*
X146445714Y-122642857D01*
X146517142Y-122571428D01*
X146445714Y-122500000D01*
X146445714Y-122642857D01*
X144731428Y-122428571D02*
X144374285Y-123428571D01*
X144017142Y-122428571D01*
X143160000Y-121928571D02*
X143017142Y-121928571D01*
X142874285Y-122000000D01*
X142802857Y-122071428D01*
X142731428Y-122214285D01*
X142660000Y-122500000D01*
X142660000Y-122857142D01*
X142731428Y-123142857D01*
X142802857Y-123285714D01*
X142874285Y-123357142D01*
X143017142Y-123428571D01*
X143160000Y-123428571D01*
X143302857Y-123357142D01*
X143374285Y-123285714D01*
X143445714Y-123142857D01*
X143517142Y-122857142D01*
X143517142Y-122500000D01*
X143445714Y-122214285D01*
X143374285Y-122071428D01*
X143302857Y-122000000D01*
X143160000Y-121928571D01*
X141731428Y-121928571D02*
X141588571Y-121928571D01*
X141445714Y-122000000D01*
X141374285Y-122071428D01*
X141302857Y-122214285D01*
X141231428Y-122500000D01*
X141231428Y-122857142D01*
X141302857Y-123142857D01*
X141374285Y-123285714D01*
X141445714Y-123357142D01*
X141588571Y-123428571D01*
X141731428Y-123428571D01*
X141874285Y-123357142D01*
X141945714Y-123285714D01*
X142017142Y-123142857D01*
X142088571Y-122857142D01*
X142088571Y-122500000D01*
X142017142Y-122214285D01*
X141945714Y-122071428D01*
X141874285Y-122000000D01*
X141731428Y-121928571D01*
X139802857Y-123428571D02*
X140660000Y-123428571D01*
X140231428Y-123428571D02*
X140231428Y-121928571D01*
X140374285Y-122142857D01*
X140517142Y-122285714D01*
X140660000Y-122357142D01*
D11*
X82603095Y-152518666D02*
X82126904Y-152518666D01*
X82698333Y-152804380D02*
X82365000Y-151804380D01*
X82031666Y-152804380D01*
X136038333Y-151804380D02*
X135371666Y-151804380D01*
X136038333Y-152804380D01*
X135371666Y-152804380D01*
%LPC*%
G36*
G01*
X214930000Y-117970000D02*
X214930000Y-120970000D01*
G75*
G02*
X214879000Y-121021000I-51000J0D01*
G01*
X211879000Y-121021000D01*
G75*
G02*
X211828000Y-120970000I0J51000D01*
G01*
X211828000Y-117970000D01*
G75*
G02*
X211879000Y-117919000I51000J0D01*
G01*
X214879000Y-117919000D01*
G75*
G02*
X214930000Y-117970000I0J-51000D01*
G01*
G37*
D12*
X192889000Y-119470000D03*
D13*
X145504000Y-40370000D03*
X150504000Y-40370000D03*
X135424000Y-40370000D03*
X140424000Y-40370000D03*
X125344000Y-40370000D03*
X130344000Y-40370000D03*
X115264000Y-40370000D03*
X120264000Y-40370000D03*
X105184000Y-40370000D03*
X110184000Y-40370000D03*
X100104000Y-40370000D03*
X95104000Y-40370000D03*
D14*
X197204000Y-42620000D03*
X197204000Y-38120000D03*
X203704000Y-42620000D03*
X203704000Y-38120000D03*
D13*
X85879000Y-47420000D03*
X90879000Y-47420000D03*
X119819000Y-114215000D03*
X124819000Y-114215000D03*
D15*
X200769000Y-100470000D03*
G36*
G01*
X212180000Y-99270000D02*
X212180000Y-101670000D01*
G75*
G02*
X212129000Y-101721000I-51000J0D01*
G01*
X209729000Y-101721000D01*
G75*
G02*
X209678000Y-101670000I0J51000D01*
G01*
X209678000Y-99270000D01*
G75*
G02*
X209729000Y-99219000I51000J0D01*
G01*
X212129000Y-99219000D01*
G75*
G02*
X212180000Y-99270000I0J-51000D01*
G01*
G37*
G36*
G01*
X176879000Y-124996000D02*
X174479000Y-124996000D01*
G75*
G02*
X174428000Y-124945000I0J51000D01*
G01*
X174428000Y-122545000D01*
G75*
G02*
X174479000Y-122494000I51000J0D01*
G01*
X176879000Y-122494000D01*
G75*
G02*
X176930000Y-122545000I0J-51000D01*
G01*
X176930000Y-124945000D01*
G75*
G02*
X176879000Y-124996000I-51000J0D01*
G01*
G37*
X175679000Y-113585000D03*
D13*
X182754000Y-122645000D03*
D16*
X182754000Y-115025000D03*
G36*
G01*
X204124000Y-90071000D02*
X202424000Y-90071000D01*
G75*
G02*
X202373000Y-90020000I0J51000D01*
G01*
X202373000Y-88320000D01*
G75*
G02*
X202424000Y-88269000I51000J0D01*
G01*
X204124000Y-88269000D01*
G75*
G02*
X204175000Y-88320000I0J-51000D01*
G01*
X204175000Y-90020000D01*
G75*
G02*
X204124000Y-90071000I-51000J0D01*
G01*
G37*
D17*
X205814000Y-89170000D03*
X208354000Y-89170000D03*
G36*
G01*
X96619000Y-125136000D02*
X95019000Y-125136000D01*
G75*
G02*
X94968000Y-125085000I0J51000D01*
G01*
X94968000Y-123485000D01*
G75*
G02*
X95019000Y-123434000I51000J0D01*
G01*
X96619000Y-123434000D01*
G75*
G02*
X96670000Y-123485000I0J-51000D01*
G01*
X96670000Y-125085000D01*
G75*
G02*
X96619000Y-125136000I-51000J0D01*
G01*
G37*
D16*
X111059000Y-116665000D03*
X98359000Y-124285000D03*
X108519000Y-116665000D03*
X100899000Y-124285000D03*
X105979000Y-116665000D03*
X103439000Y-124285000D03*
X103439000Y-116665000D03*
X105979000Y-124285000D03*
X100899000Y-116665000D03*
X108519000Y-124285000D03*
X98359000Y-116665000D03*
X111059000Y-124285000D03*
X95819000Y-116665000D03*
D13*
X119819000Y-119195000D03*
X124819000Y-119195000D03*
D16*
X212679000Y-113340000D03*
D13*
X212679000Y-105720000D03*
X84879000Y-80720000D03*
D16*
X92499000Y-80720000D03*
G36*
G01*
X97539000Y-81456000D02*
X95939000Y-81456000D01*
G75*
G02*
X95888000Y-81405000I0J51000D01*
G01*
X95888000Y-79805000D01*
G75*
G02*
X95939000Y-79754000I51000J0D01*
G01*
X97539000Y-79754000D01*
G75*
G02*
X97590000Y-79805000I0J-51000D01*
G01*
X97590000Y-81405000D01*
G75*
G02*
X97539000Y-81456000I-51000J0D01*
G01*
G37*
X96739000Y-78065000D03*
X96739000Y-75525000D03*
X96739000Y-72985000D03*
X96739000Y-70445000D03*
X96739000Y-67905000D03*
X96739000Y-65365000D03*
X96739000Y-62825000D03*
X96739000Y-60285000D03*
G36*
G01*
X97098999Y-88275000D02*
X97098999Y-86675000D01*
G75*
G02*
X97149999Y-86624000I51000J0D01*
G01*
X98749999Y-86624000D01*
G75*
G02*
X98800999Y-86675000I0J-51000D01*
G01*
X98800999Y-88275000D01*
G75*
G02*
X98749999Y-88326000I-51000J0D01*
G01*
X97149999Y-88326000D01*
G75*
G02*
X97098999Y-88275000I0J51000D01*
G01*
G37*
X100489999Y-87475000D03*
X103029999Y-87475000D03*
X105569999Y-87475000D03*
X108109999Y-87475000D03*
X110649999Y-87475000D03*
X113189999Y-87475000D03*
X115729999Y-87475000D03*
D17*
X84619000Y-114305000D03*
X84619000Y-111765000D03*
G36*
G01*
X83718000Y-110075000D02*
X83718000Y-108375000D01*
G75*
G02*
X83769000Y-108324000I51000J0D01*
G01*
X85469000Y-108324000D01*
G75*
G02*
X85520000Y-108375000I0J-51000D01*
G01*
X85520000Y-110075000D01*
G75*
G02*
X85469000Y-110126000I-51000J0D01*
G01*
X83769000Y-110126000D01*
G75*
G02*
X83718000Y-110075000I0J51000D01*
G01*
G37*
G36*
G01*
X83778000Y-58545000D02*
X83778000Y-56945000D01*
G75*
G02*
X83829000Y-56894000I51000J0D01*
G01*
X85429000Y-56894000D01*
G75*
G02*
X85480000Y-56945000I0J-51000D01*
G01*
X85480000Y-58545000D01*
G75*
G02*
X85429000Y-58596000I-51000J0D01*
G01*
X83829000Y-58596000D01*
G75*
G02*
X83778000Y-58545000I0J51000D01*
G01*
G37*
D16*
X92249000Y-75525000D03*
X84629000Y-60285000D03*
X92249000Y-72985000D03*
X84629000Y-62825000D03*
X92249000Y-70445000D03*
X84629000Y-65365000D03*
X92249000Y-67905000D03*
X84629000Y-67905000D03*
X92249000Y-65365000D03*
X84629000Y-70445000D03*
X92249000Y-62825000D03*
X84629000Y-72985000D03*
X92249000Y-60285000D03*
X84629000Y-75525000D03*
X92249000Y-57745000D03*
G36*
G01*
X135409000Y-126636000D02*
X133809000Y-126636000D01*
G75*
G02*
X133758000Y-126585000I0J51000D01*
G01*
X133758000Y-124985000D01*
G75*
G02*
X133809000Y-124934000I51000J0D01*
G01*
X135409000Y-124934000D01*
G75*
G02*
X135460000Y-124985000I0J-51000D01*
G01*
X135460000Y-126585000D01*
G75*
G02*
X135409000Y-126636000I-51000J0D01*
G01*
G37*
X167629000Y-110545000D03*
X137149000Y-125785000D03*
X165089000Y-110545000D03*
X139689000Y-125785000D03*
X162549000Y-110545000D03*
X142229000Y-125785000D03*
X160009000Y-110545000D03*
X144769000Y-125785000D03*
X157469000Y-110545000D03*
X147309000Y-125785000D03*
X154929000Y-110545000D03*
X149849000Y-125785000D03*
X152389000Y-110545000D03*
X152389000Y-125785000D03*
X149849000Y-110545000D03*
X154929000Y-125785000D03*
X147309000Y-110545000D03*
X157469000Y-125785000D03*
X144769000Y-110545000D03*
X160009000Y-125785000D03*
X142229000Y-110545000D03*
X162549000Y-125785000D03*
X139689000Y-110545000D03*
X165089000Y-125785000D03*
X137149000Y-110545000D03*
X167629000Y-125785000D03*
X134609000Y-110545000D03*
G36*
G01*
X137789999Y-90169000D02*
X139389999Y-90169000D01*
G75*
G02*
X139440999Y-90220000I0J-51000D01*
G01*
X139440999Y-91820000D01*
G75*
G02*
X139389999Y-91871000I-51000J0D01*
G01*
X137789999Y-91871000D01*
G75*
G02*
X137738999Y-91820000I0J51000D01*
G01*
X137738999Y-90220000D01*
G75*
G02*
X137789999Y-90169000I51000J0D01*
G01*
G37*
X90329999Y-106260000D03*
X136049999Y-91020000D03*
X92869999Y-106260000D03*
X133509999Y-91020000D03*
X95409999Y-106260000D03*
X130969999Y-91020000D03*
X97949999Y-106260000D03*
X128429999Y-91020000D03*
X100489999Y-106260000D03*
X125889999Y-91020000D03*
X103029999Y-106260000D03*
X123349999Y-91020000D03*
X105569999Y-106260000D03*
X120809999Y-91020000D03*
X108109999Y-106260000D03*
X118269999Y-91020000D03*
X110649999Y-106260000D03*
X115729999Y-91020000D03*
X113189999Y-106260000D03*
X113189999Y-91020000D03*
X115729999Y-106260000D03*
X110649999Y-91020000D03*
X118269999Y-106260000D03*
X108109999Y-91020000D03*
X120809999Y-106260000D03*
X105569999Y-91020000D03*
X123349999Y-106260000D03*
X103029999Y-91020000D03*
X125889999Y-106260000D03*
X100489999Y-91020000D03*
X128429999Y-106260000D03*
X97949999Y-91020000D03*
X130969999Y-106260000D03*
X95409999Y-91020000D03*
X133509999Y-106260000D03*
X92869999Y-91020000D03*
X136049999Y-106260000D03*
X90329999Y-91020000D03*
X138589999Y-106260000D03*
X193029000Y-106260000D03*
X144769000Y-91020000D03*
X190489000Y-106260000D03*
X147309000Y-91020000D03*
X187949000Y-106260000D03*
X149849000Y-91020000D03*
X185409000Y-106260000D03*
X152389000Y-91020000D03*
X182869000Y-106260000D03*
X154929000Y-91020000D03*
X180329000Y-106260000D03*
X157469000Y-91020000D03*
X177789000Y-106260000D03*
X160009000Y-91020000D03*
X175249000Y-106260000D03*
X162549000Y-91020000D03*
X172709000Y-106260000D03*
X165089000Y-91020000D03*
X170169000Y-106260000D03*
X167629000Y-91020000D03*
X167629000Y-106260000D03*
X170169000Y-91020000D03*
X165089000Y-106260000D03*
X172709000Y-91020000D03*
X162549000Y-106260000D03*
X175249000Y-91020000D03*
X160009000Y-106260000D03*
X177789000Y-91020000D03*
X157469000Y-106260000D03*
X180329000Y-91020000D03*
X154929000Y-106260000D03*
X182869000Y-91020000D03*
X152389000Y-106260000D03*
X185409000Y-91020000D03*
X149849000Y-106260000D03*
X187949000Y-91020000D03*
X147309000Y-106260000D03*
X190489000Y-91020000D03*
X144769000Y-106260000D03*
G36*
G01*
X192229000Y-90169000D02*
X193829000Y-90169000D01*
G75*
G02*
X193880000Y-90220000I0J-51000D01*
G01*
X193880000Y-91820000D01*
G75*
G02*
X193829000Y-91871000I-51000J0D01*
G01*
X192229000Y-91871000D01*
G75*
G02*
X192178000Y-91820000I0J51000D01*
G01*
X192178000Y-90220000D01*
G75*
G02*
X192229000Y-90169000I51000J0D01*
G01*
G37*
G36*
G01*
X100173001Y-51050001D02*
X100173001Y-49450001D01*
G75*
G02*
X100224001Y-49399001I51000J0D01*
G01*
X101824001Y-49399001D01*
G75*
G02*
X101875001Y-49450001I0J-51000D01*
G01*
X101875001Y-51050001D01*
G75*
G02*
X101824001Y-51101001I-51000J0D01*
G01*
X100224001Y-51101001D01*
G75*
G02*
X100173001Y-51050001I0J51000D01*
G01*
G37*
X116264001Y-83270001D03*
X101024001Y-52790001D03*
X116264001Y-80730001D03*
X101024001Y-55330001D03*
X116264001Y-78190001D03*
X101024001Y-57870001D03*
X116264001Y-75650001D03*
X101024001Y-60410001D03*
X116264001Y-73110001D03*
X101024001Y-62950001D03*
X116264001Y-70570001D03*
X101024001Y-65490001D03*
X116264001Y-68030001D03*
X101024001Y-68030001D03*
X116264001Y-65490001D03*
X101024001Y-70570001D03*
X116264001Y-62950001D03*
X101024001Y-73110001D03*
X116264001Y-60410001D03*
X101024001Y-75650001D03*
X116264001Y-57870001D03*
X101024001Y-78190001D03*
X116264001Y-55330001D03*
X101024001Y-80730001D03*
X116264001Y-52790001D03*
X101024001Y-83270001D03*
X116264001Y-50250001D03*
X135197000Y-50250001D03*
X119957000Y-83270001D03*
X135197000Y-52790001D03*
X119957000Y-80730001D03*
X135197000Y-55330001D03*
X119957000Y-78190001D03*
X135197000Y-57870001D03*
X119957000Y-75650001D03*
X135197000Y-60410001D03*
X119957000Y-73110001D03*
X135197000Y-62950001D03*
X119957000Y-70570001D03*
X135197000Y-65490001D03*
X119957000Y-68030001D03*
X135197000Y-68030001D03*
X119957000Y-65490001D03*
X135197000Y-70570001D03*
X119957000Y-62950001D03*
X135197000Y-73110001D03*
X119957000Y-60410001D03*
X135197000Y-75650001D03*
X119957000Y-57870001D03*
X135197000Y-78190001D03*
X119957000Y-55330001D03*
X135197000Y-80730001D03*
X119957000Y-52790001D03*
X135197000Y-83270001D03*
G36*
G01*
X119106000Y-51050001D02*
X119106000Y-49450001D01*
G75*
G02*
X119157000Y-49399001I51000J0D01*
G01*
X120757000Y-49399001D01*
G75*
G02*
X120808000Y-49450001I0J-51000D01*
G01*
X120808000Y-51050001D01*
G75*
G02*
X120757000Y-51101001I-51000J0D01*
G01*
X119157000Y-51101001D01*
G75*
G02*
X119106000Y-51050001I0J51000D01*
G01*
G37*
G36*
G01*
X138038999Y-51050001D02*
X138038999Y-49450001D01*
G75*
G02*
X138089999Y-49399001I51000J0D01*
G01*
X139689999Y-49399001D01*
G75*
G02*
X139740999Y-49450001I0J-51000D01*
G01*
X139740999Y-51050001D01*
G75*
G02*
X139689999Y-51101001I-51000J0D01*
G01*
X138089999Y-51101001D01*
G75*
G02*
X138038999Y-51050001I0J51000D01*
G01*
G37*
X154129999Y-83270001D03*
X138889999Y-52790001D03*
X154129999Y-80730001D03*
X138889999Y-55330001D03*
X154129999Y-78190001D03*
X138889999Y-57870001D03*
X154129999Y-75650001D03*
X138889999Y-60410001D03*
X154129999Y-73110001D03*
X138889999Y-62950001D03*
X154129999Y-70570001D03*
X138889999Y-65490001D03*
X154129999Y-68030001D03*
X138889999Y-68030001D03*
X154129999Y-65490001D03*
X138889999Y-70570001D03*
X154129999Y-62950001D03*
X138889999Y-73110001D03*
X154129999Y-60410001D03*
X138889999Y-75650001D03*
X154129999Y-57870001D03*
X138889999Y-78190001D03*
X154129999Y-55330001D03*
X138889999Y-80730001D03*
X154129999Y-52790001D03*
X138889999Y-83270001D03*
X154129999Y-50250001D03*
X173062998Y-50250001D03*
X157822998Y-83270001D03*
X173062998Y-52790001D03*
X157822998Y-80730001D03*
X173062998Y-55330001D03*
X157822998Y-78190001D03*
X173062998Y-57870001D03*
X157822998Y-75650001D03*
X173062998Y-60410001D03*
X157822998Y-73110001D03*
X173062998Y-62950001D03*
X157822998Y-70570001D03*
X173062998Y-65490001D03*
X157822998Y-68030001D03*
X173062998Y-68030001D03*
X157822998Y-65490001D03*
X173062998Y-70570001D03*
X157822998Y-62950001D03*
X173062998Y-73110001D03*
X157822998Y-60410001D03*
X173062998Y-75650001D03*
X157822998Y-57870001D03*
X173062998Y-78190001D03*
X157822998Y-55330001D03*
X173062998Y-80730001D03*
X157822998Y-52790001D03*
X173062998Y-83270001D03*
G36*
G01*
X156971998Y-51050001D02*
X156971998Y-49450001D01*
G75*
G02*
X157022998Y-49399001I51000J0D01*
G01*
X158622998Y-49399001D01*
G75*
G02*
X158673998Y-49450001I0J-51000D01*
G01*
X158673998Y-51050001D01*
G75*
G02*
X158622998Y-51101001I-51000J0D01*
G01*
X157022998Y-51101001D01*
G75*
G02*
X156971998Y-51050001I0J51000D01*
G01*
G37*
G36*
G01*
X175904997Y-51050001D02*
X175904997Y-49450001D01*
G75*
G02*
X175955997Y-49399001I51000J0D01*
G01*
X177555997Y-49399001D01*
G75*
G02*
X177606997Y-49450001I0J-51000D01*
G01*
X177606997Y-51050001D01*
G75*
G02*
X177555997Y-51101001I-51000J0D01*
G01*
X175955997Y-51101001D01*
G75*
G02*
X175904997Y-51050001I0J51000D01*
G01*
G37*
X191995997Y-83270001D03*
X176755997Y-52790001D03*
X191995997Y-80730001D03*
X176755997Y-55330001D03*
X191995997Y-78190001D03*
X176755997Y-57870001D03*
X191995997Y-75650001D03*
X176755997Y-60410001D03*
X191995997Y-73110001D03*
X176755997Y-62950001D03*
X191995997Y-70570001D03*
X176755997Y-65490001D03*
X191995997Y-68030001D03*
X176755997Y-68030001D03*
X191995997Y-65490001D03*
X176755997Y-70570001D03*
X191995997Y-62950001D03*
X176755997Y-73110001D03*
X191995997Y-60410001D03*
X176755997Y-75650001D03*
X191995997Y-57870001D03*
X176755997Y-78190001D03*
X191995997Y-55330001D03*
X176755997Y-80730001D03*
X191995997Y-52790001D03*
X176755997Y-83270001D03*
X191995997Y-50250001D03*
X210929000Y-50315000D03*
X195689000Y-83335000D03*
X210929000Y-52855000D03*
X195689000Y-80795000D03*
X210929000Y-55395000D03*
X195689000Y-78255000D03*
X210929000Y-57935000D03*
X195689000Y-75715000D03*
X210929000Y-60475000D03*
X195689000Y-73175000D03*
X210929000Y-63015000D03*
X195689000Y-70635000D03*
X210929000Y-65555000D03*
X195689000Y-68095000D03*
X210929000Y-68095000D03*
X195689000Y-65555000D03*
X210929000Y-70635000D03*
X195689000Y-63015000D03*
X210929000Y-73175000D03*
X195689000Y-60475000D03*
X210929000Y-75715000D03*
X195689000Y-57935000D03*
X210929000Y-78255000D03*
X195689000Y-55395000D03*
X210929000Y-80795000D03*
X195689000Y-52855000D03*
X210929000Y-83335000D03*
G36*
G01*
X194838000Y-51115000D02*
X194838000Y-49515000D01*
G75*
G02*
X194889000Y-49464000I51000J0D01*
G01*
X196489000Y-49464000D01*
G75*
G02*
X196540000Y-49515000I0J-51000D01*
G01*
X196540000Y-51115000D01*
G75*
G02*
X196489000Y-51166000I-51000J0D01*
G01*
X194889000Y-51166000D01*
G75*
G02*
X194838000Y-51115000I0J51000D01*
G01*
G37*
D18*
X84889000Y-40111000D03*
X212250000Y-40111000D03*
X212250000Y-127095000D03*
X84409000Y-127255000D03*
D19*
X137889400Y-161168197D02*
X137819773Y-161298459D01*
X137693420Y-161452420D01*
X137539459Y-161578773D01*
X137409197Y-161648400D01*
X80660803Y-161648400D01*
X80530541Y-161578773D01*
X80376580Y-161452420D01*
X80250227Y-161298459D01*
X80180600Y-161168197D01*
X80180600Y-152987000D01*
X137889400Y-152987000D01*
X137889400Y-161168197D01*
D20*
G36*
X137889400Y-161168197D02*
G01*
X137819773Y-161298459D01*
X137693420Y-161452420D01*
X137539459Y-161578773D01*
X137409197Y-161648400D01*
X80660803Y-161648400D01*
X80530541Y-161578773D01*
X80376580Y-161452420D01*
X80250227Y-161298459D01*
X80180600Y-161168197D01*
X80180600Y-152987000D01*
X137889400Y-152987000D01*
X137889400Y-161168197D01*
G37*
M02*
