G04 #@! TF.GenerationSoftware,KiCad,Pcbnew,(5.1.9)-1*
G04 #@! TF.CreationDate,2023-04-24T20:36:16+01:00*
G04 #@! TF.ProjectId,C64RAMCart,43363452-414d-4436-9172-742e6b696361,rev001*
G04 #@! TF.SameCoordinates,Original*
G04 #@! TF.FileFunction,Legend,Top*
G04 #@! TF.FilePolarity,Positive*
%FSLAX46Y46*%
G04 Gerber Fmt 4.6, Leading zero omitted, Abs format (unit mm)*
G04 Created by KiCad (PCBNEW (5.1.9)-1) date 2023-04-24 20:36:16*
%MOMM*%
%LPD*%
G01*
G04 APERTURE LIST*
%ADD10C,0.250000*%
%ADD11C,0.300000*%
%ADD12C,0.400000*%
%ADD13C,0.120000*%
%ADD14C,0.150000*%
%ADD15O,1.702000X1.702000*%
%ADD16C,3.102000*%
%ADD17C,2.102000*%
%ADD18C,1.702000*%
%ADD19O,2.502000X2.502000*%
%ADD20O,1.802000X1.802000*%
%ADD21C,5.100000*%
%ADD22C,0.254000*%
%ADD23C,0.100000*%
G04 APERTURE END LIST*
D10*
X91888139Y-38832142D02*
X92221473Y-38832142D01*
X92233377Y-39879761D02*
X91757187Y-39879761D01*
X92007187Y-37879761D01*
X92483377Y-37879761D01*
X92792901Y-38832142D02*
X93126235Y-38832142D01*
X93138139Y-39879761D02*
X92661949Y-39879761D01*
X92911949Y-37879761D01*
X93388139Y-37879761D01*
X93566711Y-39879761D02*
X93816711Y-37879761D01*
X94197663Y-37879761D01*
X94280997Y-37975000D01*
X94316711Y-38070238D01*
X94340520Y-38260714D01*
X94304806Y-38546428D01*
X94233377Y-38736904D01*
X94173854Y-38832142D01*
X94066711Y-38927380D01*
X93685758Y-38927380D01*
X95138139Y-39879761D02*
X94923854Y-38927380D01*
X94566711Y-39879761D02*
X94816711Y-37879761D01*
X95197663Y-37879761D01*
X95280997Y-37975000D01*
X95316711Y-38070238D01*
X95340520Y-38260714D01*
X95304806Y-38546428D01*
X95233377Y-38736904D01*
X95173854Y-38832142D01*
X95066711Y-38927380D01*
X94685758Y-38927380D01*
X96007187Y-37879761D02*
X96197663Y-37879761D01*
X96280997Y-37975000D01*
X96352425Y-38165476D01*
X96352425Y-38546428D01*
X96269092Y-39213095D01*
X96173854Y-39594047D01*
X96054806Y-39784523D01*
X95947663Y-39879761D01*
X95757187Y-39879761D01*
X95673854Y-39784523D01*
X95602425Y-39594047D01*
X95602425Y-39213095D01*
X95685758Y-38546428D01*
X95780997Y-38165476D01*
X95900044Y-37975000D01*
X96007187Y-37879761D01*
X96614330Y-39879761D02*
X96864330Y-37879761D01*
X97019092Y-39308333D01*
X97530997Y-37879761D01*
X97280997Y-39879761D01*
X91380997Y-27929761D02*
X91571473Y-27929761D01*
X91654806Y-28025000D01*
X91726235Y-28215476D01*
X91726235Y-28596428D01*
X91642901Y-29263095D01*
X91547663Y-29644047D01*
X91428616Y-29834523D01*
X91321473Y-29929761D01*
X91130997Y-29929761D01*
X91047663Y-29834523D01*
X90976235Y-29644047D01*
X90976235Y-29263095D01*
X91059568Y-28596428D01*
X91154806Y-28215476D01*
X91273854Y-28025000D01*
X91380997Y-27929761D01*
X92452425Y-28882142D02*
X92119092Y-28882142D01*
X91988139Y-29929761D02*
X92238139Y-27929761D01*
X92714330Y-27929761D01*
X93309568Y-28882142D02*
X92976235Y-28882142D01*
X92845282Y-29929761D02*
X93095282Y-27929761D01*
X93571473Y-27929761D01*
X94619092Y-30596428D02*
X94976235Y-27739285D01*
X96619092Y-27929761D02*
X96809568Y-27929761D01*
X96892901Y-28025000D01*
X96964330Y-28215476D01*
X96964330Y-28596428D01*
X96880997Y-29263095D01*
X96785758Y-29644047D01*
X96666711Y-29834523D01*
X96559568Y-29929761D01*
X96369092Y-29929761D01*
X96285758Y-29834523D01*
X96214330Y-29644047D01*
X96214330Y-29263095D01*
X96297663Y-28596428D01*
X96392901Y-28215476D01*
X96511949Y-28025000D01*
X96619092Y-27929761D01*
X97226235Y-29929761D02*
X97476235Y-27929761D01*
X97797663Y-29929761D01*
X98047663Y-27929761D01*
X201295711Y-42634761D02*
X201081425Y-41682380D01*
X200724282Y-42634761D02*
X200974282Y-40634761D01*
X201355235Y-40634761D01*
X201438568Y-40730000D01*
X201474282Y-40825238D01*
X201498092Y-41015714D01*
X201462377Y-41301428D01*
X201390949Y-41491904D01*
X201331425Y-41587142D01*
X201224282Y-41682380D01*
X200843330Y-41682380D01*
X201855235Y-41587142D02*
X202188568Y-41587142D01*
X202200473Y-42634761D02*
X201724282Y-42634761D01*
X201974282Y-40634761D01*
X202450473Y-40634761D01*
X202593330Y-42539523D02*
X202724282Y-42634761D01*
X202962377Y-42634761D01*
X203069520Y-42539523D01*
X203129044Y-42444285D01*
X203200473Y-42253809D01*
X203224282Y-42063333D01*
X203200473Y-41872857D01*
X203164758Y-41777619D01*
X203081425Y-41682380D01*
X202902854Y-41587142D01*
X202819520Y-41491904D01*
X202783806Y-41396666D01*
X202759997Y-41206190D01*
X202783806Y-41015714D01*
X202855235Y-40825238D01*
X202914758Y-40730000D01*
X203021901Y-40634761D01*
X203259997Y-40634761D01*
X203390949Y-40730000D01*
X203712377Y-41587142D02*
X204045711Y-41587142D01*
X204057616Y-42634761D02*
X203581425Y-42634761D01*
X203831425Y-40634761D01*
X204307616Y-40634761D01*
X204593330Y-40634761D02*
X205164758Y-40634761D01*
X204629044Y-42634761D02*
X204879044Y-40634761D01*
D11*
X87807571Y-71037857D02*
X87807571Y-70037857D01*
X89307571Y-70680714D01*
X88307571Y-68823571D02*
X89307571Y-68823571D01*
X87736142Y-69180714D02*
X88807571Y-69537857D01*
X88807571Y-68609285D01*
X89307571Y-68037857D02*
X87807571Y-68037857D01*
X88521857Y-68037857D02*
X88521857Y-67180714D01*
X89307571Y-67180714D02*
X87807571Y-67180714D01*
X89164714Y-65609285D02*
X89236142Y-65680714D01*
X89307571Y-65895000D01*
X89307571Y-66037857D01*
X89236142Y-66252142D01*
X89093285Y-66395000D01*
X88950428Y-66466428D01*
X88664714Y-66537857D01*
X88450428Y-66537857D01*
X88164714Y-66466428D01*
X88021857Y-66395000D01*
X87879000Y-66252142D01*
X87807571Y-66037857D01*
X87807571Y-65895000D01*
X87879000Y-65680714D01*
X87950428Y-65609285D01*
X89307571Y-64180714D02*
X89307571Y-65037857D01*
X89307571Y-64609285D02*
X87807571Y-64609285D01*
X88021857Y-64752142D01*
X88164714Y-64895000D01*
X88236142Y-65037857D01*
X87807571Y-63680714D02*
X87807571Y-62752142D01*
X88379000Y-63252142D01*
X88379000Y-63037857D01*
X88450428Y-62895000D01*
X88521857Y-62823571D01*
X88664714Y-62752142D01*
X89021857Y-62752142D01*
X89164714Y-62823571D01*
X89236142Y-62895000D01*
X89307571Y-63037857D01*
X89307571Y-63466428D01*
X89236142Y-63609285D01*
X89164714Y-63680714D01*
X88450428Y-61895000D02*
X88379000Y-62037857D01*
X88307571Y-62109285D01*
X88164714Y-62180714D01*
X88093285Y-62180714D01*
X87950428Y-62109285D01*
X87879000Y-62037857D01*
X87807571Y-61895000D01*
X87807571Y-61609285D01*
X87879000Y-61466428D01*
X87950428Y-61395000D01*
X88093285Y-61323571D01*
X88164714Y-61323571D01*
X88307571Y-61395000D01*
X88379000Y-61466428D01*
X88450428Y-61609285D01*
X88450428Y-61895000D01*
X88521857Y-62037857D01*
X88593285Y-62109285D01*
X88736142Y-62180714D01*
X89021857Y-62180714D01*
X89164714Y-62109285D01*
X89236142Y-62037857D01*
X89307571Y-61895000D01*
X89307571Y-61609285D01*
X89236142Y-61466428D01*
X89164714Y-61395000D01*
X89021857Y-61323571D01*
X88736142Y-61323571D01*
X88593285Y-61395000D01*
X88521857Y-61466428D01*
X88450428Y-61609285D01*
X107432571Y-69866428D02*
X107432571Y-70152142D01*
X107504000Y-70295000D01*
X107575428Y-70366428D01*
X107789714Y-70509285D01*
X108075428Y-70580714D01*
X108646857Y-70580714D01*
X108789714Y-70509285D01*
X108861142Y-70437857D01*
X108932571Y-70295000D01*
X108932571Y-70009285D01*
X108861142Y-69866428D01*
X108789714Y-69795000D01*
X108646857Y-69723571D01*
X108289714Y-69723571D01*
X108146857Y-69795000D01*
X108075428Y-69866428D01*
X108004000Y-70009285D01*
X108004000Y-70295000D01*
X108075428Y-70437857D01*
X108146857Y-70509285D01*
X108289714Y-70580714D01*
X107575428Y-69152142D02*
X107504000Y-69080714D01*
X107432571Y-68937857D01*
X107432571Y-68580714D01*
X107504000Y-68437857D01*
X107575428Y-68366428D01*
X107718285Y-68295000D01*
X107861142Y-68295000D01*
X108075428Y-68366428D01*
X108932571Y-69223571D01*
X108932571Y-68295000D01*
X107575428Y-67723571D02*
X107504000Y-67652142D01*
X107432571Y-67509285D01*
X107432571Y-67152142D01*
X107504000Y-67009285D01*
X107575428Y-66937857D01*
X107718285Y-66866428D01*
X107861142Y-66866428D01*
X108075428Y-66937857D01*
X108932571Y-67795000D01*
X108932571Y-66866428D01*
X107432571Y-65509285D02*
X107432571Y-66223571D01*
X108146857Y-66295000D01*
X108075428Y-66223571D01*
X108004000Y-66080714D01*
X108004000Y-65723571D01*
X108075428Y-65580714D01*
X108146857Y-65509285D01*
X108289714Y-65437857D01*
X108646857Y-65437857D01*
X108789714Y-65509285D01*
X108861142Y-65580714D01*
X108932571Y-65723571D01*
X108932571Y-66080714D01*
X108861142Y-66223571D01*
X108789714Y-66295000D01*
X107432571Y-64152142D02*
X107432571Y-64437857D01*
X107504000Y-64580714D01*
X107575428Y-64652142D01*
X107789714Y-64795000D01*
X108075428Y-64866428D01*
X108646857Y-64866428D01*
X108789714Y-64795000D01*
X108861142Y-64723571D01*
X108932571Y-64580714D01*
X108932571Y-64295000D01*
X108861142Y-64152142D01*
X108789714Y-64080714D01*
X108646857Y-64009285D01*
X108289714Y-64009285D01*
X108146857Y-64080714D01*
X108075428Y-64152142D01*
X108004000Y-64295000D01*
X108004000Y-64580714D01*
X108075428Y-64723571D01*
X108146857Y-64795000D01*
X108289714Y-64866428D01*
X127057571Y-69866428D02*
X127057571Y-70152142D01*
X127129000Y-70295000D01*
X127200428Y-70366428D01*
X127414714Y-70509285D01*
X127700428Y-70580714D01*
X128271857Y-70580714D01*
X128414714Y-70509285D01*
X128486142Y-70437857D01*
X128557571Y-70295000D01*
X128557571Y-70009285D01*
X128486142Y-69866428D01*
X128414714Y-69795000D01*
X128271857Y-69723571D01*
X127914714Y-69723571D01*
X127771857Y-69795000D01*
X127700428Y-69866428D01*
X127629000Y-70009285D01*
X127629000Y-70295000D01*
X127700428Y-70437857D01*
X127771857Y-70509285D01*
X127914714Y-70580714D01*
X127200428Y-69152142D02*
X127129000Y-69080714D01*
X127057571Y-68937857D01*
X127057571Y-68580714D01*
X127129000Y-68437857D01*
X127200428Y-68366428D01*
X127343285Y-68295000D01*
X127486142Y-68295000D01*
X127700428Y-68366428D01*
X128557571Y-69223571D01*
X128557571Y-68295000D01*
X127200428Y-67723571D02*
X127129000Y-67652142D01*
X127057571Y-67509285D01*
X127057571Y-67152142D01*
X127129000Y-67009285D01*
X127200428Y-66937857D01*
X127343285Y-66866428D01*
X127486142Y-66866428D01*
X127700428Y-66937857D01*
X128557571Y-67795000D01*
X128557571Y-66866428D01*
X127057571Y-65509285D02*
X127057571Y-66223571D01*
X127771857Y-66295000D01*
X127700428Y-66223571D01*
X127629000Y-66080714D01*
X127629000Y-65723571D01*
X127700428Y-65580714D01*
X127771857Y-65509285D01*
X127914714Y-65437857D01*
X128271857Y-65437857D01*
X128414714Y-65509285D01*
X128486142Y-65580714D01*
X128557571Y-65723571D01*
X128557571Y-66080714D01*
X128486142Y-66223571D01*
X128414714Y-66295000D01*
X127057571Y-64152142D02*
X127057571Y-64437857D01*
X127129000Y-64580714D01*
X127200428Y-64652142D01*
X127414714Y-64795000D01*
X127700428Y-64866428D01*
X128271857Y-64866428D01*
X128414714Y-64795000D01*
X128486142Y-64723571D01*
X128557571Y-64580714D01*
X128557571Y-64295000D01*
X128486142Y-64152142D01*
X128414714Y-64080714D01*
X128271857Y-64009285D01*
X127914714Y-64009285D01*
X127771857Y-64080714D01*
X127700428Y-64152142D01*
X127629000Y-64295000D01*
X127629000Y-64580714D01*
X127700428Y-64723571D01*
X127771857Y-64795000D01*
X127914714Y-64866428D01*
X145707571Y-69866428D02*
X145707571Y-70152142D01*
X145779000Y-70295000D01*
X145850428Y-70366428D01*
X146064714Y-70509285D01*
X146350428Y-70580714D01*
X146921857Y-70580714D01*
X147064714Y-70509285D01*
X147136142Y-70437857D01*
X147207571Y-70295000D01*
X147207571Y-70009285D01*
X147136142Y-69866428D01*
X147064714Y-69795000D01*
X146921857Y-69723571D01*
X146564714Y-69723571D01*
X146421857Y-69795000D01*
X146350428Y-69866428D01*
X146279000Y-70009285D01*
X146279000Y-70295000D01*
X146350428Y-70437857D01*
X146421857Y-70509285D01*
X146564714Y-70580714D01*
X145850428Y-69152142D02*
X145779000Y-69080714D01*
X145707571Y-68937857D01*
X145707571Y-68580714D01*
X145779000Y-68437857D01*
X145850428Y-68366428D01*
X145993285Y-68295000D01*
X146136142Y-68295000D01*
X146350428Y-68366428D01*
X147207571Y-69223571D01*
X147207571Y-68295000D01*
X145850428Y-67723571D02*
X145779000Y-67652142D01*
X145707571Y-67509285D01*
X145707571Y-67152142D01*
X145779000Y-67009285D01*
X145850428Y-66937857D01*
X145993285Y-66866428D01*
X146136142Y-66866428D01*
X146350428Y-66937857D01*
X147207571Y-67795000D01*
X147207571Y-66866428D01*
X145707571Y-65509285D02*
X145707571Y-66223571D01*
X146421857Y-66295000D01*
X146350428Y-66223571D01*
X146279000Y-66080714D01*
X146279000Y-65723571D01*
X146350428Y-65580714D01*
X146421857Y-65509285D01*
X146564714Y-65437857D01*
X146921857Y-65437857D01*
X147064714Y-65509285D01*
X147136142Y-65580714D01*
X147207571Y-65723571D01*
X147207571Y-66080714D01*
X147136142Y-66223571D01*
X147064714Y-66295000D01*
X145707571Y-64152142D02*
X145707571Y-64437857D01*
X145779000Y-64580714D01*
X145850428Y-64652142D01*
X146064714Y-64795000D01*
X146350428Y-64866428D01*
X146921857Y-64866428D01*
X147064714Y-64795000D01*
X147136142Y-64723571D01*
X147207571Y-64580714D01*
X147207571Y-64295000D01*
X147136142Y-64152142D01*
X147064714Y-64080714D01*
X146921857Y-64009285D01*
X146564714Y-64009285D01*
X146421857Y-64080714D01*
X146350428Y-64152142D01*
X146279000Y-64295000D01*
X146279000Y-64580714D01*
X146350428Y-64723571D01*
X146421857Y-64795000D01*
X146564714Y-64866428D01*
X202657571Y-69866428D02*
X202657571Y-70152142D01*
X202729000Y-70295000D01*
X202800428Y-70366428D01*
X203014714Y-70509285D01*
X203300428Y-70580714D01*
X203871857Y-70580714D01*
X204014714Y-70509285D01*
X204086142Y-70437857D01*
X204157571Y-70295000D01*
X204157571Y-70009285D01*
X204086142Y-69866428D01*
X204014714Y-69795000D01*
X203871857Y-69723571D01*
X203514714Y-69723571D01*
X203371857Y-69795000D01*
X203300428Y-69866428D01*
X203229000Y-70009285D01*
X203229000Y-70295000D01*
X203300428Y-70437857D01*
X203371857Y-70509285D01*
X203514714Y-70580714D01*
X202800428Y-69152142D02*
X202729000Y-69080714D01*
X202657571Y-68937857D01*
X202657571Y-68580714D01*
X202729000Y-68437857D01*
X202800428Y-68366428D01*
X202943285Y-68295000D01*
X203086142Y-68295000D01*
X203300428Y-68366428D01*
X204157571Y-69223571D01*
X204157571Y-68295000D01*
X202800428Y-67723571D02*
X202729000Y-67652142D01*
X202657571Y-67509285D01*
X202657571Y-67152142D01*
X202729000Y-67009285D01*
X202800428Y-66937857D01*
X202943285Y-66866428D01*
X203086142Y-66866428D01*
X203300428Y-66937857D01*
X204157571Y-67795000D01*
X204157571Y-66866428D01*
X202657571Y-65509285D02*
X202657571Y-66223571D01*
X203371857Y-66295000D01*
X203300428Y-66223571D01*
X203229000Y-66080714D01*
X203229000Y-65723571D01*
X203300428Y-65580714D01*
X203371857Y-65509285D01*
X203514714Y-65437857D01*
X203871857Y-65437857D01*
X204014714Y-65509285D01*
X204086142Y-65580714D01*
X204157571Y-65723571D01*
X204157571Y-66080714D01*
X204086142Y-66223571D01*
X204014714Y-66295000D01*
X202657571Y-64152142D02*
X202657571Y-64437857D01*
X202729000Y-64580714D01*
X202800428Y-64652142D01*
X203014714Y-64795000D01*
X203300428Y-64866428D01*
X203871857Y-64866428D01*
X204014714Y-64795000D01*
X204086142Y-64723571D01*
X204157571Y-64580714D01*
X204157571Y-64295000D01*
X204086142Y-64152142D01*
X204014714Y-64080714D01*
X203871857Y-64009285D01*
X203514714Y-64009285D01*
X203371857Y-64080714D01*
X203300428Y-64152142D01*
X203229000Y-64295000D01*
X203229000Y-64580714D01*
X203300428Y-64723571D01*
X203371857Y-64795000D01*
X203514714Y-64866428D01*
X183557571Y-69866428D02*
X183557571Y-70152142D01*
X183629000Y-70295000D01*
X183700428Y-70366428D01*
X183914714Y-70509285D01*
X184200428Y-70580714D01*
X184771857Y-70580714D01*
X184914714Y-70509285D01*
X184986142Y-70437857D01*
X185057571Y-70295000D01*
X185057571Y-70009285D01*
X184986142Y-69866428D01*
X184914714Y-69795000D01*
X184771857Y-69723571D01*
X184414714Y-69723571D01*
X184271857Y-69795000D01*
X184200428Y-69866428D01*
X184129000Y-70009285D01*
X184129000Y-70295000D01*
X184200428Y-70437857D01*
X184271857Y-70509285D01*
X184414714Y-70580714D01*
X183700428Y-69152142D02*
X183629000Y-69080714D01*
X183557571Y-68937857D01*
X183557571Y-68580714D01*
X183629000Y-68437857D01*
X183700428Y-68366428D01*
X183843285Y-68295000D01*
X183986142Y-68295000D01*
X184200428Y-68366428D01*
X185057571Y-69223571D01*
X185057571Y-68295000D01*
X183700428Y-67723571D02*
X183629000Y-67652142D01*
X183557571Y-67509285D01*
X183557571Y-67152142D01*
X183629000Y-67009285D01*
X183700428Y-66937857D01*
X183843285Y-66866428D01*
X183986142Y-66866428D01*
X184200428Y-66937857D01*
X185057571Y-67795000D01*
X185057571Y-66866428D01*
X183557571Y-65509285D02*
X183557571Y-66223571D01*
X184271857Y-66295000D01*
X184200428Y-66223571D01*
X184129000Y-66080714D01*
X184129000Y-65723571D01*
X184200428Y-65580714D01*
X184271857Y-65509285D01*
X184414714Y-65437857D01*
X184771857Y-65437857D01*
X184914714Y-65509285D01*
X184986142Y-65580714D01*
X185057571Y-65723571D01*
X185057571Y-66080714D01*
X184986142Y-66223571D01*
X184914714Y-66295000D01*
X183557571Y-64152142D02*
X183557571Y-64437857D01*
X183629000Y-64580714D01*
X183700428Y-64652142D01*
X183914714Y-64795000D01*
X184200428Y-64866428D01*
X184771857Y-64866428D01*
X184914714Y-64795000D01*
X184986142Y-64723571D01*
X185057571Y-64580714D01*
X185057571Y-64295000D01*
X184986142Y-64152142D01*
X184914714Y-64080714D01*
X184771857Y-64009285D01*
X184414714Y-64009285D01*
X184271857Y-64080714D01*
X184200428Y-64152142D01*
X184129000Y-64295000D01*
X184129000Y-64580714D01*
X184200428Y-64723571D01*
X184271857Y-64795000D01*
X184414714Y-64866428D01*
X164757571Y-69866428D02*
X164757571Y-70152142D01*
X164829000Y-70295000D01*
X164900428Y-70366428D01*
X165114714Y-70509285D01*
X165400428Y-70580714D01*
X165971857Y-70580714D01*
X166114714Y-70509285D01*
X166186142Y-70437857D01*
X166257571Y-70295000D01*
X166257571Y-70009285D01*
X166186142Y-69866428D01*
X166114714Y-69795000D01*
X165971857Y-69723571D01*
X165614714Y-69723571D01*
X165471857Y-69795000D01*
X165400428Y-69866428D01*
X165329000Y-70009285D01*
X165329000Y-70295000D01*
X165400428Y-70437857D01*
X165471857Y-70509285D01*
X165614714Y-70580714D01*
X164900428Y-69152142D02*
X164829000Y-69080714D01*
X164757571Y-68937857D01*
X164757571Y-68580714D01*
X164829000Y-68437857D01*
X164900428Y-68366428D01*
X165043285Y-68295000D01*
X165186142Y-68295000D01*
X165400428Y-68366428D01*
X166257571Y-69223571D01*
X166257571Y-68295000D01*
X164900428Y-67723571D02*
X164829000Y-67652142D01*
X164757571Y-67509285D01*
X164757571Y-67152142D01*
X164829000Y-67009285D01*
X164900428Y-66937857D01*
X165043285Y-66866428D01*
X165186142Y-66866428D01*
X165400428Y-66937857D01*
X166257571Y-67795000D01*
X166257571Y-66866428D01*
X164757571Y-65509285D02*
X164757571Y-66223571D01*
X165471857Y-66295000D01*
X165400428Y-66223571D01*
X165329000Y-66080714D01*
X165329000Y-65723571D01*
X165400428Y-65580714D01*
X165471857Y-65509285D01*
X165614714Y-65437857D01*
X165971857Y-65437857D01*
X166114714Y-65509285D01*
X166186142Y-65580714D01*
X166257571Y-65723571D01*
X166257571Y-66080714D01*
X166186142Y-66223571D01*
X166114714Y-66295000D01*
X164757571Y-64152142D02*
X164757571Y-64437857D01*
X164829000Y-64580714D01*
X164900428Y-64652142D01*
X165114714Y-64795000D01*
X165400428Y-64866428D01*
X165971857Y-64866428D01*
X166114714Y-64795000D01*
X166186142Y-64723571D01*
X166257571Y-64580714D01*
X166257571Y-64295000D01*
X166186142Y-64152142D01*
X166114714Y-64080714D01*
X165971857Y-64009285D01*
X165614714Y-64009285D01*
X165471857Y-64080714D01*
X165400428Y-64152142D01*
X165329000Y-64295000D01*
X165329000Y-64580714D01*
X165400428Y-64723571D01*
X165471857Y-64795000D01*
X165614714Y-64866428D01*
X161639714Y-99673571D02*
X161639714Y-98173571D01*
X162211142Y-98173571D01*
X162354000Y-98245000D01*
X162425428Y-98316428D01*
X162496857Y-98459285D01*
X162496857Y-98673571D01*
X162425428Y-98816428D01*
X162354000Y-98887857D01*
X162211142Y-98959285D01*
X161639714Y-98959285D01*
X163139714Y-99673571D02*
X163139714Y-98173571D01*
X163782571Y-99245000D02*
X164496857Y-99245000D01*
X163639714Y-99673571D02*
X164139714Y-98173571D01*
X164639714Y-99673571D01*
X166211142Y-98102142D02*
X164925428Y-100030714D01*
X166711142Y-99673571D02*
X166711142Y-98173571D01*
X167211142Y-99245000D01*
X167711142Y-98173571D01*
X167711142Y-99673571D01*
X169282571Y-99530714D02*
X169211142Y-99602142D01*
X168996857Y-99673571D01*
X168854000Y-99673571D01*
X168639714Y-99602142D01*
X168496857Y-99459285D01*
X168425428Y-99316428D01*
X168354000Y-99030714D01*
X168354000Y-98816428D01*
X168425428Y-98530714D01*
X168496857Y-98387857D01*
X168639714Y-98245000D01*
X168854000Y-98173571D01*
X168996857Y-98173571D01*
X169211142Y-98245000D01*
X169282571Y-98316428D01*
X171711142Y-98173571D02*
X171425428Y-98173571D01*
X171282571Y-98245000D01*
X171211142Y-98316428D01*
X171068285Y-98530714D01*
X170996857Y-98816428D01*
X170996857Y-99387857D01*
X171068285Y-99530714D01*
X171139714Y-99602142D01*
X171282571Y-99673571D01*
X171568285Y-99673571D01*
X171711142Y-99602142D01*
X171782571Y-99530714D01*
X171854000Y-99387857D01*
X171854000Y-99030714D01*
X171782571Y-98887857D01*
X171711142Y-98816428D01*
X171568285Y-98745000D01*
X171282571Y-98745000D01*
X171139714Y-98816428D01*
X171068285Y-98887857D01*
X170996857Y-99030714D01*
X172711142Y-98816428D02*
X172568285Y-98745000D01*
X172496857Y-98673571D01*
X172425428Y-98530714D01*
X172425428Y-98459285D01*
X172496857Y-98316428D01*
X172568285Y-98245000D01*
X172711142Y-98173571D01*
X172996857Y-98173571D01*
X173139714Y-98245000D01*
X173211142Y-98316428D01*
X173282571Y-98459285D01*
X173282571Y-98530714D01*
X173211142Y-98673571D01*
X173139714Y-98745000D01*
X172996857Y-98816428D01*
X172711142Y-98816428D01*
X172568285Y-98887857D01*
X172496857Y-98959285D01*
X172425428Y-99102142D01*
X172425428Y-99387857D01*
X172496857Y-99530714D01*
X172568285Y-99602142D01*
X172711142Y-99673571D01*
X172996857Y-99673571D01*
X173139714Y-99602142D01*
X173211142Y-99530714D01*
X173282571Y-99387857D01*
X173282571Y-99102142D01*
X173211142Y-98959285D01*
X173139714Y-98887857D01*
X172996857Y-98816428D01*
X173854000Y-98316428D02*
X173925428Y-98245000D01*
X174068285Y-98173571D01*
X174425428Y-98173571D01*
X174568285Y-98245000D01*
X174639714Y-98316428D01*
X174711142Y-98459285D01*
X174711142Y-98602142D01*
X174639714Y-98816428D01*
X173782571Y-99673571D01*
X174711142Y-99673571D01*
X176139714Y-99673571D02*
X175282571Y-99673571D01*
X175711142Y-99673571D02*
X175711142Y-98173571D01*
X175568285Y-98387857D01*
X175425428Y-98530714D01*
X175282571Y-98602142D01*
X107039714Y-99673571D02*
X107039714Y-98173571D01*
X107611142Y-98173571D01*
X107754000Y-98245000D01*
X107825428Y-98316428D01*
X107896857Y-98459285D01*
X107896857Y-98673571D01*
X107825428Y-98816428D01*
X107754000Y-98887857D01*
X107611142Y-98959285D01*
X107039714Y-98959285D01*
X108539714Y-99673571D02*
X108539714Y-98173571D01*
X109182571Y-99245000D02*
X109896857Y-99245000D01*
X109039714Y-99673571D02*
X109539714Y-98173571D01*
X110039714Y-99673571D01*
X111611142Y-98102142D02*
X110325428Y-100030714D01*
X112111142Y-99673571D02*
X112111142Y-98173571D01*
X112611142Y-99245000D01*
X113111142Y-98173571D01*
X113111142Y-99673571D01*
X114682571Y-99530714D02*
X114611142Y-99602142D01*
X114396857Y-99673571D01*
X114254000Y-99673571D01*
X114039714Y-99602142D01*
X113896857Y-99459285D01*
X113825428Y-99316428D01*
X113754000Y-99030714D01*
X113754000Y-98816428D01*
X113825428Y-98530714D01*
X113896857Y-98387857D01*
X114039714Y-98245000D01*
X114254000Y-98173571D01*
X114396857Y-98173571D01*
X114611142Y-98245000D01*
X114682571Y-98316428D01*
X117111142Y-98173571D02*
X116825428Y-98173571D01*
X116682571Y-98245000D01*
X116611142Y-98316428D01*
X116468285Y-98530714D01*
X116396857Y-98816428D01*
X116396857Y-99387857D01*
X116468285Y-99530714D01*
X116539714Y-99602142D01*
X116682571Y-99673571D01*
X116968285Y-99673571D01*
X117111142Y-99602142D01*
X117182571Y-99530714D01*
X117254000Y-99387857D01*
X117254000Y-99030714D01*
X117182571Y-98887857D01*
X117111142Y-98816428D01*
X116968285Y-98745000D01*
X116682571Y-98745000D01*
X116539714Y-98816428D01*
X116468285Y-98887857D01*
X116396857Y-99030714D01*
X118111142Y-98816428D02*
X117968285Y-98745000D01*
X117896857Y-98673571D01*
X117825428Y-98530714D01*
X117825428Y-98459285D01*
X117896857Y-98316428D01*
X117968285Y-98245000D01*
X118111142Y-98173571D01*
X118396857Y-98173571D01*
X118539714Y-98245000D01*
X118611142Y-98316428D01*
X118682571Y-98459285D01*
X118682571Y-98530714D01*
X118611142Y-98673571D01*
X118539714Y-98745000D01*
X118396857Y-98816428D01*
X118111142Y-98816428D01*
X117968285Y-98887857D01*
X117896857Y-98959285D01*
X117825428Y-99102142D01*
X117825428Y-99387857D01*
X117896857Y-99530714D01*
X117968285Y-99602142D01*
X118111142Y-99673571D01*
X118396857Y-99673571D01*
X118539714Y-99602142D01*
X118611142Y-99530714D01*
X118682571Y-99387857D01*
X118682571Y-99102142D01*
X118611142Y-98959285D01*
X118539714Y-98887857D01*
X118396857Y-98816428D01*
X119254000Y-98316428D02*
X119325428Y-98245000D01*
X119468285Y-98173571D01*
X119825428Y-98173571D01*
X119968285Y-98245000D01*
X120039714Y-98316428D01*
X120111142Y-98459285D01*
X120111142Y-98602142D01*
X120039714Y-98816428D01*
X119182571Y-99673571D01*
X120111142Y-99673571D01*
X121539714Y-99673571D02*
X120682571Y-99673571D01*
X121111142Y-99673571D02*
X121111142Y-98173571D01*
X120968285Y-98387857D01*
X120825428Y-98530714D01*
X120682571Y-98602142D01*
X149232571Y-116966428D02*
X149304000Y-116895000D01*
X149446857Y-116823571D01*
X149804000Y-116823571D01*
X149946857Y-116895000D01*
X150018285Y-116966428D01*
X150089714Y-117109285D01*
X150089714Y-117252142D01*
X150018285Y-117466428D01*
X149161142Y-118323571D01*
X150089714Y-118323571D01*
X150589714Y-116823571D02*
X151589714Y-116823571D01*
X150946857Y-118323571D01*
X152804000Y-116823571D02*
X152518285Y-116823571D01*
X152375428Y-116895000D01*
X152304000Y-116966428D01*
X152161142Y-117180714D01*
X152089714Y-117466428D01*
X152089714Y-118037857D01*
X152161142Y-118180714D01*
X152232571Y-118252142D01*
X152375428Y-118323571D01*
X152661142Y-118323571D01*
X152804000Y-118252142D01*
X152875428Y-118180714D01*
X152946857Y-118037857D01*
X152946857Y-117680714D01*
X152875428Y-117537857D01*
X152804000Y-117466428D01*
X152661142Y-117395000D01*
X152375428Y-117395000D01*
X152232571Y-117466428D01*
X152161142Y-117537857D01*
X152089714Y-117680714D01*
X154232571Y-117323571D02*
X154232571Y-118323571D01*
X153875428Y-116752142D02*
X153518285Y-117823571D01*
X154446857Y-117823571D01*
X99739714Y-119698571D02*
X100739714Y-119698571D01*
X100096857Y-121198571D01*
X101954000Y-120198571D02*
X101954000Y-121198571D01*
X101596857Y-119627142D02*
X101239714Y-120698571D01*
X102168285Y-120698571D01*
X103454000Y-121198571D02*
X102739714Y-121198571D01*
X102739714Y-119698571D01*
X103882571Y-121127142D02*
X104096857Y-121198571D01*
X104454000Y-121198571D01*
X104596857Y-121127142D01*
X104668285Y-121055714D01*
X104739714Y-120912857D01*
X104739714Y-120770000D01*
X104668285Y-120627142D01*
X104596857Y-120555714D01*
X104454000Y-120484285D01*
X104168285Y-120412857D01*
X104025428Y-120341428D01*
X103954000Y-120270000D01*
X103882571Y-120127142D01*
X103882571Y-119984285D01*
X103954000Y-119841428D01*
X104025428Y-119770000D01*
X104168285Y-119698571D01*
X104525428Y-119698571D01*
X104739714Y-119770000D01*
X105239714Y-119698571D02*
X106239714Y-119698571D01*
X105596857Y-121198571D01*
X107454000Y-120198571D02*
X107454000Y-121198571D01*
X107096857Y-119627142D02*
X106739714Y-120698571D01*
X107668285Y-120698571D01*
D10*
X202469997Y-91799761D02*
X202660473Y-91799761D01*
X202743806Y-91895000D01*
X202815235Y-92085476D01*
X202815235Y-92466428D01*
X202731901Y-93133095D01*
X202636663Y-93514047D01*
X202517616Y-93704523D01*
X202410473Y-93799761D01*
X202219997Y-93799761D01*
X202136663Y-93704523D01*
X202065235Y-93514047D01*
X202065235Y-93133095D01*
X202148568Y-92466428D01*
X202243806Y-92085476D01*
X202362854Y-91895000D01*
X202469997Y-91799761D01*
X203077139Y-93799761D02*
X203327139Y-91799761D01*
X203648568Y-93799761D01*
X203898568Y-91799761D01*
X205041425Y-94466428D02*
X205398568Y-91609285D01*
X207041425Y-91799761D02*
X207231901Y-91799761D01*
X207315235Y-91895000D01*
X207386663Y-92085476D01*
X207386663Y-92466428D01*
X207303330Y-93133095D01*
X207208092Y-93514047D01*
X207089044Y-93704523D01*
X206981901Y-93799761D01*
X206791425Y-93799761D01*
X206708092Y-93704523D01*
X206636663Y-93514047D01*
X206636663Y-93133095D01*
X206719997Y-92466428D01*
X206815235Y-92085476D01*
X206934282Y-91895000D01*
X207041425Y-91799761D01*
X208112854Y-92752142D02*
X207779520Y-92752142D01*
X207648568Y-93799761D02*
X207898568Y-91799761D01*
X208374758Y-91799761D01*
X208969997Y-92752142D02*
X208636663Y-92752142D01*
X208505711Y-93799761D02*
X208755711Y-91799761D01*
X209231901Y-91799761D01*
X201315235Y-97049761D02*
X201100949Y-96097380D01*
X200743806Y-97049761D02*
X200993806Y-95049761D01*
X201374758Y-95049761D01*
X201458092Y-95145000D01*
X201493806Y-95240238D01*
X201517616Y-95430714D01*
X201481901Y-95716428D01*
X201410473Y-95906904D01*
X201350949Y-96002142D01*
X201243806Y-96097380D01*
X200862854Y-96097380D01*
X201767616Y-96478333D02*
X202243806Y-96478333D01*
X201600949Y-97049761D02*
X202184282Y-95049761D01*
X202267616Y-97049761D01*
X202600949Y-97049761D02*
X202850949Y-95049761D01*
X203005711Y-96478333D01*
X203517616Y-95049761D01*
X203267616Y-97049761D01*
X204969997Y-96002142D02*
X205100949Y-96097380D01*
X205136663Y-96192619D01*
X205160473Y-96383095D01*
X205124758Y-96668809D01*
X205053330Y-96859285D01*
X204993806Y-96954523D01*
X204886663Y-97049761D01*
X204505711Y-97049761D01*
X204755711Y-95049761D01*
X205089044Y-95049761D01*
X205172377Y-95145000D01*
X205208092Y-95240238D01*
X205231901Y-95430714D01*
X205208092Y-95621190D01*
X205136663Y-95811666D01*
X205077139Y-95906904D01*
X204969997Y-96002142D01*
X204636663Y-96002142D01*
X205529520Y-96478333D02*
X206005711Y-96478333D01*
X205362854Y-97049761D02*
X205946187Y-95049761D01*
X206029520Y-97049761D01*
X206469997Y-95049761D02*
X207041425Y-95049761D01*
X206505711Y-97049761D02*
X206755711Y-95049761D01*
X207231901Y-95049761D02*
X207803330Y-95049761D01*
X207267616Y-97049761D02*
X207517616Y-95049761D01*
X208017616Y-96002142D02*
X208350949Y-96002142D01*
X208362854Y-97049761D02*
X207886663Y-97049761D01*
X208136663Y-95049761D01*
X208612854Y-95049761D01*
X209362854Y-97049761D02*
X209148568Y-96097380D01*
X208791425Y-97049761D02*
X209041425Y-95049761D01*
X209422377Y-95049761D01*
X209505711Y-95145000D01*
X209541425Y-95240238D01*
X209565235Y-95430714D01*
X209529520Y-95716428D01*
X209458092Y-95906904D01*
X209398568Y-96002142D01*
X209291425Y-96097380D01*
X208910473Y-96097380D01*
X210100949Y-96097380D02*
X209981901Y-97049761D01*
X209898568Y-95049761D02*
X210100949Y-96097380D01*
X210565235Y-95049761D01*
X85267616Y-55074761D02*
X85517616Y-53074761D01*
X85755711Y-53074761D01*
X85886663Y-53170000D01*
X85958092Y-53360476D01*
X85981901Y-53550952D01*
X85981901Y-53931904D01*
X85946187Y-54217619D01*
X85850949Y-54598571D01*
X85779520Y-54789047D01*
X85660473Y-54979523D01*
X85505711Y-55074761D01*
X85267616Y-55074761D01*
X86398568Y-54027142D02*
X86731901Y-54027142D01*
X86743806Y-55074761D02*
X86267616Y-55074761D01*
X86517616Y-53074761D01*
X86993806Y-53074761D01*
X87767616Y-54884285D02*
X87708092Y-54979523D01*
X87553330Y-55074761D01*
X87458092Y-55074761D01*
X87327139Y-54979523D01*
X87255711Y-54789047D01*
X87231901Y-54598571D01*
X87231901Y-54217619D01*
X87267616Y-53931904D01*
X87362854Y-53550952D01*
X87434282Y-53360476D01*
X87553330Y-53170000D01*
X87708092Y-53074761D01*
X87803330Y-53074761D01*
X87934282Y-53170000D01*
X87969997Y-53265238D01*
X88612854Y-53074761D02*
X88803330Y-53074761D01*
X88886663Y-53170000D01*
X88958092Y-53360476D01*
X88958092Y-53741428D01*
X88874758Y-54408095D01*
X88779520Y-54789047D01*
X88660473Y-54979523D01*
X88553330Y-55074761D01*
X88362854Y-55074761D01*
X88279520Y-54979523D01*
X88208092Y-54789047D01*
X88208092Y-54408095D01*
X88291425Y-53741428D01*
X88386663Y-53360476D01*
X88505711Y-53170000D01*
X88612854Y-53074761D01*
X89219997Y-55074761D02*
X89469997Y-53074761D01*
X89708092Y-53074761D01*
X89839044Y-53170000D01*
X89910473Y-53360476D01*
X89934282Y-53550952D01*
X89934282Y-53931904D01*
X89898568Y-54217619D01*
X89803330Y-54598571D01*
X89731901Y-54789047D01*
X89612854Y-54979523D01*
X89458092Y-55074761D01*
X89219997Y-55074761D01*
X90350949Y-54027142D02*
X90684282Y-54027142D01*
X90696187Y-55074761D02*
X90219997Y-55074761D01*
X90469997Y-53074761D01*
X90946187Y-53074761D01*
X91696187Y-55074761D02*
X91481901Y-54122380D01*
X91124758Y-55074761D02*
X91374758Y-53074761D01*
X91755711Y-53074761D01*
X91839044Y-53170000D01*
X91874758Y-53265238D01*
X91898568Y-53455714D01*
X91862854Y-53741428D01*
X91791425Y-53931904D01*
X91731901Y-54027142D01*
X91624758Y-54122380D01*
X91243806Y-54122380D01*
X98805711Y-128699761D02*
X99055711Y-126699761D01*
X99293806Y-126699761D01*
X99424758Y-126795000D01*
X99496187Y-126985476D01*
X99519997Y-127175952D01*
X99519997Y-127556904D01*
X99484282Y-127842619D01*
X99389044Y-128223571D01*
X99317616Y-128414047D01*
X99198568Y-128604523D01*
X99043806Y-128699761D01*
X98805711Y-128699761D01*
X101031901Y-127652142D02*
X100698568Y-127652142D01*
X100567616Y-128699761D02*
X100817616Y-126699761D01*
X101293806Y-126699761D01*
X101900949Y-128699761D02*
X101424758Y-128699761D01*
X101674758Y-126699761D01*
X102234282Y-128699761D02*
X102484282Y-126699761D01*
X102710473Y-128699761D02*
X102960473Y-126699761D01*
X103341425Y-126699761D01*
X103424758Y-126795000D01*
X103460473Y-126890238D01*
X103484282Y-127080714D01*
X103448568Y-127366428D01*
X103377139Y-127556904D01*
X103317616Y-127652142D01*
X103210473Y-127747380D01*
X102829520Y-127747380D01*
X104936663Y-127652142D02*
X104603330Y-127652142D01*
X104472377Y-128699761D02*
X104722377Y-126699761D01*
X105198568Y-126699761D01*
X105805711Y-128699761D02*
X105329520Y-128699761D01*
X105579520Y-126699761D01*
X106579520Y-126699761D02*
X106769997Y-126699761D01*
X106853330Y-126795000D01*
X106924758Y-126985476D01*
X106924758Y-127366428D01*
X106841425Y-128033095D01*
X106746187Y-128414047D01*
X106627139Y-128604523D01*
X106519997Y-128699761D01*
X106329520Y-128699761D01*
X106246187Y-128604523D01*
X106174758Y-128414047D01*
X106174758Y-128033095D01*
X106258092Y-127366428D01*
X106353330Y-126985476D01*
X106472377Y-126795000D01*
X106579520Y-126699761D01*
X107186663Y-128699761D02*
X107436663Y-126699761D01*
X107817616Y-126699761D01*
X107900949Y-126795000D01*
X107936663Y-126890238D01*
X107960473Y-127080714D01*
X107924758Y-127366428D01*
X107853330Y-127556904D01*
X107793806Y-127652142D01*
X107686663Y-127747380D01*
X107305711Y-127747380D01*
X143797377Y-88749761D02*
X144047377Y-86749761D01*
X144428330Y-86749761D01*
X144511663Y-86845000D01*
X144547377Y-86940238D01*
X144571187Y-87130714D01*
X144535473Y-87416428D01*
X144464044Y-87606904D01*
X144404520Y-87702142D01*
X144297377Y-87797380D01*
X143916425Y-87797380D01*
X144797377Y-88749761D02*
X145047377Y-86749761D01*
X145297377Y-88178333D02*
X145773568Y-88178333D01*
X145130711Y-88749761D02*
X145714044Y-86749761D01*
X145797377Y-88749761D01*
X147011663Y-87416428D02*
X147725949Y-87416428D01*
X147404520Y-86559285D02*
X146797377Y-89130714D01*
X147523568Y-88273571D02*
X146809282Y-88273571D01*
X147130711Y-89130714D02*
X147737854Y-86559285D01*
X148071187Y-86940238D02*
X148130711Y-86845000D01*
X148237854Y-86749761D01*
X148475949Y-86749761D01*
X148559282Y-86845000D01*
X148594997Y-86940238D01*
X148618806Y-87130714D01*
X148594997Y-87321190D01*
X148511663Y-87606904D01*
X147797377Y-88749761D01*
X148416425Y-88749761D01*
X89097377Y-88599761D02*
X89347377Y-86599761D01*
X89728330Y-86599761D01*
X89811663Y-86695000D01*
X89847377Y-86790238D01*
X89871187Y-86980714D01*
X89835473Y-87266428D01*
X89764044Y-87456904D01*
X89704520Y-87552142D01*
X89597377Y-87647380D01*
X89216425Y-87647380D01*
X90097377Y-88599761D02*
X90347377Y-86599761D01*
X90597377Y-88028333D02*
X91073568Y-88028333D01*
X90430711Y-88599761D02*
X91014044Y-86599761D01*
X91097377Y-88599761D01*
X92311663Y-87266428D02*
X93025949Y-87266428D01*
X92704520Y-86409285D02*
X92097377Y-88980714D01*
X92823568Y-88123571D02*
X92109282Y-88123571D01*
X92430711Y-88980714D02*
X93037854Y-86409285D01*
X93716425Y-88599761D02*
X93144997Y-88599761D01*
X93430711Y-88599761D02*
X93680711Y-86599761D01*
X93549758Y-86885476D01*
X93430711Y-87075952D01*
X93323568Y-87171190D01*
X178715235Y-130049761D02*
X178500949Y-129097380D01*
X178143806Y-130049761D02*
X178393806Y-128049761D01*
X178774758Y-128049761D01*
X178858092Y-128145000D01*
X178893806Y-128240238D01*
X178917616Y-128430714D01*
X178881901Y-128716428D01*
X178810473Y-128906904D01*
X178750949Y-129002142D01*
X178643806Y-129097380D01*
X178262854Y-129097380D01*
X179167616Y-129478333D02*
X179643806Y-129478333D01*
X179000949Y-130049761D02*
X179584282Y-128049761D01*
X179667616Y-130049761D01*
X180000949Y-130049761D02*
X180250949Y-128049761D01*
X180405711Y-129478333D01*
X180917616Y-128049761D01*
X180667616Y-130049761D01*
X182369997Y-129002142D02*
X182500949Y-129097380D01*
X182536663Y-129192619D01*
X182560473Y-129383095D01*
X182524758Y-129668809D01*
X182453330Y-129859285D01*
X182393806Y-129954523D01*
X182286663Y-130049761D01*
X181905711Y-130049761D01*
X182155711Y-128049761D01*
X182489044Y-128049761D01*
X182572377Y-128145000D01*
X182608092Y-128240238D01*
X182631901Y-128430714D01*
X182608092Y-128621190D01*
X182536663Y-128811666D01*
X182477139Y-128906904D01*
X182369997Y-129002142D01*
X182036663Y-129002142D01*
X182929520Y-129478333D02*
X183405711Y-129478333D01*
X182762854Y-130049761D02*
X183346187Y-128049761D01*
X183429520Y-130049761D01*
X183869997Y-128049761D02*
X184441425Y-128049761D01*
X183905711Y-130049761D02*
X184155711Y-128049761D01*
X184631901Y-128049761D02*
X185203330Y-128049761D01*
X184667616Y-130049761D02*
X184917616Y-128049761D01*
X185417616Y-129002142D02*
X185750949Y-129002142D01*
X185762854Y-130049761D02*
X185286663Y-130049761D01*
X185536663Y-128049761D01*
X186012854Y-128049761D01*
X186762854Y-130049761D02*
X186548568Y-129097380D01*
X186191425Y-130049761D02*
X186441425Y-128049761D01*
X186822377Y-128049761D01*
X186905711Y-128145000D01*
X186941425Y-128240238D01*
X186965235Y-128430714D01*
X186929520Y-128716428D01*
X186858092Y-128906904D01*
X186798568Y-129002142D01*
X186691425Y-129097380D01*
X186310473Y-129097380D01*
X187500949Y-129097380D02*
X187381901Y-130049761D01*
X187298568Y-128049761D02*
X187500949Y-129097380D01*
X187965235Y-128049761D01*
X145298854Y-39154761D02*
X145989330Y-37821428D01*
X145465520Y-37821428D02*
X145822663Y-39154761D01*
X146489330Y-38011904D02*
X146405997Y-37916666D01*
X146370282Y-37821428D01*
X146346473Y-37630952D01*
X146358377Y-37535714D01*
X146429806Y-37345238D01*
X146489330Y-37250000D01*
X146596473Y-37154761D01*
X146786949Y-37154761D01*
X146870282Y-37250000D01*
X146905997Y-37345238D01*
X146929806Y-37535714D01*
X146917901Y-37630952D01*
X146846473Y-37821428D01*
X146786949Y-37916666D01*
X146679806Y-38011904D01*
X146489330Y-38011904D01*
X146382187Y-38107142D01*
X146322663Y-38202380D01*
X146251235Y-38392857D01*
X146203616Y-38773809D01*
X146227425Y-38964285D01*
X146263139Y-39059523D01*
X146346473Y-39154761D01*
X146536949Y-39154761D01*
X146644092Y-39059523D01*
X146703616Y-38964285D01*
X146775044Y-38773809D01*
X146822663Y-38392857D01*
X146798854Y-38202380D01*
X146763139Y-38107142D01*
X146679806Y-38011904D01*
X147882187Y-39059523D02*
X148013139Y-39154761D01*
X148251235Y-39154761D01*
X148358377Y-39059523D01*
X148417901Y-38964285D01*
X148489330Y-38773809D01*
X148513139Y-38583333D01*
X148489330Y-38392857D01*
X148453616Y-38297619D01*
X148370282Y-38202380D01*
X148191711Y-38107142D01*
X148108377Y-38011904D01*
X148072663Y-37916666D01*
X148048854Y-37726190D01*
X148072663Y-37535714D01*
X148144092Y-37345238D01*
X148203616Y-37250000D01*
X148310758Y-37154761D01*
X148548854Y-37154761D01*
X148679806Y-37250000D01*
X149441711Y-39154761D02*
X149227425Y-38202380D01*
X148870282Y-39154761D02*
X149120282Y-37154761D01*
X149501235Y-37154761D01*
X149584568Y-37250000D01*
X149620282Y-37345238D01*
X149644092Y-37535714D01*
X149608377Y-37821428D01*
X149536949Y-38011904D01*
X149477425Y-38107142D01*
X149370282Y-38202380D01*
X148989330Y-38202380D01*
X149894092Y-38583333D02*
X150370282Y-38583333D01*
X149727425Y-39154761D02*
X150310758Y-37154761D01*
X150394092Y-39154761D01*
X150727425Y-39154761D02*
X150977425Y-37154761D01*
X151132187Y-38583333D01*
X151644092Y-37154761D01*
X151394092Y-39154761D01*
X149922377Y-130299761D02*
X149708092Y-129347380D01*
X149350949Y-130299761D02*
X149600949Y-128299761D01*
X149981901Y-128299761D01*
X150065235Y-128395000D01*
X150100949Y-128490238D01*
X150124758Y-128680714D01*
X150089044Y-128966428D01*
X150017616Y-129156904D01*
X149958092Y-129252142D01*
X149850949Y-129347380D01*
X149469997Y-129347380D01*
X150791425Y-128299761D02*
X150981901Y-128299761D01*
X151065235Y-128395000D01*
X151136663Y-128585476D01*
X151136663Y-128966428D01*
X151053330Y-129633095D01*
X150958092Y-130014047D01*
X150839044Y-130204523D01*
X150731901Y-130299761D01*
X150541425Y-130299761D01*
X150458092Y-130204523D01*
X150386663Y-130014047D01*
X150386663Y-129633095D01*
X150469997Y-128966428D01*
X150565235Y-128585476D01*
X150684282Y-128395000D01*
X150791425Y-128299761D01*
X151398568Y-130299761D02*
X151648568Y-128299761D01*
X151803330Y-129728333D01*
X152315235Y-128299761D01*
X152065235Y-130299761D01*
X120174997Y-139290238D02*
X120234520Y-139195000D01*
X120341663Y-139099761D01*
X120579758Y-139099761D01*
X120663092Y-139195000D01*
X120698806Y-139290238D01*
X120722616Y-139480714D01*
X120698806Y-139671190D01*
X120615473Y-139956904D01*
X119901187Y-141099761D01*
X120520235Y-141099761D01*
X121674997Y-139099761D02*
X121198806Y-139099761D01*
X121032139Y-140052142D01*
X121091663Y-139956904D01*
X121198806Y-139861666D01*
X121436901Y-139861666D01*
X121520235Y-139956904D01*
X121555949Y-140052142D01*
X121579758Y-140242619D01*
X121520235Y-140718809D01*
X121448806Y-140909285D01*
X121389282Y-141004523D01*
X121282139Y-141099761D01*
X121044044Y-141099761D01*
X120960711Y-141004523D01*
X120924997Y-140909285D01*
X122579758Y-139099761D02*
X122389282Y-139099761D01*
X122282139Y-139195000D01*
X122222616Y-139290238D01*
X122091663Y-139575952D01*
X121996425Y-139956904D01*
X121901187Y-140718809D01*
X121924997Y-140909285D01*
X121960711Y-141004523D01*
X122044044Y-141099761D01*
X122234520Y-141099761D01*
X122341663Y-141004523D01*
X122401187Y-140909285D01*
X122472616Y-140718809D01*
X122532139Y-140242619D01*
X122508330Y-140052142D01*
X122472616Y-139956904D01*
X122389282Y-139861666D01*
X122198806Y-139861666D01*
X122091663Y-139956904D01*
X122032139Y-140052142D01*
X121960711Y-140242619D01*
X123615473Y-141099761D02*
X123865473Y-139099761D01*
X124186901Y-141099761D02*
X123901187Y-139956904D01*
X124436901Y-139099761D02*
X123722616Y-140242619D01*
X125079758Y-140052142D02*
X125210711Y-140147380D01*
X125246425Y-140242619D01*
X125270235Y-140433095D01*
X125234520Y-140718809D01*
X125163092Y-140909285D01*
X125103568Y-141004523D01*
X124996425Y-141099761D01*
X124615473Y-141099761D01*
X124865473Y-139099761D01*
X125198806Y-139099761D01*
X125282139Y-139195000D01*
X125317854Y-139290238D01*
X125341663Y-139480714D01*
X125317854Y-139671190D01*
X125246425Y-139861666D01*
X125186901Y-139956904D01*
X125079758Y-140052142D01*
X124746425Y-140052142D01*
X125686901Y-139766428D02*
X125758330Y-141099761D01*
X126163092Y-139766428D02*
X125758330Y-141099761D01*
X125603568Y-141575952D01*
X125544044Y-141671190D01*
X125436901Y-141766428D01*
X126401187Y-139766428D02*
X126782139Y-139766428D01*
X126627377Y-139099761D02*
X126413092Y-140814047D01*
X126436901Y-141004523D01*
X126520235Y-141099761D01*
X126615473Y-141099761D01*
X127341663Y-141004523D02*
X127234520Y-141099761D01*
X127044044Y-141099761D01*
X126960711Y-141004523D01*
X126936901Y-140814047D01*
X127032139Y-140052142D01*
X127103568Y-139861666D01*
X127210711Y-139766428D01*
X127401187Y-139766428D01*
X127484520Y-139861666D01*
X127508330Y-140052142D01*
X127484520Y-140242619D01*
X126984520Y-140433095D01*
X93511663Y-149666428D02*
X93583092Y-150999761D01*
X93987854Y-149666428D01*
X94344997Y-150999761D02*
X94261663Y-150904523D01*
X94225949Y-150809285D01*
X94202139Y-150618809D01*
X94273568Y-150047380D01*
X94344997Y-149856904D01*
X94404520Y-149761666D01*
X94511663Y-149666428D01*
X94654520Y-149666428D01*
X94737854Y-149761666D01*
X94773568Y-149856904D01*
X94797377Y-150047380D01*
X94725949Y-150618809D01*
X94654520Y-150809285D01*
X94594997Y-150904523D01*
X94487854Y-150999761D01*
X94344997Y-150999761D01*
X95273568Y-149666428D02*
X95106901Y-150999761D01*
X95249758Y-149856904D02*
X95309282Y-149761666D01*
X95416425Y-149666428D01*
X95559282Y-149666428D01*
X95642616Y-149761666D01*
X95666425Y-149952142D01*
X95535473Y-150999761D01*
X97309282Y-148999761D02*
X97130711Y-150428333D01*
X97047377Y-150714047D01*
X96928330Y-150904523D01*
X96773568Y-150999761D01*
X96678330Y-150999761D01*
X97559282Y-150809285D02*
X97594997Y-150904523D01*
X97535473Y-150999761D01*
X97499758Y-150904523D01*
X97559282Y-150809285D01*
X97535473Y-150999761D01*
X98737854Y-150904523D02*
X98868806Y-150999761D01*
X99106901Y-150999761D01*
X99214044Y-150904523D01*
X99273568Y-150809285D01*
X99344997Y-150618809D01*
X99368806Y-150428333D01*
X99344997Y-150237857D01*
X99309282Y-150142619D01*
X99225949Y-150047380D01*
X99047377Y-149952142D01*
X98964044Y-149856904D01*
X98928330Y-149761666D01*
X98904520Y-149571190D01*
X98928330Y-149380714D01*
X98999758Y-149190238D01*
X99059282Y-149095000D01*
X99166425Y-148999761D01*
X99404520Y-148999761D01*
X99535473Y-149095000D01*
X100166425Y-150904523D02*
X100059282Y-150999761D01*
X99868806Y-150999761D01*
X99785473Y-150904523D01*
X99749758Y-150809285D01*
X99725949Y-150618809D01*
X99797377Y-150047380D01*
X99868806Y-149856904D01*
X99928330Y-149761666D01*
X100035473Y-149666428D01*
X100225949Y-149666428D01*
X100309282Y-149761666D01*
X100583092Y-150999761D02*
X100833092Y-148999761D01*
X101011663Y-150999761D02*
X101142616Y-149952142D01*
X101118806Y-149761666D01*
X101035473Y-149666428D01*
X100892616Y-149666428D01*
X100785473Y-149761666D01*
X100725949Y-149856904D01*
X102083092Y-149666428D02*
X101916425Y-150999761D01*
X101654520Y-149666428D02*
X101523568Y-150714047D01*
X101547377Y-150904523D01*
X101630711Y-150999761D01*
X101773568Y-150999761D01*
X101880711Y-150904523D01*
X101940235Y-150809285D01*
X102833092Y-150904523D02*
X102725949Y-150999761D01*
X102535473Y-150999761D01*
X102452139Y-150904523D01*
X102416425Y-150809285D01*
X102392616Y-150618809D01*
X102464044Y-150047380D01*
X102535473Y-149856904D01*
X102594997Y-149761666D01*
X102702139Y-149666428D01*
X102892616Y-149666428D01*
X102975949Y-149761666D01*
X103249758Y-150999761D02*
X103499758Y-148999761D01*
X103678330Y-150999761D02*
X103809282Y-149952142D01*
X103785473Y-149761666D01*
X103702139Y-149666428D01*
X103559282Y-149666428D01*
X103452139Y-149761666D01*
X103392616Y-149856904D01*
X104178330Y-149666428D02*
X104559282Y-149666428D01*
X104404520Y-148999761D02*
X104190235Y-150714047D01*
X104214044Y-150904523D01*
X104297377Y-150999761D01*
X104392616Y-150999761D01*
X106011663Y-150999761D02*
X105440235Y-150999761D01*
X105725949Y-150999761D02*
X105975949Y-148999761D01*
X105844997Y-149285476D01*
X105725949Y-149475952D01*
X105618806Y-149571190D01*
X106487854Y-150999761D02*
X106678330Y-150999761D01*
X106785473Y-150904523D01*
X106844997Y-150809285D01*
X106975949Y-150523571D01*
X107071187Y-150142619D01*
X107166425Y-149380714D01*
X107142616Y-149190238D01*
X107106901Y-149095000D01*
X107023568Y-148999761D01*
X106833092Y-148999761D01*
X106725949Y-149095000D01*
X106666425Y-149190238D01*
X106594997Y-149380714D01*
X106535473Y-149856904D01*
X106559282Y-150047380D01*
X106594997Y-150142619D01*
X106678330Y-150237857D01*
X106868806Y-150237857D01*
X106975949Y-150142619D01*
X107035473Y-150047380D01*
X107106901Y-149856904D01*
X107678330Y-149856904D02*
X107594997Y-149761666D01*
X107559282Y-149666428D01*
X107535473Y-149475952D01*
X107547377Y-149380714D01*
X107618806Y-149190238D01*
X107678330Y-149095000D01*
X107785473Y-148999761D01*
X107975949Y-148999761D01*
X108059282Y-149095000D01*
X108094997Y-149190238D01*
X108118806Y-149380714D01*
X108106901Y-149475952D01*
X108035473Y-149666428D01*
X107975949Y-149761666D01*
X107868806Y-149856904D01*
X107678330Y-149856904D01*
X107571187Y-149952142D01*
X107511663Y-150047380D01*
X107440235Y-150237857D01*
X107392616Y-150618809D01*
X107416425Y-150809285D01*
X107452139Y-150904523D01*
X107535473Y-150999761D01*
X107725949Y-150999761D01*
X107833092Y-150904523D01*
X107892616Y-150809285D01*
X107964044Y-150618809D01*
X108011663Y-150237857D01*
X107987854Y-150047380D01*
X107952139Y-149952142D01*
X107868806Y-149856904D01*
X108392616Y-150999761D02*
X108583092Y-150999761D01*
X108690235Y-150904523D01*
X108749758Y-150809285D01*
X108880711Y-150523571D01*
X108975949Y-150142619D01*
X109071187Y-149380714D01*
X109047377Y-149190238D01*
X109011663Y-149095000D01*
X108928330Y-148999761D01*
X108737854Y-148999761D01*
X108630711Y-149095000D01*
X108571187Y-149190238D01*
X108499758Y-149380714D01*
X108440235Y-149856904D01*
X108464044Y-150047380D01*
X108499758Y-150142619D01*
X108583092Y-150237857D01*
X108773568Y-150237857D01*
X108880711Y-150142619D01*
X108940235Y-150047380D01*
X109011663Y-149856904D01*
X110154520Y-150237857D02*
X110916425Y-150237857D01*
X112249758Y-151761666D02*
X112214044Y-151666428D01*
X112154520Y-151380714D01*
X112130711Y-151190238D01*
X112118806Y-150904523D01*
X112130711Y-150428333D01*
X112178330Y-150047380D01*
X112285473Y-149571190D01*
X112368806Y-149285476D01*
X112440235Y-149095000D01*
X112571187Y-148809285D01*
X112630711Y-148714047D01*
X113297377Y-150999761D02*
X113083092Y-150047380D01*
X112725949Y-150999761D02*
X112975949Y-148999761D01*
X113356901Y-148999761D01*
X113440235Y-149095000D01*
X113475949Y-149190238D01*
X113499758Y-149380714D01*
X113464044Y-149666428D01*
X113392616Y-149856904D01*
X113333092Y-149952142D01*
X113225949Y-150047380D01*
X112844997Y-150047380D01*
X114118806Y-150904523D02*
X114011663Y-150999761D01*
X113821187Y-150999761D01*
X113737854Y-150904523D01*
X113714044Y-150714047D01*
X113809282Y-149952142D01*
X113880711Y-149761666D01*
X113987854Y-149666428D01*
X114178330Y-149666428D01*
X114261663Y-149761666D01*
X114285473Y-149952142D01*
X114261663Y-150142619D01*
X113761663Y-150333095D01*
X115011663Y-150999761D02*
X115261663Y-148999761D01*
X115023568Y-150904523D02*
X114916425Y-150999761D01*
X114725949Y-150999761D01*
X114642616Y-150904523D01*
X114606901Y-150809285D01*
X114583092Y-150618809D01*
X114654520Y-150047380D01*
X114725949Y-149856904D01*
X114785473Y-149761666D01*
X114892616Y-149666428D01*
X115083092Y-149666428D01*
X115166425Y-149761666D01*
X115487854Y-150999761D02*
X115654520Y-149666428D01*
X115606901Y-150047380D02*
X115678330Y-149856904D01*
X115737854Y-149761666D01*
X115844997Y-149666428D01*
X115940235Y-149666428D01*
X116535473Y-150999761D02*
X116666425Y-149952142D01*
X116642616Y-149761666D01*
X116559282Y-149666428D01*
X116368806Y-149666428D01*
X116261663Y-149761666D01*
X116547377Y-150904523D02*
X116440235Y-150999761D01*
X116202139Y-150999761D01*
X116118806Y-150904523D01*
X116094997Y-150714047D01*
X116118806Y-150523571D01*
X116190235Y-150333095D01*
X116297377Y-150237857D01*
X116535473Y-150237857D01*
X116642616Y-150142619D01*
X117083092Y-149666428D02*
X117106901Y-150999761D01*
X117416425Y-150047380D01*
X117487854Y-150999761D01*
X117844997Y-149666428D01*
X118225949Y-149666428D02*
X118059282Y-150999761D01*
X118202139Y-149856904D02*
X118261663Y-149761666D01*
X118368806Y-149666428D01*
X118511663Y-149666428D01*
X118594997Y-149761666D01*
X118618806Y-149952142D01*
X118487854Y-150999761D01*
X119904520Y-149190238D02*
X119964044Y-149095000D01*
X120071187Y-148999761D01*
X120309282Y-148999761D01*
X120392616Y-149095000D01*
X120428330Y-149190238D01*
X120452139Y-149380714D01*
X120428330Y-149571190D01*
X120344997Y-149856904D01*
X119630711Y-150999761D01*
X120249758Y-150999761D01*
X121118806Y-148999761D02*
X121214044Y-148999761D01*
X121297377Y-149095000D01*
X121333092Y-149190238D01*
X121356901Y-149380714D01*
X121356901Y-149761666D01*
X121297377Y-150237857D01*
X121202139Y-150618809D01*
X121130711Y-150809285D01*
X121071187Y-150904523D01*
X120964044Y-150999761D01*
X120868806Y-150999761D01*
X120785473Y-150904523D01*
X120749758Y-150809285D01*
X120725949Y-150618809D01*
X120725949Y-150237857D01*
X120785473Y-149761666D01*
X120880711Y-149380714D01*
X120952139Y-149190238D01*
X121011663Y-149095000D01*
X121118806Y-148999761D01*
X121809282Y-149190238D02*
X121868806Y-149095000D01*
X121975949Y-148999761D01*
X122214044Y-148999761D01*
X122297377Y-149095000D01*
X122333092Y-149190238D01*
X122356901Y-149380714D01*
X122333092Y-149571190D01*
X122249758Y-149856904D01*
X121535473Y-150999761D01*
X122154520Y-150999761D01*
X122737854Y-148999761D02*
X123356901Y-148999761D01*
X122928330Y-149761666D01*
X123071187Y-149761666D01*
X123154520Y-149856904D01*
X123190235Y-149952142D01*
X123214044Y-150142619D01*
X123154520Y-150618809D01*
X123083092Y-150809285D01*
X123023568Y-150904523D01*
X122916425Y-150999761D01*
X122630711Y-150999761D01*
X122547377Y-150904523D01*
X122511663Y-150809285D01*
X123344997Y-151761666D02*
X123404520Y-151666428D01*
X123535473Y-151380714D01*
X123606901Y-151190238D01*
X123690235Y-150904523D01*
X123797377Y-150428333D01*
X123844997Y-150047380D01*
X123856901Y-149571190D01*
X123844997Y-149285476D01*
X123821187Y-149095000D01*
X123761663Y-148809285D01*
X123725949Y-148714047D01*
D12*
X85268107Y-136034642D02*
X84887154Y-136034642D01*
X84678821Y-136177500D01*
X84565726Y-136320357D01*
X84321678Y-136748928D01*
X84155011Y-137320357D01*
X84012154Y-138463214D01*
X84071678Y-138748928D01*
X84149059Y-138891785D01*
X84321678Y-139034642D01*
X84702630Y-139034642D01*
X84910964Y-138891785D01*
X85024059Y-138748928D01*
X85155011Y-138463214D01*
X85244297Y-137748928D01*
X85184773Y-137463214D01*
X85107392Y-137320357D01*
X84934773Y-137177500D01*
X84553821Y-137177500D01*
X84345488Y-137320357D01*
X84232392Y-137463214D01*
X84101440Y-137748928D01*
X87047869Y-137034642D02*
X86797869Y-139034642D01*
X86714535Y-135891785D02*
X85970488Y-138034642D01*
X87208583Y-138034642D01*
X88315726Y-136034642D02*
X88053821Y-136606071D01*
X89577630Y-138891785D02*
X89369297Y-139034642D01*
X88988345Y-139034642D01*
X88815726Y-138891785D01*
X88756202Y-138606071D01*
X88899059Y-137463214D01*
X89030011Y-137177500D01*
X89238345Y-137034642D01*
X89619297Y-137034642D01*
X89791916Y-137177500D01*
X89851440Y-137463214D01*
X89815726Y-137748928D01*
X88827630Y-138034642D01*
X90512154Y-139034642D02*
X90762154Y-137034642D01*
X90690726Y-137606071D02*
X90821678Y-137320357D01*
X90934773Y-137177500D01*
X91143107Y-137034642D01*
X91333583Y-137034642D01*
X93196678Y-138891785D02*
X93464535Y-139034642D01*
X93940726Y-139034642D01*
X94149059Y-138891785D01*
X94262154Y-138748928D01*
X94393107Y-138463214D01*
X94428821Y-138177500D01*
X94369297Y-137891785D01*
X94291916Y-137748928D01*
X94119297Y-137606071D01*
X93756202Y-137463214D01*
X93583583Y-137320357D01*
X93506202Y-137177500D01*
X93446678Y-136891785D01*
X93482392Y-136606071D01*
X93613345Y-136320357D01*
X93726440Y-136177500D01*
X93934773Y-136034642D01*
X94410964Y-136034642D01*
X94678821Y-136177500D01*
X96285964Y-137034642D02*
X96035964Y-139034642D01*
X95428821Y-137034642D02*
X95232392Y-138606071D01*
X95291916Y-138891785D01*
X95464535Y-139034642D01*
X95750249Y-139034642D01*
X95958583Y-138891785D01*
X96071678Y-138748928D01*
X97238345Y-137034642D02*
X96863345Y-140034642D01*
X97220488Y-137177500D02*
X97428821Y-137034642D01*
X97809773Y-137034642D01*
X97982392Y-137177500D01*
X98059773Y-137320357D01*
X98119297Y-137606071D01*
X98012154Y-138463214D01*
X97881202Y-138748928D01*
X97768107Y-138891785D01*
X97559773Y-139034642D01*
X97178821Y-139034642D01*
X97006202Y-138891785D01*
X99577630Y-138891785D02*
X99369297Y-139034642D01*
X98988345Y-139034642D01*
X98815726Y-138891785D01*
X98756202Y-138606071D01*
X98899059Y-137463214D01*
X99030011Y-137177500D01*
X99238345Y-137034642D01*
X99619297Y-137034642D01*
X99791916Y-137177500D01*
X99851440Y-137463214D01*
X99815726Y-137748928D01*
X98827630Y-138034642D01*
X100512154Y-139034642D02*
X100762154Y-137034642D01*
X100690726Y-137606071D02*
X100821678Y-137320357D01*
X100934773Y-137177500D01*
X101143107Y-137034642D01*
X101333583Y-137034642D01*
X101893107Y-137891785D02*
X103416916Y-137891785D01*
X105178821Y-139034642D02*
X104226440Y-139034642D01*
X104601440Y-136034642D01*
X106952630Y-137034642D02*
X106702630Y-139034642D01*
X106095488Y-137034642D02*
X105899059Y-138606071D01*
X105958583Y-138891785D01*
X106131202Y-139034642D01*
X106416916Y-139034642D01*
X106625250Y-138891785D01*
X106738345Y-138748928D01*
X107464535Y-139034642D02*
X108762154Y-137034642D01*
X107714535Y-137034642D02*
X108512154Y-139034642D01*
X110381202Y-137034642D02*
X110131202Y-139034642D01*
X109524059Y-137034642D02*
X109327630Y-138606071D01*
X109387154Y-138891785D01*
X109559773Y-139034642D01*
X109845488Y-139034642D01*
X110053821Y-138891785D01*
X110166916Y-138748928D01*
X111006202Y-138891785D02*
X111178821Y-139034642D01*
X111559773Y-139034642D01*
X111768107Y-138891785D01*
X111899059Y-138606071D01*
X111916916Y-138463214D01*
X111857392Y-138177500D01*
X111684773Y-138034642D01*
X111399059Y-138034642D01*
X111226440Y-137891785D01*
X111166916Y-137606071D01*
X111184773Y-137463214D01*
X111315726Y-137177500D01*
X111524059Y-137034642D01*
X111809773Y-137034642D01*
X111982392Y-137177500D01*
X85976440Y-143648928D02*
X85863345Y-143791785D01*
X85559773Y-143934642D01*
X85369297Y-143934642D01*
X85101440Y-143791785D01*
X84946678Y-143506071D01*
X84887154Y-143220357D01*
X84863345Y-142648928D01*
X84916916Y-142220357D01*
X85083583Y-141648928D01*
X85214535Y-141363214D01*
X85440726Y-141077500D01*
X85744297Y-140934642D01*
X85934773Y-140934642D01*
X86202630Y-141077500D01*
X86280011Y-141220357D01*
X86797869Y-143934642D02*
X87172869Y-140934642D01*
X87571678Y-143077500D01*
X88506202Y-140934642D01*
X88131202Y-143934642D01*
X89839535Y-140934642D02*
X90220488Y-140934642D01*
X90393107Y-141077500D01*
X90547869Y-141363214D01*
X90571678Y-141934642D01*
X90446678Y-142934642D01*
X90280011Y-143506071D01*
X90053821Y-143791785D01*
X89845488Y-143934642D01*
X89464535Y-143934642D01*
X89291916Y-143791785D01*
X89137154Y-143506071D01*
X89113345Y-142934642D01*
X89238345Y-141934642D01*
X89405011Y-141363214D01*
X89631202Y-141077500D01*
X89839535Y-140934642D01*
X91101440Y-143791785D02*
X91369297Y-143934642D01*
X91845488Y-143934642D01*
X92053821Y-143791785D01*
X92166916Y-143648928D01*
X92297869Y-143363214D01*
X92333583Y-143077500D01*
X92274059Y-142791785D01*
X92196678Y-142648928D01*
X92024059Y-142506071D01*
X91660964Y-142363214D01*
X91488345Y-142220357D01*
X91410964Y-142077500D01*
X91351440Y-141791785D01*
X91387154Y-141506071D01*
X91518107Y-141220357D01*
X91631202Y-141077500D01*
X91839535Y-140934642D01*
X92315726Y-140934642D01*
X92583583Y-141077500D01*
X93226440Y-142791785D02*
X94750250Y-142791785D01*
X96702630Y-143934642D02*
X96214535Y-142506071D01*
X95559773Y-143934642D02*
X95934773Y-140934642D01*
X96696678Y-140934642D01*
X96869297Y-141077500D01*
X96946678Y-141220357D01*
X97006202Y-141506071D01*
X96952630Y-141934642D01*
X96821678Y-142220357D01*
X96708583Y-142363214D01*
X96500250Y-142506071D01*
X95738345Y-142506071D01*
X97571678Y-143077500D02*
X98524059Y-143077500D01*
X97274059Y-143934642D02*
X98315726Y-140934642D01*
X98607392Y-143934642D01*
X99274059Y-143934642D02*
X99649059Y-140934642D01*
X100047869Y-143077500D01*
X100982392Y-140934642D01*
X100607392Y-143934642D01*
X101702630Y-142791785D02*
X103226440Y-142791785D01*
X104035964Y-143934642D02*
X104410964Y-140934642D01*
X105178821Y-143934642D02*
X104535964Y-142220357D01*
X105553821Y-140934642D02*
X104196678Y-142648928D01*
X106893107Y-143934642D02*
X107089535Y-142363214D01*
X107030011Y-142077500D01*
X106857392Y-141934642D01*
X106476440Y-141934642D01*
X106268107Y-142077500D01*
X106910964Y-143791785D02*
X106702630Y-143934642D01*
X106226440Y-143934642D01*
X106053821Y-143791785D01*
X105994297Y-143506071D01*
X106030011Y-143220357D01*
X106160964Y-142934642D01*
X106369297Y-142791785D01*
X106845488Y-142791785D01*
X107053821Y-142648928D01*
X107845488Y-143934642D02*
X108095488Y-141934642D01*
X108024059Y-142506071D02*
X108155011Y-142220357D01*
X108268107Y-142077500D01*
X108476440Y-141934642D01*
X108666916Y-141934642D01*
X109047869Y-141934642D02*
X109809773Y-141934642D01*
X109458583Y-140934642D02*
X109137154Y-143506071D01*
X109196678Y-143791785D01*
X109369297Y-143934642D01*
X109559773Y-143934642D01*
X111006202Y-143791785D02*
X110797869Y-143934642D01*
X110416916Y-143934642D01*
X110244297Y-143791785D01*
X110184773Y-143506071D01*
X110327630Y-142363214D01*
X110458583Y-142077500D01*
X110666916Y-141934642D01*
X111047869Y-141934642D01*
X111220488Y-142077500D01*
X111280011Y-142363214D01*
X111244297Y-142648928D01*
X110256202Y-142934642D01*
D13*
X104714001Y-29140001D02*
X104714001Y-47040001D01*
X140514001Y-29140001D02*
X104714001Y-29140001D01*
X140514001Y-47040001D02*
X140514001Y-29140001D01*
X104714001Y-47040001D02*
X140514001Y-47040001D01*
X104774001Y-31630001D02*
X104774001Y-37090001D01*
X140454001Y-31630001D02*
X104774001Y-31630001D01*
X140454001Y-44550001D02*
X140454001Y-31630001D01*
X104774001Y-44550001D02*
X140454001Y-44550001D01*
X104774001Y-39090001D02*
X104774001Y-44550001D01*
X104774001Y-37090001D02*
G75*
G02*
X104774001Y-39090001I0J-1000000D01*
G01*
X156432998Y-29140001D02*
X156432998Y-47040001D01*
X192232998Y-29140001D02*
X156432998Y-29140001D01*
X192232998Y-47040001D02*
X192232998Y-29140001D01*
X156432998Y-47040001D02*
X192232998Y-47040001D01*
X156492998Y-31630001D02*
X156492998Y-37090001D01*
X192172998Y-31630001D02*
X156492998Y-31630001D01*
X192172998Y-44550001D02*
X192172998Y-31630001D01*
X156492998Y-44550001D02*
X192172998Y-44550001D01*
X156492998Y-39090001D02*
X156492998Y-44550001D01*
X156492998Y-37090001D02*
G75*
G02*
X156492998Y-39090001I0J-1000000D01*
G01*
X99219999Y-86075000D02*
X99219999Y-88875000D01*
X119709999Y-86075000D02*
X96509999Y-86075000D01*
X119709999Y-88875000D02*
X119709999Y-86075000D01*
X96509999Y-88875000D02*
X119709999Y-88875000D01*
X96509999Y-86075000D02*
X96509999Y-88875000D01*
X215579000Y-116470000D02*
X209879000Y-116470000D01*
X215579000Y-116470000D02*
X215579000Y-122470000D01*
X215579000Y-122470000D02*
X209879000Y-122470000D01*
X209127246Y-122996384D02*
G75*
G02*
X209879000Y-122470000I751754J-273616D01*
G01*
X186683329Y-119424719D02*
G75*
G03*
X209129000Y-122970000I11495671J-45281D01*
G01*
X209127246Y-115943616D02*
G75*
G03*
X209879000Y-116470000I751754J273616D01*
G01*
X186683329Y-119515281D02*
G75*
G02*
X209129000Y-115970000I11495671J45281D01*
G01*
X199494000Y-35080000D02*
X199494000Y-36580000D01*
X200744000Y-39080000D02*
X205244000Y-39080000D01*
X206494000Y-36580000D02*
X206494000Y-35080000D01*
X205244000Y-32580000D02*
X200744000Y-32580000D01*
X90649000Y-48490000D02*
X86109000Y-48490000D01*
X90649000Y-46350000D02*
X86109000Y-46350000D01*
X90649000Y-48490000D02*
X90649000Y-48475000D01*
X90649000Y-46365000D02*
X90649000Y-46350000D01*
X86109000Y-48490000D02*
X86109000Y-48475000D01*
X86109000Y-46365000D02*
X86109000Y-46350000D01*
X124589000Y-115270000D02*
X124589000Y-115285000D01*
X124589000Y-113145000D02*
X124589000Y-113160000D01*
X120049000Y-115270000D02*
X120049000Y-115285000D01*
X120049000Y-113145000D02*
X120049000Y-113160000D01*
X120049000Y-115285000D02*
X124589000Y-115285000D01*
X120049000Y-113145000D02*
X124589000Y-113145000D01*
X209769000Y-101910000D02*
X209769000Y-102390000D01*
X209769000Y-102390000D02*
X201929000Y-102390000D01*
X201929000Y-102390000D02*
X201929000Y-101910000D01*
X209769000Y-99030000D02*
X209769000Y-98550000D01*
X209769000Y-98550000D02*
X201929000Y-98550000D01*
X201929000Y-98550000D02*
X201929000Y-99030000D01*
X208509000Y-102390000D02*
X208509000Y-98550000D01*
X208389000Y-102390000D02*
X208389000Y-98550000D01*
X208629000Y-102390000D02*
X208629000Y-98550000D01*
X173759000Y-121445000D02*
X177599000Y-121445000D01*
X173759000Y-121205000D02*
X177599000Y-121205000D01*
X173759000Y-121325000D02*
X177599000Y-121325000D01*
X177599000Y-114745000D02*
X177119000Y-114745000D01*
X177599000Y-122585000D02*
X177599000Y-114745000D01*
X177119000Y-122585000D02*
X177599000Y-122585000D01*
X173759000Y-114745000D02*
X174239000Y-114745000D01*
X173759000Y-122585000D02*
X173759000Y-114745000D01*
X174239000Y-122585000D02*
X173759000Y-122585000D01*
X184124000Y-115565000D02*
X183794000Y-115565000D01*
X184124000Y-122105000D02*
X184124000Y-115565000D01*
X183794000Y-122105000D02*
X184124000Y-122105000D01*
X181384000Y-115565000D02*
X181714000Y-115565000D01*
X181384000Y-122105000D02*
X181384000Y-115565000D01*
X181714000Y-122105000D02*
X181384000Y-122105000D01*
X201944000Y-90500000D02*
X201944000Y-89170000D01*
X203274000Y-90500000D02*
X201944000Y-90500000D01*
X204544000Y-90500000D02*
X204544000Y-87840000D01*
X204544000Y-87840000D02*
X209684000Y-87840000D01*
X204544000Y-90500000D02*
X209684000Y-90500000D01*
X209684000Y-90500000D02*
X209684000Y-87840000D01*
X94429000Y-115335000D02*
X94429000Y-125615000D01*
X112449000Y-115335000D02*
X94429000Y-115335000D01*
X112449000Y-125615000D02*
X112449000Y-115335000D01*
X94429000Y-125615000D02*
X112449000Y-125615000D01*
X94489000Y-117825000D02*
X94489000Y-119475000D01*
X112389000Y-117825000D02*
X94489000Y-117825000D01*
X112389000Y-123125000D02*
X112389000Y-117825000D01*
X94489000Y-123125000D02*
X112389000Y-123125000D01*
X94489000Y-121475000D02*
X94489000Y-123125000D01*
X94489000Y-119475000D02*
G75*
G02*
X94489000Y-121475000I0J-1000000D01*
G01*
X120049000Y-118125000D02*
X124589000Y-118125000D01*
X120049000Y-120265000D02*
X124589000Y-120265000D01*
X120049000Y-118125000D02*
X120049000Y-118140000D01*
X120049000Y-120250000D02*
X120049000Y-120265000D01*
X124589000Y-118125000D02*
X124589000Y-118140000D01*
X124589000Y-120250000D02*
X124589000Y-120265000D01*
X211309000Y-112800000D02*
X211639000Y-112800000D01*
X211309000Y-106260000D02*
X211309000Y-112800000D01*
X211639000Y-106260000D02*
X211309000Y-106260000D01*
X214049000Y-112800000D02*
X213719000Y-112800000D01*
X214049000Y-106260000D02*
X214049000Y-112800000D01*
X213719000Y-106260000D02*
X214049000Y-106260000D01*
X85419000Y-79680000D02*
X85419000Y-79350000D01*
X85419000Y-79350000D02*
X91959000Y-79350000D01*
X91959000Y-79350000D02*
X91959000Y-79680000D01*
X85419000Y-81760000D02*
X85419000Y-82090000D01*
X85419000Y-82090000D02*
X91959000Y-82090000D01*
X91959000Y-82090000D02*
X91959000Y-81760000D01*
X95339000Y-82045000D02*
X98139000Y-82045000D01*
X98139000Y-82045000D02*
X98139000Y-58845000D01*
X98139000Y-58845000D02*
X95339000Y-58845000D01*
X95339000Y-58845000D02*
X95339000Y-82045000D01*
X95339000Y-79335000D02*
X98139000Y-79335000D01*
X98370000Y-32250000D02*
X98370000Y-33580000D01*
X97040000Y-32250000D02*
X98370000Y-32250000D01*
X95770000Y-32250000D02*
X95770000Y-34910000D01*
X95770000Y-34910000D02*
X90630000Y-34910000D01*
X95770000Y-32250000D02*
X90630000Y-32250000D01*
X90630000Y-32250000D02*
X90630000Y-34910000D01*
X87439000Y-56415000D02*
X85789000Y-56415000D01*
X85789000Y-56415000D02*
X85789000Y-76855000D01*
X85789000Y-76855000D02*
X91089000Y-76855000D01*
X91089000Y-76855000D02*
X91089000Y-56415000D01*
X91089000Y-56415000D02*
X89439000Y-56415000D01*
X83299000Y-56355000D02*
X83299000Y-76915000D01*
X83299000Y-76915000D02*
X93579000Y-76915000D01*
X93579000Y-76915000D02*
X93579000Y-56355000D01*
X93579000Y-56355000D02*
X83299000Y-56355000D01*
X89439000Y-56415000D02*
G75*
G02*
X87439000Y-56415000I-1000000J0D01*
G01*
X133219000Y-109215000D02*
X133219000Y-127115000D01*
X169019000Y-109215000D02*
X133219000Y-109215000D01*
X169019000Y-127115000D02*
X169019000Y-109215000D01*
X133219000Y-127115000D02*
X169019000Y-127115000D01*
X133279000Y-111705000D02*
X133279000Y-117165000D01*
X168959000Y-111705000D02*
X133279000Y-111705000D01*
X168959000Y-124625000D02*
X168959000Y-111705000D01*
X133279000Y-124625000D02*
X168959000Y-124625000D01*
X133279000Y-119165000D02*
X133279000Y-124625000D01*
X133279000Y-117165000D02*
G75*
G02*
X133279000Y-119165000I0J-1000000D01*
G01*
X139979999Y-107590000D02*
X139979999Y-89690000D01*
X88939999Y-107590000D02*
X139979999Y-107590000D01*
X88939999Y-89690000D02*
X88939999Y-107590000D01*
X139979999Y-89690000D02*
X88939999Y-89690000D01*
X139919999Y-105100000D02*
X139919999Y-99640000D01*
X88999999Y-105100000D02*
X139919999Y-105100000D01*
X88999999Y-92180000D02*
X88999999Y-105100000D01*
X139919999Y-92180000D02*
X88999999Y-92180000D01*
X139919999Y-97640000D02*
X139919999Y-92180000D01*
X139919999Y-99640000D02*
G75*
G02*
X139919999Y-97640000I0J1000000D01*
G01*
X194359000Y-97640000D02*
X194359000Y-92180000D01*
X194359000Y-92180000D02*
X143439000Y-92180000D01*
X143439000Y-92180000D02*
X143439000Y-105100000D01*
X143439000Y-105100000D02*
X194359000Y-105100000D01*
X194359000Y-105100000D02*
X194359000Y-99640000D01*
X194419000Y-89690000D02*
X143379000Y-89690000D01*
X143379000Y-89690000D02*
X143379000Y-107590000D01*
X143379000Y-107590000D02*
X194419000Y-107590000D01*
X194419000Y-107590000D02*
X194419000Y-89690000D01*
X194359000Y-99640000D02*
G75*
G02*
X194359000Y-97640000I0J1000000D01*
G01*
X117594001Y-48860001D02*
X99694001Y-48860001D01*
X117594001Y-84660001D02*
X117594001Y-48860001D01*
X99694001Y-84660001D02*
X117594001Y-84660001D01*
X99694001Y-48860001D02*
X99694001Y-84660001D01*
X115104001Y-48920001D02*
X109644001Y-48920001D01*
X115104001Y-84600001D02*
X115104001Y-48920001D01*
X102184001Y-84600001D02*
X115104001Y-84600001D01*
X102184001Y-48920001D02*
X102184001Y-84600001D01*
X107644001Y-48920001D02*
X102184001Y-48920001D01*
X109644001Y-48920001D02*
G75*
G02*
X107644001Y-48920001I-1000000J0D01*
G01*
X126577000Y-48920001D02*
X121117000Y-48920001D01*
X121117000Y-48920001D02*
X121117000Y-84600001D01*
X121117000Y-84600001D02*
X134037000Y-84600001D01*
X134037000Y-84600001D02*
X134037000Y-48920001D01*
X134037000Y-48920001D02*
X128577000Y-48920001D01*
X118627000Y-48860001D02*
X118627000Y-84660001D01*
X118627000Y-84660001D02*
X136527000Y-84660001D01*
X136527000Y-84660001D02*
X136527000Y-48860001D01*
X136527000Y-48860001D02*
X118627000Y-48860001D01*
X128577000Y-48920001D02*
G75*
G02*
X126577000Y-48920001I-1000000J0D01*
G01*
X155459999Y-48860001D02*
X137559999Y-48860001D01*
X155459999Y-84660001D02*
X155459999Y-48860001D01*
X137559999Y-84660001D02*
X155459999Y-84660001D01*
X137559999Y-48860001D02*
X137559999Y-84660001D01*
X152969999Y-48920001D02*
X147509999Y-48920001D01*
X152969999Y-84600001D02*
X152969999Y-48920001D01*
X140049999Y-84600001D02*
X152969999Y-84600001D01*
X140049999Y-48920001D02*
X140049999Y-84600001D01*
X145509999Y-48920001D02*
X140049999Y-48920001D01*
X147509999Y-48920001D02*
G75*
G02*
X145509999Y-48920001I-1000000J0D01*
G01*
X164442998Y-48920001D02*
X158982998Y-48920001D01*
X158982998Y-48920001D02*
X158982998Y-84600001D01*
X158982998Y-84600001D02*
X171902998Y-84600001D01*
X171902998Y-84600001D02*
X171902998Y-48920001D01*
X171902998Y-48920001D02*
X166442998Y-48920001D01*
X156492998Y-48860001D02*
X156492998Y-84660001D01*
X156492998Y-84660001D02*
X174392998Y-84660001D01*
X174392998Y-84660001D02*
X174392998Y-48860001D01*
X174392998Y-48860001D02*
X156492998Y-48860001D01*
X166442998Y-48920001D02*
G75*
G02*
X164442998Y-48920001I-1000000J0D01*
G01*
X193325997Y-48860001D02*
X175425997Y-48860001D01*
X193325997Y-84660001D02*
X193325997Y-48860001D01*
X175425997Y-84660001D02*
X193325997Y-84660001D01*
X175425997Y-48860001D02*
X175425997Y-84660001D01*
X190835997Y-48920001D02*
X185375997Y-48920001D01*
X190835997Y-84600001D02*
X190835997Y-48920001D01*
X177915997Y-84600001D02*
X190835997Y-84600001D01*
X177915997Y-48920001D02*
X177915997Y-84600001D01*
X183375997Y-48920001D02*
X177915997Y-48920001D01*
X185375997Y-48920001D02*
G75*
G02*
X183375997Y-48920001I-1000000J0D01*
G01*
X202309000Y-48985000D02*
X196849000Y-48985000D01*
X196849000Y-48985000D02*
X196849000Y-84665000D01*
X196849000Y-84665000D02*
X209769000Y-84665000D01*
X209769000Y-84665000D02*
X209769000Y-48985000D01*
X209769000Y-48985000D02*
X204309000Y-48985000D01*
X194359000Y-48925000D02*
X194359000Y-84725000D01*
X194359000Y-84725000D02*
X212259000Y-84725000D01*
X212259000Y-84725000D02*
X212259000Y-48925000D01*
X212259000Y-48925000D02*
X194359000Y-48925000D01*
X204309000Y-48985000D02*
G75*
G02*
X202309000Y-48985000I-1000000J0D01*
G01*
D14*
X108306381Y-39328096D02*
X109115905Y-39328096D01*
X109211143Y-39280477D01*
X109258762Y-39232858D01*
X109306381Y-39137620D01*
X109306381Y-38947143D01*
X109258762Y-38851905D01*
X109211143Y-38804286D01*
X109115905Y-38756667D01*
X108306381Y-38756667D01*
X109306381Y-37756667D02*
X109306381Y-38328096D01*
X109306381Y-38042381D02*
X108306381Y-38042381D01*
X108449239Y-38137620D01*
X108544477Y-38232858D01*
X108592096Y-38328096D01*
X108306381Y-37423334D02*
X108306381Y-36804286D01*
X108687334Y-37137620D01*
X108687334Y-36994762D01*
X108734953Y-36899524D01*
X108782572Y-36851905D01*
X108877810Y-36804286D01*
X109115905Y-36804286D01*
X109211143Y-36851905D01*
X109258762Y-36899524D01*
X109306381Y-36994762D01*
X109306381Y-37280477D01*
X109258762Y-37375715D01*
X109211143Y-37423334D01*
X160025378Y-39328096D02*
X160834902Y-39328096D01*
X160930140Y-39280477D01*
X160977759Y-39232858D01*
X161025378Y-39137620D01*
X161025378Y-38947143D01*
X160977759Y-38851905D01*
X160930140Y-38804286D01*
X160834902Y-38756667D01*
X160025378Y-38756667D01*
X161025378Y-37756667D02*
X161025378Y-38328096D01*
X161025378Y-38042381D02*
X160025378Y-38042381D01*
X160168236Y-38137620D01*
X160263474Y-38232858D01*
X160311093Y-38328096D01*
X160120617Y-37375715D02*
X160072998Y-37328096D01*
X160025378Y-37232858D01*
X160025378Y-36994762D01*
X160072998Y-36899524D01*
X160120617Y-36851905D01*
X160215855Y-36804286D01*
X160311093Y-36804286D01*
X160453950Y-36851905D01*
X161025378Y-37423334D01*
X161025378Y-36804286D01*
X108689522Y-85527380D02*
X108356189Y-85051190D01*
X108118094Y-85527380D02*
X108118094Y-84527380D01*
X108499046Y-84527380D01*
X108594284Y-84575000D01*
X108641903Y-84622619D01*
X108689522Y-84717857D01*
X108689522Y-84860714D01*
X108641903Y-84955952D01*
X108594284Y-85003571D01*
X108499046Y-85051190D01*
X108118094Y-85051190D01*
X109118094Y-85527380D02*
X109118094Y-84527380D01*
X109689522Y-85527380D01*
X109689522Y-84527380D01*
X110118094Y-84622619D02*
X110165713Y-84575000D01*
X110260951Y-84527380D01*
X110499046Y-84527380D01*
X110594284Y-84575000D01*
X110641903Y-84622619D01*
X110689522Y-84717857D01*
X110689522Y-84813095D01*
X110641903Y-84955952D01*
X110070475Y-85527380D01*
X110689522Y-85527380D01*
X210057571Y-119577142D02*
X211200428Y-119577142D01*
X210629000Y-120148571D02*
X210629000Y-119005714D01*
X201660666Y-37944761D02*
X201803523Y-37992380D01*
X202041619Y-37992380D01*
X202136857Y-37944761D01*
X202184476Y-37897142D01*
X202232095Y-37801904D01*
X202232095Y-37706666D01*
X202184476Y-37611428D01*
X202136857Y-37563809D01*
X202041619Y-37516190D01*
X201851142Y-37468571D01*
X201755904Y-37420952D01*
X201708285Y-37373333D01*
X201660666Y-37278095D01*
X201660666Y-37182857D01*
X201708285Y-37087619D01*
X201755904Y-37040000D01*
X201851142Y-36992380D01*
X202089238Y-36992380D01*
X202232095Y-37040000D01*
X202565428Y-36992380D02*
X202803523Y-37992380D01*
X202994000Y-37278095D01*
X203184476Y-37992380D01*
X203422571Y-36992380D01*
X203755904Y-37087619D02*
X203803523Y-37040000D01*
X203898761Y-36992380D01*
X204136857Y-36992380D01*
X204232095Y-37040000D01*
X204279714Y-37087619D01*
X204327333Y-37182857D01*
X204327333Y-37278095D01*
X204279714Y-37420952D01*
X203708285Y-37992380D01*
X204327333Y-37992380D01*
X88212333Y-49977142D02*
X88164714Y-50024761D01*
X88021857Y-50072380D01*
X87926619Y-50072380D01*
X87783761Y-50024761D01*
X87688523Y-49929523D01*
X87640904Y-49834285D01*
X87593285Y-49643809D01*
X87593285Y-49500952D01*
X87640904Y-49310476D01*
X87688523Y-49215238D01*
X87783761Y-49120000D01*
X87926619Y-49072380D01*
X88021857Y-49072380D01*
X88164714Y-49120000D01*
X88212333Y-49167619D01*
X89164714Y-50072380D02*
X88593285Y-50072380D01*
X88879000Y-50072380D02*
X88879000Y-49072380D01*
X88783761Y-49215238D01*
X88688523Y-49310476D01*
X88593285Y-49358095D01*
X122152333Y-112372142D02*
X122104714Y-112419761D01*
X121961857Y-112467380D01*
X121866619Y-112467380D01*
X121723761Y-112419761D01*
X121628523Y-112324523D01*
X121580904Y-112229285D01*
X121533285Y-112038809D01*
X121533285Y-111895952D01*
X121580904Y-111705476D01*
X121628523Y-111610238D01*
X121723761Y-111515000D01*
X121866619Y-111467380D01*
X121961857Y-111467380D01*
X122104714Y-111515000D01*
X122152333Y-111562619D01*
X122533285Y-111562619D02*
X122580904Y-111515000D01*
X122676142Y-111467380D01*
X122914238Y-111467380D01*
X123009476Y-111515000D01*
X123057095Y-111562619D01*
X123104714Y-111657857D01*
X123104714Y-111753095D01*
X123057095Y-111895952D01*
X122485666Y-112467380D01*
X123104714Y-112467380D01*
X205110904Y-103842380D02*
X205110904Y-102842380D01*
X205349000Y-102842380D01*
X205491857Y-102890000D01*
X205587095Y-102985238D01*
X205634714Y-103080476D01*
X205682333Y-103270952D01*
X205682333Y-103413809D01*
X205634714Y-103604285D01*
X205587095Y-103699523D01*
X205491857Y-103794761D01*
X205349000Y-103842380D01*
X205110904Y-103842380D01*
X206634714Y-103842380D02*
X206063285Y-103842380D01*
X206349000Y-103842380D02*
X206349000Y-102842380D01*
X206253761Y-102985238D01*
X206158523Y-103080476D01*
X206063285Y-103128095D01*
X210667095Y-103122380D02*
X210667095Y-102122380D01*
X211238523Y-103122380D02*
X210809952Y-102550952D01*
X211238523Y-102122380D02*
X210667095Y-102693809D01*
X173211380Y-119403095D02*
X172211380Y-119403095D01*
X172211380Y-119165000D01*
X172259000Y-119022142D01*
X172354238Y-118926904D01*
X172449476Y-118879285D01*
X172639952Y-118831666D01*
X172782809Y-118831666D01*
X172973285Y-118879285D01*
X173068523Y-118926904D01*
X173163761Y-119022142D01*
X173211380Y-119165000D01*
X173211380Y-119403095D01*
X172306619Y-118450714D02*
X172259000Y-118403095D01*
X172211380Y-118307857D01*
X172211380Y-118069761D01*
X172259000Y-117974523D01*
X172306619Y-117926904D01*
X172401857Y-117879285D01*
X172497095Y-117879285D01*
X172639952Y-117926904D01*
X173211380Y-118498333D01*
X173211380Y-117879285D01*
X173931380Y-124006904D02*
X172931380Y-124006904D01*
X173931380Y-123435476D02*
X173359952Y-123864047D01*
X172931380Y-123435476D02*
X173502809Y-124006904D01*
X180836380Y-119001666D02*
X180360190Y-119335000D01*
X180836380Y-119573095D02*
X179836380Y-119573095D01*
X179836380Y-119192142D01*
X179884000Y-119096904D01*
X179931619Y-119049285D01*
X180026857Y-119001666D01*
X180169714Y-119001666D01*
X180264952Y-119049285D01*
X180312571Y-119096904D01*
X180360190Y-119192142D01*
X180360190Y-119573095D01*
X180836380Y-118049285D02*
X180836380Y-118620714D01*
X180836380Y-118335000D02*
X179836380Y-118335000D01*
X179979238Y-118430238D01*
X180074476Y-118525476D01*
X180122095Y-118620714D01*
X96481380Y-121236904D02*
X97290904Y-121236904D01*
X97386142Y-121189285D01*
X97433761Y-121141666D01*
X97481380Y-121046428D01*
X97481380Y-120855952D01*
X97433761Y-120760714D01*
X97386142Y-120713095D01*
X97290904Y-120665476D01*
X96481380Y-120665476D01*
X96576619Y-120236904D02*
X96529000Y-120189285D01*
X96481380Y-120094047D01*
X96481380Y-119855952D01*
X96529000Y-119760714D01*
X96576619Y-119713095D01*
X96671857Y-119665476D01*
X96767095Y-119665476D01*
X96909952Y-119713095D01*
X97481380Y-120284523D01*
X97481380Y-119665476D01*
X121247571Y-117447380D02*
X120676142Y-117447380D01*
X120961857Y-117447380D02*
X120961857Y-116447380D01*
X120866619Y-116590238D01*
X120771380Y-116685476D01*
X120676142Y-116733095D01*
X121676142Y-116780714D02*
X121676142Y-117447380D01*
X121676142Y-116875952D02*
X121723761Y-116828333D01*
X121819000Y-116780714D01*
X121961857Y-116780714D01*
X122057095Y-116828333D01*
X122104714Y-116923571D01*
X122104714Y-117447380D01*
X122914238Y-116923571D02*
X122580904Y-116923571D01*
X122580904Y-117447380D02*
X122580904Y-116447380D01*
X123057095Y-116447380D01*
X123961857Y-117447380D02*
X123390428Y-117447380D01*
X123676142Y-117447380D02*
X123676142Y-116447380D01*
X123580904Y-116590238D01*
X123485666Y-116685476D01*
X123390428Y-116733095D01*
X215501380Y-109696666D02*
X215025190Y-110030000D01*
X215501380Y-110268095D02*
X214501380Y-110268095D01*
X214501380Y-109887142D01*
X214549000Y-109791904D01*
X214596619Y-109744285D01*
X214691857Y-109696666D01*
X214834714Y-109696666D01*
X214929952Y-109744285D01*
X214977571Y-109791904D01*
X215025190Y-109887142D01*
X215025190Y-110268095D01*
X214596619Y-109315714D02*
X214549000Y-109268095D01*
X214501380Y-109172857D01*
X214501380Y-108934761D01*
X214549000Y-108839523D01*
X214596619Y-108791904D01*
X214691857Y-108744285D01*
X214787095Y-108744285D01*
X214929952Y-108791904D01*
X215501380Y-109363333D01*
X215501380Y-108744285D01*
X88522333Y-78802380D02*
X88189000Y-78326190D01*
X87950904Y-78802380D02*
X87950904Y-77802380D01*
X88331857Y-77802380D01*
X88427095Y-77850000D01*
X88474714Y-77897619D01*
X88522333Y-77992857D01*
X88522333Y-78135714D01*
X88474714Y-78230952D01*
X88427095Y-78278571D01*
X88331857Y-78326190D01*
X87950904Y-78326190D01*
X88855666Y-77802380D02*
X89474714Y-77802380D01*
X89141380Y-78183333D01*
X89284238Y-78183333D01*
X89379476Y-78230952D01*
X89427095Y-78278571D01*
X89474714Y-78373809D01*
X89474714Y-78611904D01*
X89427095Y-78707142D01*
X89379476Y-78754761D01*
X89284238Y-78802380D01*
X88998523Y-78802380D01*
X88903285Y-78754761D01*
X88855666Y-78707142D01*
X97156380Y-57235476D02*
X96680190Y-57568809D01*
X97156380Y-57806904D02*
X96156380Y-57806904D01*
X96156380Y-57425952D01*
X96204000Y-57330714D01*
X96251619Y-57283095D01*
X96346857Y-57235476D01*
X96489714Y-57235476D01*
X96584952Y-57283095D01*
X96632571Y-57330714D01*
X96680190Y-57425952D01*
X96680190Y-57806904D01*
X97156380Y-56806904D02*
X96156380Y-56806904D01*
X97156380Y-56235476D01*
X96156380Y-56235476D01*
X97156380Y-55235476D02*
X97156380Y-55806904D01*
X97156380Y-55521190D02*
X96156380Y-55521190D01*
X96299238Y-55616428D01*
X96394476Y-55711666D01*
X96442095Y-55806904D01*
X87677095Y-58407380D02*
X87677095Y-59216904D01*
X87724714Y-59312142D01*
X87772333Y-59359761D01*
X87867571Y-59407380D01*
X88058047Y-59407380D01*
X88153285Y-59359761D01*
X88200904Y-59312142D01*
X88248523Y-59216904D01*
X88248523Y-58407380D01*
X89200904Y-58407380D02*
X88724714Y-58407380D01*
X88677095Y-58883571D01*
X88724714Y-58835952D01*
X88819952Y-58788333D01*
X89058047Y-58788333D01*
X89153285Y-58835952D01*
X89200904Y-58883571D01*
X89248523Y-58978809D01*
X89248523Y-59216904D01*
X89200904Y-59312142D01*
X89153285Y-59359761D01*
X89058047Y-59407380D01*
X88819952Y-59407380D01*
X88724714Y-59359761D01*
X88677095Y-59312142D01*
X136811380Y-118926904D02*
X137620904Y-118926904D01*
X137716142Y-118879285D01*
X137763761Y-118831666D01*
X137811380Y-118736428D01*
X137811380Y-118545952D01*
X137763761Y-118450714D01*
X137716142Y-118403095D01*
X137620904Y-118355476D01*
X136811380Y-118355476D01*
X137811380Y-117355476D02*
X137811380Y-117926904D01*
X137811380Y-117641190D02*
X136811380Y-117641190D01*
X136954238Y-117736428D01*
X137049476Y-117831666D01*
X137097095Y-117926904D01*
X135292379Y-99401904D02*
X136101903Y-99401904D01*
X136197141Y-99354285D01*
X136244760Y-99306666D01*
X136292379Y-99211428D01*
X136292379Y-99020952D01*
X136244760Y-98925714D01*
X136197141Y-98878095D01*
X136101903Y-98830476D01*
X135292379Y-98830476D01*
X135292379Y-98449523D02*
X135292379Y-97830476D01*
X135673332Y-98163809D01*
X135673332Y-98020952D01*
X135720951Y-97925714D01*
X135768570Y-97878095D01*
X135863808Y-97830476D01*
X136101903Y-97830476D01*
X136197141Y-97878095D01*
X136244760Y-97925714D01*
X136292379Y-98020952D01*
X136292379Y-98306666D01*
X136244760Y-98401904D01*
X136197141Y-98449523D01*
X189731380Y-99401904D02*
X190540904Y-99401904D01*
X190636142Y-99354285D01*
X190683761Y-99306666D01*
X190731380Y-99211428D01*
X190731380Y-99020952D01*
X190683761Y-98925714D01*
X190636142Y-98878095D01*
X190540904Y-98830476D01*
X189731380Y-98830476D01*
X190064714Y-97925714D02*
X190731380Y-97925714D01*
X189683761Y-98163809D02*
X190398047Y-98401904D01*
X190398047Y-97782857D01*
X107882096Y-52452381D02*
X107882096Y-53261905D01*
X107929715Y-53357143D01*
X107977334Y-53404762D01*
X108072572Y-53452381D01*
X108263048Y-53452381D01*
X108358286Y-53404762D01*
X108405905Y-53357143D01*
X108453524Y-53261905D01*
X108453524Y-52452381D01*
X109358286Y-52452381D02*
X109167810Y-52452381D01*
X109072572Y-52500001D01*
X109024953Y-52547620D01*
X108929715Y-52690477D01*
X108882096Y-52880953D01*
X108882096Y-53261905D01*
X108929715Y-53357143D01*
X108977334Y-53404762D01*
X109072572Y-53452381D01*
X109263048Y-53452381D01*
X109358286Y-53404762D01*
X109405905Y-53357143D01*
X109453524Y-53261905D01*
X109453524Y-53023810D01*
X109405905Y-52928572D01*
X109358286Y-52880953D01*
X109263048Y-52833334D01*
X109072572Y-52833334D01*
X108977334Y-52880953D01*
X108929715Y-52928572D01*
X108882096Y-53023810D01*
X126815095Y-52452381D02*
X126815095Y-53261905D01*
X126862714Y-53357143D01*
X126910333Y-53404762D01*
X127005571Y-53452381D01*
X127196047Y-53452381D01*
X127291285Y-53404762D01*
X127338904Y-53357143D01*
X127386523Y-53261905D01*
X127386523Y-52452381D01*
X127767476Y-52452381D02*
X128434142Y-52452381D01*
X128005571Y-53452381D01*
X145748094Y-52452381D02*
X145748094Y-53261905D01*
X145795713Y-53357143D01*
X145843332Y-53404762D01*
X145938570Y-53452381D01*
X146129046Y-53452381D01*
X146224284Y-53404762D01*
X146271903Y-53357143D01*
X146319522Y-53261905D01*
X146319522Y-52452381D01*
X146938570Y-52880953D02*
X146843332Y-52833334D01*
X146795713Y-52785715D01*
X146748094Y-52690477D01*
X146748094Y-52642858D01*
X146795713Y-52547620D01*
X146843332Y-52500001D01*
X146938570Y-52452381D01*
X147129046Y-52452381D01*
X147224284Y-52500001D01*
X147271903Y-52547620D01*
X147319522Y-52642858D01*
X147319522Y-52690477D01*
X147271903Y-52785715D01*
X147224284Y-52833334D01*
X147129046Y-52880953D01*
X146938570Y-52880953D01*
X146843332Y-52928572D01*
X146795713Y-52976191D01*
X146748094Y-53071429D01*
X146748094Y-53261905D01*
X146795713Y-53357143D01*
X146843332Y-53404762D01*
X146938570Y-53452381D01*
X147129046Y-53452381D01*
X147224284Y-53404762D01*
X147271903Y-53357143D01*
X147319522Y-53261905D01*
X147319522Y-53071429D01*
X147271903Y-52976191D01*
X147224284Y-52928572D01*
X147129046Y-52880953D01*
X164681093Y-52452381D02*
X164681093Y-53261905D01*
X164728712Y-53357143D01*
X164776331Y-53404762D01*
X164871569Y-53452381D01*
X165062045Y-53452381D01*
X165157283Y-53404762D01*
X165204902Y-53357143D01*
X165252521Y-53261905D01*
X165252521Y-52452381D01*
X165776331Y-53452381D02*
X165966807Y-53452381D01*
X166062045Y-53404762D01*
X166109664Y-53357143D01*
X166204902Y-53214286D01*
X166252521Y-53023810D01*
X166252521Y-52642858D01*
X166204902Y-52547620D01*
X166157283Y-52500001D01*
X166062045Y-52452381D01*
X165871569Y-52452381D01*
X165776331Y-52500001D01*
X165728712Y-52547620D01*
X165681093Y-52642858D01*
X165681093Y-52880953D01*
X165728712Y-52976191D01*
X165776331Y-53023810D01*
X165871569Y-53071429D01*
X166062045Y-53071429D01*
X166157283Y-53023810D01*
X166204902Y-52976191D01*
X166252521Y-52880953D01*
X183137901Y-52452381D02*
X183137901Y-53261905D01*
X183185520Y-53357143D01*
X183233139Y-53404762D01*
X183328377Y-53452381D01*
X183518854Y-53452381D01*
X183614092Y-53404762D01*
X183661711Y-53357143D01*
X183709330Y-53261905D01*
X183709330Y-52452381D01*
X184709330Y-53452381D02*
X184137901Y-53452381D01*
X184423616Y-53452381D02*
X184423616Y-52452381D01*
X184328377Y-52595239D01*
X184233139Y-52690477D01*
X184137901Y-52738096D01*
X185328377Y-52452381D02*
X185423616Y-52452381D01*
X185518854Y-52500001D01*
X185566473Y-52547620D01*
X185614092Y-52642858D01*
X185661711Y-52833334D01*
X185661711Y-53071429D01*
X185614092Y-53261905D01*
X185566473Y-53357143D01*
X185518854Y-53404762D01*
X185423616Y-53452381D01*
X185328377Y-53452381D01*
X185233139Y-53404762D01*
X185185520Y-53357143D01*
X185137901Y-53261905D01*
X185090282Y-53071429D01*
X185090282Y-52833334D01*
X185137901Y-52642858D01*
X185185520Y-52547620D01*
X185233139Y-52500001D01*
X185328377Y-52452381D01*
X202070904Y-52517380D02*
X202070904Y-53326904D01*
X202118523Y-53422142D01*
X202166142Y-53469761D01*
X202261380Y-53517380D01*
X202451857Y-53517380D01*
X202547095Y-53469761D01*
X202594714Y-53422142D01*
X202642333Y-53326904D01*
X202642333Y-52517380D01*
X203642333Y-53517380D02*
X203070904Y-53517380D01*
X203356619Y-53517380D02*
X203356619Y-52517380D01*
X203261380Y-52660238D01*
X203166142Y-52755476D01*
X203070904Y-52803095D01*
X204594714Y-53517380D02*
X204023285Y-53517380D01*
X204309000Y-53517380D02*
X204309000Y-52517380D01*
X204213761Y-52660238D01*
X204118523Y-52755476D01*
X204023285Y-52803095D01*
%LPC*%
D15*
X106104001Y-30470001D03*
X139124001Y-45710001D03*
X108644001Y-30470001D03*
X136584001Y-45710001D03*
X111184001Y-30470001D03*
X134044001Y-45710001D03*
X113724001Y-30470001D03*
X131504001Y-45710001D03*
X116264001Y-30470001D03*
X128964001Y-45710001D03*
X118804001Y-30470001D03*
X126424001Y-45710001D03*
X121344001Y-30470001D03*
X123884001Y-45710001D03*
X123884001Y-30470001D03*
X121344001Y-45710001D03*
X126424001Y-30470001D03*
X118804001Y-45710001D03*
X128964001Y-30470001D03*
X116264001Y-45710001D03*
X131504001Y-30470001D03*
X113724001Y-45710001D03*
X134044001Y-30470001D03*
X111184001Y-45710001D03*
X136584001Y-30470001D03*
X108644001Y-45710001D03*
X139124001Y-30470001D03*
G36*
G01*
X106904001Y-46561001D02*
X105304001Y-46561001D01*
G75*
G02*
X105253001Y-46510001I0J51000D01*
G01*
X105253001Y-44910001D01*
G75*
G02*
X105304001Y-44859001I51000J0D01*
G01*
X106904001Y-44859001D01*
G75*
G02*
X106955001Y-44910001I0J-51000D01*
G01*
X106955001Y-46510001D01*
G75*
G02*
X106904001Y-46561001I-51000J0D01*
G01*
G37*
X157822998Y-30470001D03*
X190842998Y-45710001D03*
X160362998Y-30470001D03*
X188302998Y-45710001D03*
X162902998Y-30470001D03*
X185762998Y-45710001D03*
X165442998Y-30470001D03*
X183222998Y-45710001D03*
X167982998Y-30470001D03*
X180682998Y-45710001D03*
X170522998Y-30470001D03*
X178142998Y-45710001D03*
X173062998Y-30470001D03*
X175602998Y-45710001D03*
X175602998Y-30470001D03*
X173062998Y-45710001D03*
X178142998Y-30470001D03*
X170522998Y-45710001D03*
X180682998Y-30470001D03*
X167982998Y-45710001D03*
X183222998Y-30470001D03*
X165442998Y-45710001D03*
X185762998Y-30470001D03*
X162902998Y-45710001D03*
X188302998Y-30470001D03*
X160362998Y-45710001D03*
X190842998Y-30470001D03*
G36*
G01*
X158622998Y-46561001D02*
X157022998Y-46561001D01*
G75*
G02*
X156971998Y-46510001I0J51000D01*
G01*
X156971998Y-44910001D01*
G75*
G02*
X157022998Y-44859001I51000J0D01*
G01*
X158622998Y-44859001D01*
G75*
G02*
X158673998Y-44910001I0J-51000D01*
G01*
X158673998Y-46510001D01*
G75*
G02*
X158622998Y-46561001I-51000J0D01*
G01*
G37*
X118269999Y-87475000D03*
X115729999Y-87475000D03*
X113189999Y-87475000D03*
X110649999Y-87475000D03*
X108109999Y-87475000D03*
X105569999Y-87475000D03*
X103029999Y-87475000D03*
X100489999Y-87475000D03*
G36*
G01*
X97098999Y-88275000D02*
X97098999Y-86675000D01*
G75*
G02*
X97149999Y-86624000I51000J0D01*
G01*
X98749999Y-86624000D01*
G75*
G02*
X98800999Y-86675000I0J-51000D01*
G01*
X98800999Y-88275000D01*
G75*
G02*
X98749999Y-88326000I-51000J0D01*
G01*
X97149999Y-88326000D01*
G75*
G02*
X97098999Y-88275000I0J51000D01*
G01*
G37*
G36*
G01*
X214930000Y-117970000D02*
X214930000Y-120970000D01*
G75*
G02*
X214879000Y-121021000I-51000J0D01*
G01*
X211879000Y-121021000D01*
G75*
G02*
X211828000Y-120970000I0J51000D01*
G01*
X211828000Y-117970000D01*
G75*
G02*
X211879000Y-117919000I51000J0D01*
G01*
X214879000Y-117919000D01*
G75*
G02*
X214930000Y-117970000I0J-51000D01*
G01*
G37*
D16*
X192889000Y-119470000D03*
D17*
X199744000Y-38080000D03*
X199744000Y-33580000D03*
X206244000Y-38080000D03*
X206244000Y-33580000D03*
G36*
G01*
X134904000Y-161432000D02*
X134904000Y-153432000D01*
G75*
G02*
X134955000Y-153381000I51000J0D01*
G01*
X136455000Y-153381000D01*
G75*
G02*
X136506000Y-153432000I0J-51000D01*
G01*
X136506000Y-161432000D01*
G75*
G02*
X136455000Y-161483000I-51000J0D01*
G01*
X134955000Y-161483000D01*
G75*
G02*
X134904000Y-161432000I0J51000D01*
G01*
G37*
G36*
G01*
X132364000Y-161432000D02*
X132364000Y-153432000D01*
G75*
G02*
X132415000Y-153381000I51000J0D01*
G01*
X133915000Y-153381000D01*
G75*
G02*
X133966000Y-153432000I0J-51000D01*
G01*
X133966000Y-161432000D01*
G75*
G02*
X133915000Y-161483000I-51000J0D01*
G01*
X132415000Y-161483000D01*
G75*
G02*
X132364000Y-161432000I0J51000D01*
G01*
G37*
G36*
G01*
X129824000Y-161432000D02*
X129824000Y-153432000D01*
G75*
G02*
X129875000Y-153381000I51000J0D01*
G01*
X131375000Y-153381000D01*
G75*
G02*
X131426000Y-153432000I0J-51000D01*
G01*
X131426000Y-161432000D01*
G75*
G02*
X131375000Y-161483000I-51000J0D01*
G01*
X129875000Y-161483000D01*
G75*
G02*
X129824000Y-161432000I0J51000D01*
G01*
G37*
G36*
G01*
X127284000Y-161432000D02*
X127284000Y-153432000D01*
G75*
G02*
X127335000Y-153381000I51000J0D01*
G01*
X128835000Y-153381000D01*
G75*
G02*
X128886000Y-153432000I0J-51000D01*
G01*
X128886000Y-161432000D01*
G75*
G02*
X128835000Y-161483000I-51000J0D01*
G01*
X127335000Y-161483000D01*
G75*
G02*
X127284000Y-161432000I0J51000D01*
G01*
G37*
G36*
G01*
X124744000Y-161432000D02*
X124744000Y-153432000D01*
G75*
G02*
X124795000Y-153381000I51000J0D01*
G01*
X126295000Y-153381000D01*
G75*
G02*
X126346000Y-153432000I0J-51000D01*
G01*
X126346000Y-161432000D01*
G75*
G02*
X126295000Y-161483000I-51000J0D01*
G01*
X124795000Y-161483000D01*
G75*
G02*
X124744000Y-161432000I0J51000D01*
G01*
G37*
G36*
G01*
X122204000Y-161432000D02*
X122204000Y-153432000D01*
G75*
G02*
X122255000Y-153381000I51000J0D01*
G01*
X123755000Y-153381000D01*
G75*
G02*
X123806000Y-153432000I0J-51000D01*
G01*
X123806000Y-161432000D01*
G75*
G02*
X123755000Y-161483000I-51000J0D01*
G01*
X122255000Y-161483000D01*
G75*
G02*
X122204000Y-161432000I0J51000D01*
G01*
G37*
G36*
G01*
X119664000Y-161432000D02*
X119664000Y-153432000D01*
G75*
G02*
X119715000Y-153381000I51000J0D01*
G01*
X121215000Y-153381000D01*
G75*
G02*
X121266000Y-153432000I0J-51000D01*
G01*
X121266000Y-161432000D01*
G75*
G02*
X121215000Y-161483000I-51000J0D01*
G01*
X119715000Y-161483000D01*
G75*
G02*
X119664000Y-161432000I0J51000D01*
G01*
G37*
G36*
G01*
X117124000Y-161432000D02*
X117124000Y-153432000D01*
G75*
G02*
X117175000Y-153381000I51000J0D01*
G01*
X118675000Y-153381000D01*
G75*
G02*
X118726000Y-153432000I0J-51000D01*
G01*
X118726000Y-161432000D01*
G75*
G02*
X118675000Y-161483000I-51000J0D01*
G01*
X117175000Y-161483000D01*
G75*
G02*
X117124000Y-161432000I0J51000D01*
G01*
G37*
G36*
G01*
X114584000Y-161432000D02*
X114584000Y-153432000D01*
G75*
G02*
X114635000Y-153381000I51000J0D01*
G01*
X116135000Y-153381000D01*
G75*
G02*
X116186000Y-153432000I0J-51000D01*
G01*
X116186000Y-161432000D01*
G75*
G02*
X116135000Y-161483000I-51000J0D01*
G01*
X114635000Y-161483000D01*
G75*
G02*
X114584000Y-161432000I0J51000D01*
G01*
G37*
G36*
G01*
X112044000Y-161432000D02*
X112044000Y-153432000D01*
G75*
G02*
X112095000Y-153381000I51000J0D01*
G01*
X113595000Y-153381000D01*
G75*
G02*
X113646000Y-153432000I0J-51000D01*
G01*
X113646000Y-161432000D01*
G75*
G02*
X113595000Y-161483000I-51000J0D01*
G01*
X112095000Y-161483000D01*
G75*
G02*
X112044000Y-161432000I0J51000D01*
G01*
G37*
G36*
G01*
X109504000Y-161432000D02*
X109504000Y-153432000D01*
G75*
G02*
X109555000Y-153381000I51000J0D01*
G01*
X111055000Y-153381000D01*
G75*
G02*
X111106000Y-153432000I0J-51000D01*
G01*
X111106000Y-161432000D01*
G75*
G02*
X111055000Y-161483000I-51000J0D01*
G01*
X109555000Y-161483000D01*
G75*
G02*
X109504000Y-161432000I0J51000D01*
G01*
G37*
G36*
G01*
X106964000Y-161432000D02*
X106964000Y-153432000D01*
G75*
G02*
X107015000Y-153381000I51000J0D01*
G01*
X108515000Y-153381000D01*
G75*
G02*
X108566000Y-153432000I0J-51000D01*
G01*
X108566000Y-161432000D01*
G75*
G02*
X108515000Y-161483000I-51000J0D01*
G01*
X107015000Y-161483000D01*
G75*
G02*
X106964000Y-161432000I0J51000D01*
G01*
G37*
G36*
G01*
X104424000Y-161432000D02*
X104424000Y-153432000D01*
G75*
G02*
X104475000Y-153381000I51000J0D01*
G01*
X105975000Y-153381000D01*
G75*
G02*
X106026000Y-153432000I0J-51000D01*
G01*
X106026000Y-161432000D01*
G75*
G02*
X105975000Y-161483000I-51000J0D01*
G01*
X104475000Y-161483000D01*
G75*
G02*
X104424000Y-161432000I0J51000D01*
G01*
G37*
G36*
G01*
X101884000Y-161432000D02*
X101884000Y-153432000D01*
G75*
G02*
X101935000Y-153381000I51000J0D01*
G01*
X103435000Y-153381000D01*
G75*
G02*
X103486000Y-153432000I0J-51000D01*
G01*
X103486000Y-161432000D01*
G75*
G02*
X103435000Y-161483000I-51000J0D01*
G01*
X101935000Y-161483000D01*
G75*
G02*
X101884000Y-161432000I0J51000D01*
G01*
G37*
G36*
G01*
X99344000Y-161432000D02*
X99344000Y-153432000D01*
G75*
G02*
X99395000Y-153381000I51000J0D01*
G01*
X100895000Y-153381000D01*
G75*
G02*
X100946000Y-153432000I0J-51000D01*
G01*
X100946000Y-161432000D01*
G75*
G02*
X100895000Y-161483000I-51000J0D01*
G01*
X99395000Y-161483000D01*
G75*
G02*
X99344000Y-161432000I0J51000D01*
G01*
G37*
G36*
G01*
X96804000Y-161432000D02*
X96804000Y-153432000D01*
G75*
G02*
X96855000Y-153381000I51000J0D01*
G01*
X98355000Y-153381000D01*
G75*
G02*
X98406000Y-153432000I0J-51000D01*
G01*
X98406000Y-161432000D01*
G75*
G02*
X98355000Y-161483000I-51000J0D01*
G01*
X96855000Y-161483000D01*
G75*
G02*
X96804000Y-161432000I0J51000D01*
G01*
G37*
G36*
G01*
X94264000Y-161432000D02*
X94264000Y-153432000D01*
G75*
G02*
X94315000Y-153381000I51000J0D01*
G01*
X95815000Y-153381000D01*
G75*
G02*
X95866000Y-153432000I0J-51000D01*
G01*
X95866000Y-161432000D01*
G75*
G02*
X95815000Y-161483000I-51000J0D01*
G01*
X94315000Y-161483000D01*
G75*
G02*
X94264000Y-161432000I0J51000D01*
G01*
G37*
G36*
G01*
X91724000Y-161432000D02*
X91724000Y-153432000D01*
G75*
G02*
X91775000Y-153381000I51000J0D01*
G01*
X93275000Y-153381000D01*
G75*
G02*
X93326000Y-153432000I0J-51000D01*
G01*
X93326000Y-161432000D01*
G75*
G02*
X93275000Y-161483000I-51000J0D01*
G01*
X91775000Y-161483000D01*
G75*
G02*
X91724000Y-161432000I0J51000D01*
G01*
G37*
G36*
G01*
X89184000Y-161432000D02*
X89184000Y-153432000D01*
G75*
G02*
X89235000Y-153381000I51000J0D01*
G01*
X90735000Y-153381000D01*
G75*
G02*
X90786000Y-153432000I0J-51000D01*
G01*
X90786000Y-161432000D01*
G75*
G02*
X90735000Y-161483000I-51000J0D01*
G01*
X89235000Y-161483000D01*
G75*
G02*
X89184000Y-161432000I0J51000D01*
G01*
G37*
G36*
G01*
X86644000Y-161432000D02*
X86644000Y-153432000D01*
G75*
G02*
X86695000Y-153381000I51000J0D01*
G01*
X88195000Y-153381000D01*
G75*
G02*
X88246000Y-153432000I0J-51000D01*
G01*
X88246000Y-161432000D01*
G75*
G02*
X88195000Y-161483000I-51000J0D01*
G01*
X86695000Y-161483000D01*
G75*
G02*
X86644000Y-161432000I0J51000D01*
G01*
G37*
G36*
G01*
X84104000Y-161432000D02*
X84104000Y-153432000D01*
G75*
G02*
X84155000Y-153381000I51000J0D01*
G01*
X85655000Y-153381000D01*
G75*
G02*
X85706000Y-153432000I0J-51000D01*
G01*
X85706000Y-161432000D01*
G75*
G02*
X85655000Y-161483000I-51000J0D01*
G01*
X84155000Y-161483000D01*
G75*
G02*
X84104000Y-161432000I0J51000D01*
G01*
G37*
G36*
G01*
X81564000Y-161432000D02*
X81564000Y-153432000D01*
G75*
G02*
X81615000Y-153381000I51000J0D01*
G01*
X83115000Y-153381000D01*
G75*
G02*
X83166000Y-153432000I0J-51000D01*
G01*
X83166000Y-161432000D01*
G75*
G02*
X83115000Y-161483000I-51000J0D01*
G01*
X81615000Y-161483000D01*
G75*
G02*
X81564000Y-161432000I0J51000D01*
G01*
G37*
G36*
G01*
X134904000Y-161432000D02*
X134904000Y-153432000D01*
G75*
G02*
X134955000Y-153381000I51000J0D01*
G01*
X136455000Y-153381000D01*
G75*
G02*
X136506000Y-153432000I0J-51000D01*
G01*
X136506000Y-161432000D01*
G75*
G02*
X136455000Y-161483000I-51000J0D01*
G01*
X134955000Y-161483000D01*
G75*
G02*
X134904000Y-161432000I0J51000D01*
G01*
G37*
G36*
G01*
X132364000Y-161432000D02*
X132364000Y-153432000D01*
G75*
G02*
X132415000Y-153381000I51000J0D01*
G01*
X133915000Y-153381000D01*
G75*
G02*
X133966000Y-153432000I0J-51000D01*
G01*
X133966000Y-161432000D01*
G75*
G02*
X133915000Y-161483000I-51000J0D01*
G01*
X132415000Y-161483000D01*
G75*
G02*
X132364000Y-161432000I0J51000D01*
G01*
G37*
G36*
G01*
X129824000Y-161432000D02*
X129824000Y-153432000D01*
G75*
G02*
X129875000Y-153381000I51000J0D01*
G01*
X131375000Y-153381000D01*
G75*
G02*
X131426000Y-153432000I0J-51000D01*
G01*
X131426000Y-161432000D01*
G75*
G02*
X131375000Y-161483000I-51000J0D01*
G01*
X129875000Y-161483000D01*
G75*
G02*
X129824000Y-161432000I0J51000D01*
G01*
G37*
G36*
G01*
X127284000Y-161432000D02*
X127284000Y-153432000D01*
G75*
G02*
X127335000Y-153381000I51000J0D01*
G01*
X128835000Y-153381000D01*
G75*
G02*
X128886000Y-153432000I0J-51000D01*
G01*
X128886000Y-161432000D01*
G75*
G02*
X128835000Y-161483000I-51000J0D01*
G01*
X127335000Y-161483000D01*
G75*
G02*
X127284000Y-161432000I0J51000D01*
G01*
G37*
G36*
G01*
X124744000Y-161432000D02*
X124744000Y-153432000D01*
G75*
G02*
X124795000Y-153381000I51000J0D01*
G01*
X126295000Y-153381000D01*
G75*
G02*
X126346000Y-153432000I0J-51000D01*
G01*
X126346000Y-161432000D01*
G75*
G02*
X126295000Y-161483000I-51000J0D01*
G01*
X124795000Y-161483000D01*
G75*
G02*
X124744000Y-161432000I0J51000D01*
G01*
G37*
G36*
G01*
X122204000Y-161432000D02*
X122204000Y-153432000D01*
G75*
G02*
X122255000Y-153381000I51000J0D01*
G01*
X123755000Y-153381000D01*
G75*
G02*
X123806000Y-153432000I0J-51000D01*
G01*
X123806000Y-161432000D01*
G75*
G02*
X123755000Y-161483000I-51000J0D01*
G01*
X122255000Y-161483000D01*
G75*
G02*
X122204000Y-161432000I0J51000D01*
G01*
G37*
G36*
G01*
X119664000Y-161432000D02*
X119664000Y-153432000D01*
G75*
G02*
X119715000Y-153381000I51000J0D01*
G01*
X121215000Y-153381000D01*
G75*
G02*
X121266000Y-153432000I0J-51000D01*
G01*
X121266000Y-161432000D01*
G75*
G02*
X121215000Y-161483000I-51000J0D01*
G01*
X119715000Y-161483000D01*
G75*
G02*
X119664000Y-161432000I0J51000D01*
G01*
G37*
G36*
G01*
X117124000Y-161432000D02*
X117124000Y-153432000D01*
G75*
G02*
X117175000Y-153381000I51000J0D01*
G01*
X118675000Y-153381000D01*
G75*
G02*
X118726000Y-153432000I0J-51000D01*
G01*
X118726000Y-161432000D01*
G75*
G02*
X118675000Y-161483000I-51000J0D01*
G01*
X117175000Y-161483000D01*
G75*
G02*
X117124000Y-161432000I0J51000D01*
G01*
G37*
G36*
G01*
X114584000Y-161432000D02*
X114584000Y-153432000D01*
G75*
G02*
X114635000Y-153381000I51000J0D01*
G01*
X116135000Y-153381000D01*
G75*
G02*
X116186000Y-153432000I0J-51000D01*
G01*
X116186000Y-161432000D01*
G75*
G02*
X116135000Y-161483000I-51000J0D01*
G01*
X114635000Y-161483000D01*
G75*
G02*
X114584000Y-161432000I0J51000D01*
G01*
G37*
G36*
G01*
X112044000Y-161432000D02*
X112044000Y-153432000D01*
G75*
G02*
X112095000Y-153381000I51000J0D01*
G01*
X113595000Y-153381000D01*
G75*
G02*
X113646000Y-153432000I0J-51000D01*
G01*
X113646000Y-161432000D01*
G75*
G02*
X113595000Y-161483000I-51000J0D01*
G01*
X112095000Y-161483000D01*
G75*
G02*
X112044000Y-161432000I0J51000D01*
G01*
G37*
G36*
G01*
X109504000Y-161432000D02*
X109504000Y-153432000D01*
G75*
G02*
X109555000Y-153381000I51000J0D01*
G01*
X111055000Y-153381000D01*
G75*
G02*
X111106000Y-153432000I0J-51000D01*
G01*
X111106000Y-161432000D01*
G75*
G02*
X111055000Y-161483000I-51000J0D01*
G01*
X109555000Y-161483000D01*
G75*
G02*
X109504000Y-161432000I0J51000D01*
G01*
G37*
G36*
G01*
X106964000Y-161432000D02*
X106964000Y-153432000D01*
G75*
G02*
X107015000Y-153381000I51000J0D01*
G01*
X108515000Y-153381000D01*
G75*
G02*
X108566000Y-153432000I0J-51000D01*
G01*
X108566000Y-161432000D01*
G75*
G02*
X108515000Y-161483000I-51000J0D01*
G01*
X107015000Y-161483000D01*
G75*
G02*
X106964000Y-161432000I0J51000D01*
G01*
G37*
G36*
G01*
X104424000Y-161432000D02*
X104424000Y-153432000D01*
G75*
G02*
X104475000Y-153381000I51000J0D01*
G01*
X105975000Y-153381000D01*
G75*
G02*
X106026000Y-153432000I0J-51000D01*
G01*
X106026000Y-161432000D01*
G75*
G02*
X105975000Y-161483000I-51000J0D01*
G01*
X104475000Y-161483000D01*
G75*
G02*
X104424000Y-161432000I0J51000D01*
G01*
G37*
G36*
G01*
X101884000Y-161432000D02*
X101884000Y-153432000D01*
G75*
G02*
X101935000Y-153381000I51000J0D01*
G01*
X103435000Y-153381000D01*
G75*
G02*
X103486000Y-153432000I0J-51000D01*
G01*
X103486000Y-161432000D01*
G75*
G02*
X103435000Y-161483000I-51000J0D01*
G01*
X101935000Y-161483000D01*
G75*
G02*
X101884000Y-161432000I0J51000D01*
G01*
G37*
G36*
G01*
X99344000Y-161432000D02*
X99344000Y-153432000D01*
G75*
G02*
X99395000Y-153381000I51000J0D01*
G01*
X100895000Y-153381000D01*
G75*
G02*
X100946000Y-153432000I0J-51000D01*
G01*
X100946000Y-161432000D01*
G75*
G02*
X100895000Y-161483000I-51000J0D01*
G01*
X99395000Y-161483000D01*
G75*
G02*
X99344000Y-161432000I0J51000D01*
G01*
G37*
G36*
G01*
X96804000Y-161432000D02*
X96804000Y-153432000D01*
G75*
G02*
X96855000Y-153381000I51000J0D01*
G01*
X98355000Y-153381000D01*
G75*
G02*
X98406000Y-153432000I0J-51000D01*
G01*
X98406000Y-161432000D01*
G75*
G02*
X98355000Y-161483000I-51000J0D01*
G01*
X96855000Y-161483000D01*
G75*
G02*
X96804000Y-161432000I0J51000D01*
G01*
G37*
G36*
G01*
X94264000Y-161432000D02*
X94264000Y-153432000D01*
G75*
G02*
X94315000Y-153381000I51000J0D01*
G01*
X95815000Y-153381000D01*
G75*
G02*
X95866000Y-153432000I0J-51000D01*
G01*
X95866000Y-161432000D01*
G75*
G02*
X95815000Y-161483000I-51000J0D01*
G01*
X94315000Y-161483000D01*
G75*
G02*
X94264000Y-161432000I0J51000D01*
G01*
G37*
G36*
G01*
X91724000Y-161432000D02*
X91724000Y-153432000D01*
G75*
G02*
X91775000Y-153381000I51000J0D01*
G01*
X93275000Y-153381000D01*
G75*
G02*
X93326000Y-153432000I0J-51000D01*
G01*
X93326000Y-161432000D01*
G75*
G02*
X93275000Y-161483000I-51000J0D01*
G01*
X91775000Y-161483000D01*
G75*
G02*
X91724000Y-161432000I0J51000D01*
G01*
G37*
G36*
G01*
X89184000Y-161432000D02*
X89184000Y-153432000D01*
G75*
G02*
X89235000Y-153381000I51000J0D01*
G01*
X90735000Y-153381000D01*
G75*
G02*
X90786000Y-153432000I0J-51000D01*
G01*
X90786000Y-161432000D01*
G75*
G02*
X90735000Y-161483000I-51000J0D01*
G01*
X89235000Y-161483000D01*
G75*
G02*
X89184000Y-161432000I0J51000D01*
G01*
G37*
G36*
G01*
X86644000Y-161432000D02*
X86644000Y-153432000D01*
G75*
G02*
X86695000Y-153381000I51000J0D01*
G01*
X88195000Y-153381000D01*
G75*
G02*
X88246000Y-153432000I0J-51000D01*
G01*
X88246000Y-161432000D01*
G75*
G02*
X88195000Y-161483000I-51000J0D01*
G01*
X86695000Y-161483000D01*
G75*
G02*
X86644000Y-161432000I0J51000D01*
G01*
G37*
G36*
G01*
X84104000Y-161432000D02*
X84104000Y-153432000D01*
G75*
G02*
X84155000Y-153381000I51000J0D01*
G01*
X85655000Y-153381000D01*
G75*
G02*
X85706000Y-153432000I0J-51000D01*
G01*
X85706000Y-161432000D01*
G75*
G02*
X85655000Y-161483000I-51000J0D01*
G01*
X84155000Y-161483000D01*
G75*
G02*
X84104000Y-161432000I0J51000D01*
G01*
G37*
G36*
G01*
X81564000Y-161432000D02*
X81564000Y-153432000D01*
G75*
G02*
X81615000Y-153381000I51000J0D01*
G01*
X83115000Y-153381000D01*
G75*
G02*
X83166000Y-153432000I0J-51000D01*
G01*
X83166000Y-161432000D01*
G75*
G02*
X83115000Y-161483000I-51000J0D01*
G01*
X81615000Y-161483000D01*
G75*
G02*
X81564000Y-161432000I0J51000D01*
G01*
G37*
D18*
X85879000Y-47420000D03*
X90879000Y-47420000D03*
X119819000Y-114215000D03*
X124819000Y-114215000D03*
D19*
X200769000Y-100470000D03*
G36*
G01*
X212180000Y-99270000D02*
X212180000Y-101670000D01*
G75*
G02*
X212129000Y-101721000I-51000J0D01*
G01*
X209729000Y-101721000D01*
G75*
G02*
X209678000Y-101670000I0J51000D01*
G01*
X209678000Y-99270000D01*
G75*
G02*
X209729000Y-99219000I51000J0D01*
G01*
X212129000Y-99219000D01*
G75*
G02*
X212180000Y-99270000I0J-51000D01*
G01*
G37*
G36*
G01*
X176879000Y-124996000D02*
X174479000Y-124996000D01*
G75*
G02*
X174428000Y-124945000I0J51000D01*
G01*
X174428000Y-122545000D01*
G75*
G02*
X174479000Y-122494000I51000J0D01*
G01*
X176879000Y-122494000D01*
G75*
G02*
X176930000Y-122545000I0J-51000D01*
G01*
X176930000Y-124945000D01*
G75*
G02*
X176879000Y-124996000I-51000J0D01*
G01*
G37*
X175679000Y-113585000D03*
D18*
X182754000Y-122645000D03*
D15*
X182754000Y-115025000D03*
G36*
G01*
X204124000Y-90071000D02*
X202424000Y-90071000D01*
G75*
G02*
X202373000Y-90020000I0J51000D01*
G01*
X202373000Y-88320000D01*
G75*
G02*
X202424000Y-88269000I51000J0D01*
G01*
X204124000Y-88269000D01*
G75*
G02*
X204175000Y-88320000I0J-51000D01*
G01*
X204175000Y-90020000D01*
G75*
G02*
X204124000Y-90071000I-51000J0D01*
G01*
G37*
D20*
X205814000Y-89170000D03*
X208354000Y-89170000D03*
G36*
G01*
X96619000Y-125136000D02*
X95019000Y-125136000D01*
G75*
G02*
X94968000Y-125085000I0J51000D01*
G01*
X94968000Y-123485000D01*
G75*
G02*
X95019000Y-123434000I51000J0D01*
G01*
X96619000Y-123434000D01*
G75*
G02*
X96670000Y-123485000I0J-51000D01*
G01*
X96670000Y-125085000D01*
G75*
G02*
X96619000Y-125136000I-51000J0D01*
G01*
G37*
D15*
X111059000Y-116665000D03*
X98359000Y-124285000D03*
X108519000Y-116665000D03*
X100899000Y-124285000D03*
X105979000Y-116665000D03*
X103439000Y-124285000D03*
X103439000Y-116665000D03*
X105979000Y-124285000D03*
X100899000Y-116665000D03*
X108519000Y-124285000D03*
X98359000Y-116665000D03*
X111059000Y-124285000D03*
X95819000Y-116665000D03*
D18*
X119819000Y-119195000D03*
X124819000Y-119195000D03*
D15*
X212679000Y-113340000D03*
D18*
X212679000Y-105720000D03*
X84879000Y-80720000D03*
D15*
X92499000Y-80720000D03*
G36*
G01*
X97539000Y-81456000D02*
X95939000Y-81456000D01*
G75*
G02*
X95888000Y-81405000I0J51000D01*
G01*
X95888000Y-79805000D01*
G75*
G02*
X95939000Y-79754000I51000J0D01*
G01*
X97539000Y-79754000D01*
G75*
G02*
X97590000Y-79805000I0J-51000D01*
G01*
X97590000Y-81405000D01*
G75*
G02*
X97539000Y-81456000I-51000J0D01*
G01*
G37*
X96739000Y-78065000D03*
X96739000Y-75525000D03*
X96739000Y-72985000D03*
X96739000Y-70445000D03*
X96739000Y-67905000D03*
X96739000Y-65365000D03*
X96739000Y-62825000D03*
X96739000Y-60285000D03*
D20*
X91960000Y-33580000D03*
X94500000Y-33580000D03*
G36*
G01*
X96190000Y-32679000D02*
X97890000Y-32679000D01*
G75*
G02*
X97941000Y-32730000I0J-51000D01*
G01*
X97941000Y-34430000D01*
G75*
G02*
X97890000Y-34481000I-51000J0D01*
G01*
X96190000Y-34481000D01*
G75*
G02*
X96139000Y-34430000I0J51000D01*
G01*
X96139000Y-32730000D01*
G75*
G02*
X96190000Y-32679000I51000J0D01*
G01*
G37*
G36*
G01*
X83778000Y-58545000D02*
X83778000Y-56945000D01*
G75*
G02*
X83829000Y-56894000I51000J0D01*
G01*
X85429000Y-56894000D01*
G75*
G02*
X85480000Y-56945000I0J-51000D01*
G01*
X85480000Y-58545000D01*
G75*
G02*
X85429000Y-58596000I-51000J0D01*
G01*
X83829000Y-58596000D01*
G75*
G02*
X83778000Y-58545000I0J51000D01*
G01*
G37*
D15*
X92249000Y-75525000D03*
X84629000Y-60285000D03*
X92249000Y-72985000D03*
X84629000Y-62825000D03*
X92249000Y-70445000D03*
X84629000Y-65365000D03*
X92249000Y-67905000D03*
X84629000Y-67905000D03*
X92249000Y-65365000D03*
X84629000Y-70445000D03*
X92249000Y-62825000D03*
X84629000Y-72985000D03*
X92249000Y-60285000D03*
X84629000Y-75525000D03*
X92249000Y-57745000D03*
G36*
G01*
X135409000Y-126636000D02*
X133809000Y-126636000D01*
G75*
G02*
X133758000Y-126585000I0J51000D01*
G01*
X133758000Y-124985000D01*
G75*
G02*
X133809000Y-124934000I51000J0D01*
G01*
X135409000Y-124934000D01*
G75*
G02*
X135460000Y-124985000I0J-51000D01*
G01*
X135460000Y-126585000D01*
G75*
G02*
X135409000Y-126636000I-51000J0D01*
G01*
G37*
X167629000Y-110545000D03*
X137149000Y-125785000D03*
X165089000Y-110545000D03*
X139689000Y-125785000D03*
X162549000Y-110545000D03*
X142229000Y-125785000D03*
X160009000Y-110545000D03*
X144769000Y-125785000D03*
X157469000Y-110545000D03*
X147309000Y-125785000D03*
X154929000Y-110545000D03*
X149849000Y-125785000D03*
X152389000Y-110545000D03*
X152389000Y-125785000D03*
X149849000Y-110545000D03*
X154929000Y-125785000D03*
X147309000Y-110545000D03*
X157469000Y-125785000D03*
X144769000Y-110545000D03*
X160009000Y-125785000D03*
X142229000Y-110545000D03*
X162549000Y-125785000D03*
X139689000Y-110545000D03*
X165089000Y-125785000D03*
X137149000Y-110545000D03*
X167629000Y-125785000D03*
X134609000Y-110545000D03*
G36*
G01*
X137789999Y-90169000D02*
X139389999Y-90169000D01*
G75*
G02*
X139440999Y-90220000I0J-51000D01*
G01*
X139440999Y-91820000D01*
G75*
G02*
X139389999Y-91871000I-51000J0D01*
G01*
X137789999Y-91871000D01*
G75*
G02*
X137738999Y-91820000I0J51000D01*
G01*
X137738999Y-90220000D01*
G75*
G02*
X137789999Y-90169000I51000J0D01*
G01*
G37*
X90329999Y-106260000D03*
X136049999Y-91020000D03*
X92869999Y-106260000D03*
X133509999Y-91020000D03*
X95409999Y-106260000D03*
X130969999Y-91020000D03*
X97949999Y-106260000D03*
X128429999Y-91020000D03*
X100489999Y-106260000D03*
X125889999Y-91020000D03*
X103029999Y-106260000D03*
X123349999Y-91020000D03*
X105569999Y-106260000D03*
X120809999Y-91020000D03*
X108109999Y-106260000D03*
X118269999Y-91020000D03*
X110649999Y-106260000D03*
X115729999Y-91020000D03*
X113189999Y-106260000D03*
X113189999Y-91020000D03*
X115729999Y-106260000D03*
X110649999Y-91020000D03*
X118269999Y-106260000D03*
X108109999Y-91020000D03*
X120809999Y-106260000D03*
X105569999Y-91020000D03*
X123349999Y-106260000D03*
X103029999Y-91020000D03*
X125889999Y-106260000D03*
X100489999Y-91020000D03*
X128429999Y-106260000D03*
X97949999Y-91020000D03*
X130969999Y-106260000D03*
X95409999Y-91020000D03*
X133509999Y-106260000D03*
X92869999Y-91020000D03*
X136049999Y-106260000D03*
X90329999Y-91020000D03*
X138589999Y-106260000D03*
X193029000Y-106260000D03*
X144769000Y-91020000D03*
X190489000Y-106260000D03*
X147309000Y-91020000D03*
X187949000Y-106260000D03*
X149849000Y-91020000D03*
X185409000Y-106260000D03*
X152389000Y-91020000D03*
X182869000Y-106260000D03*
X154929000Y-91020000D03*
X180329000Y-106260000D03*
X157469000Y-91020000D03*
X177789000Y-106260000D03*
X160009000Y-91020000D03*
X175249000Y-106260000D03*
X162549000Y-91020000D03*
X172709000Y-106260000D03*
X165089000Y-91020000D03*
X170169000Y-106260000D03*
X167629000Y-91020000D03*
X167629000Y-106260000D03*
X170169000Y-91020000D03*
X165089000Y-106260000D03*
X172709000Y-91020000D03*
X162549000Y-106260000D03*
X175249000Y-91020000D03*
X160009000Y-106260000D03*
X177789000Y-91020000D03*
X157469000Y-106260000D03*
X180329000Y-91020000D03*
X154929000Y-106260000D03*
X182869000Y-91020000D03*
X152389000Y-106260000D03*
X185409000Y-91020000D03*
X149849000Y-106260000D03*
X187949000Y-91020000D03*
X147309000Y-106260000D03*
X190489000Y-91020000D03*
X144769000Y-106260000D03*
G36*
G01*
X192229000Y-90169000D02*
X193829000Y-90169000D01*
G75*
G02*
X193880000Y-90220000I0J-51000D01*
G01*
X193880000Y-91820000D01*
G75*
G02*
X193829000Y-91871000I-51000J0D01*
G01*
X192229000Y-91871000D01*
G75*
G02*
X192178000Y-91820000I0J51000D01*
G01*
X192178000Y-90220000D01*
G75*
G02*
X192229000Y-90169000I51000J0D01*
G01*
G37*
G36*
G01*
X100173001Y-51050001D02*
X100173001Y-49450001D01*
G75*
G02*
X100224001Y-49399001I51000J0D01*
G01*
X101824001Y-49399001D01*
G75*
G02*
X101875001Y-49450001I0J-51000D01*
G01*
X101875001Y-51050001D01*
G75*
G02*
X101824001Y-51101001I-51000J0D01*
G01*
X100224001Y-51101001D01*
G75*
G02*
X100173001Y-51050001I0J51000D01*
G01*
G37*
X116264001Y-83270001D03*
X101024001Y-52790001D03*
X116264001Y-80730001D03*
X101024001Y-55330001D03*
X116264001Y-78190001D03*
X101024001Y-57870001D03*
X116264001Y-75650001D03*
X101024001Y-60410001D03*
X116264001Y-73110001D03*
X101024001Y-62950001D03*
X116264001Y-70570001D03*
X101024001Y-65490001D03*
X116264001Y-68030001D03*
X101024001Y-68030001D03*
X116264001Y-65490001D03*
X101024001Y-70570001D03*
X116264001Y-62950001D03*
X101024001Y-73110001D03*
X116264001Y-60410001D03*
X101024001Y-75650001D03*
X116264001Y-57870001D03*
X101024001Y-78190001D03*
X116264001Y-55330001D03*
X101024001Y-80730001D03*
X116264001Y-52790001D03*
X101024001Y-83270001D03*
X116264001Y-50250001D03*
X135197000Y-50250001D03*
X119957000Y-83270001D03*
X135197000Y-52790001D03*
X119957000Y-80730001D03*
X135197000Y-55330001D03*
X119957000Y-78190001D03*
X135197000Y-57870001D03*
X119957000Y-75650001D03*
X135197000Y-60410001D03*
X119957000Y-73110001D03*
X135197000Y-62950001D03*
X119957000Y-70570001D03*
X135197000Y-65490001D03*
X119957000Y-68030001D03*
X135197000Y-68030001D03*
X119957000Y-65490001D03*
X135197000Y-70570001D03*
X119957000Y-62950001D03*
X135197000Y-73110001D03*
X119957000Y-60410001D03*
X135197000Y-75650001D03*
X119957000Y-57870001D03*
X135197000Y-78190001D03*
X119957000Y-55330001D03*
X135197000Y-80730001D03*
X119957000Y-52790001D03*
X135197000Y-83270001D03*
G36*
G01*
X119106000Y-51050001D02*
X119106000Y-49450001D01*
G75*
G02*
X119157000Y-49399001I51000J0D01*
G01*
X120757000Y-49399001D01*
G75*
G02*
X120808000Y-49450001I0J-51000D01*
G01*
X120808000Y-51050001D01*
G75*
G02*
X120757000Y-51101001I-51000J0D01*
G01*
X119157000Y-51101001D01*
G75*
G02*
X119106000Y-51050001I0J51000D01*
G01*
G37*
G36*
G01*
X138038999Y-51050001D02*
X138038999Y-49450001D01*
G75*
G02*
X138089999Y-49399001I51000J0D01*
G01*
X139689999Y-49399001D01*
G75*
G02*
X139740999Y-49450001I0J-51000D01*
G01*
X139740999Y-51050001D01*
G75*
G02*
X139689999Y-51101001I-51000J0D01*
G01*
X138089999Y-51101001D01*
G75*
G02*
X138038999Y-51050001I0J51000D01*
G01*
G37*
X154129999Y-83270001D03*
X138889999Y-52790001D03*
X154129999Y-80730001D03*
X138889999Y-55330001D03*
X154129999Y-78190001D03*
X138889999Y-57870001D03*
X154129999Y-75650001D03*
X138889999Y-60410001D03*
X154129999Y-73110001D03*
X138889999Y-62950001D03*
X154129999Y-70570001D03*
X138889999Y-65490001D03*
X154129999Y-68030001D03*
X138889999Y-68030001D03*
X154129999Y-65490001D03*
X138889999Y-70570001D03*
X154129999Y-62950001D03*
X138889999Y-73110001D03*
X154129999Y-60410001D03*
X138889999Y-75650001D03*
X154129999Y-57870001D03*
X138889999Y-78190001D03*
X154129999Y-55330001D03*
X138889999Y-80730001D03*
X154129999Y-52790001D03*
X138889999Y-83270001D03*
X154129999Y-50250001D03*
X173062998Y-50250001D03*
X157822998Y-83270001D03*
X173062998Y-52790001D03*
X157822998Y-80730001D03*
X173062998Y-55330001D03*
X157822998Y-78190001D03*
X173062998Y-57870001D03*
X157822998Y-75650001D03*
X173062998Y-60410001D03*
X157822998Y-73110001D03*
X173062998Y-62950001D03*
X157822998Y-70570001D03*
X173062998Y-65490001D03*
X157822998Y-68030001D03*
X173062998Y-68030001D03*
X157822998Y-65490001D03*
X173062998Y-70570001D03*
X157822998Y-62950001D03*
X173062998Y-73110001D03*
X157822998Y-60410001D03*
X173062998Y-75650001D03*
X157822998Y-57870001D03*
X173062998Y-78190001D03*
X157822998Y-55330001D03*
X173062998Y-80730001D03*
X157822998Y-52790001D03*
X173062998Y-83270001D03*
G36*
G01*
X156971998Y-51050001D02*
X156971998Y-49450001D01*
G75*
G02*
X157022998Y-49399001I51000J0D01*
G01*
X158622998Y-49399001D01*
G75*
G02*
X158673998Y-49450001I0J-51000D01*
G01*
X158673998Y-51050001D01*
G75*
G02*
X158622998Y-51101001I-51000J0D01*
G01*
X157022998Y-51101001D01*
G75*
G02*
X156971998Y-51050001I0J51000D01*
G01*
G37*
G36*
G01*
X175904997Y-51050001D02*
X175904997Y-49450001D01*
G75*
G02*
X175955997Y-49399001I51000J0D01*
G01*
X177555997Y-49399001D01*
G75*
G02*
X177606997Y-49450001I0J-51000D01*
G01*
X177606997Y-51050001D01*
G75*
G02*
X177555997Y-51101001I-51000J0D01*
G01*
X175955997Y-51101001D01*
G75*
G02*
X175904997Y-51050001I0J51000D01*
G01*
G37*
X191995997Y-83270001D03*
X176755997Y-52790001D03*
X191995997Y-80730001D03*
X176755997Y-55330001D03*
X191995997Y-78190001D03*
X176755997Y-57870001D03*
X191995997Y-75650001D03*
X176755997Y-60410001D03*
X191995997Y-73110001D03*
X176755997Y-62950001D03*
X191995997Y-70570001D03*
X176755997Y-65490001D03*
X191995997Y-68030001D03*
X176755997Y-68030001D03*
X191995997Y-65490001D03*
X176755997Y-70570001D03*
X191995997Y-62950001D03*
X176755997Y-73110001D03*
X191995997Y-60410001D03*
X176755997Y-75650001D03*
X191995997Y-57870001D03*
X176755997Y-78190001D03*
X191995997Y-55330001D03*
X176755997Y-80730001D03*
X191995997Y-52790001D03*
X176755997Y-83270001D03*
X191995997Y-50250001D03*
X210929000Y-50315000D03*
X195689000Y-83335000D03*
X210929000Y-52855000D03*
X195689000Y-80795000D03*
X210929000Y-55395000D03*
X195689000Y-78255000D03*
X210929000Y-57935000D03*
X195689000Y-75715000D03*
X210929000Y-60475000D03*
X195689000Y-73175000D03*
X210929000Y-63015000D03*
X195689000Y-70635000D03*
X210929000Y-65555000D03*
X195689000Y-68095000D03*
X210929000Y-68095000D03*
X195689000Y-65555000D03*
X210929000Y-70635000D03*
X195689000Y-63015000D03*
X210929000Y-73175000D03*
X195689000Y-60475000D03*
X210929000Y-75715000D03*
X195689000Y-57935000D03*
X210929000Y-78255000D03*
X195689000Y-55395000D03*
X210929000Y-80795000D03*
X195689000Y-52855000D03*
X210929000Y-83335000D03*
G36*
G01*
X194838000Y-51115000D02*
X194838000Y-49515000D01*
G75*
G02*
X194889000Y-49464000I51000J0D01*
G01*
X196489000Y-49464000D01*
G75*
G02*
X196540000Y-49515000I0J-51000D01*
G01*
X196540000Y-51115000D01*
G75*
G02*
X196489000Y-51166000I-51000J0D01*
G01*
X194889000Y-51166000D01*
G75*
G02*
X194838000Y-51115000I0J51000D01*
G01*
G37*
D21*
X84889000Y-31031000D03*
X212250000Y-31031000D03*
X212250000Y-127095000D03*
X84409000Y-127255000D03*
D22*
X137889400Y-161168197D02*
X137819773Y-161298459D01*
X137693420Y-161452420D01*
X137539459Y-161578773D01*
X137409197Y-161648400D01*
X80660803Y-161648400D01*
X80530541Y-161578773D01*
X80376580Y-161452420D01*
X80250227Y-161298459D01*
X80180600Y-161168197D01*
X80180600Y-152987000D01*
X137889400Y-152987000D01*
X137889400Y-161168197D01*
D23*
G36*
X137889400Y-161168197D02*
G01*
X137819773Y-161298459D01*
X137693420Y-161452420D01*
X137539459Y-161578773D01*
X137409197Y-161648400D01*
X80660803Y-161648400D01*
X80530541Y-161578773D01*
X80376580Y-161452420D01*
X80250227Y-161298459D01*
X80180600Y-161168197D01*
X80180600Y-152987000D01*
X137889400Y-152987000D01*
X137889400Y-161168197D01*
G37*
M02*
