M48
; DRILL file {KiCad (5.1.9)-1} date 04/19/23 14:15:12
; FORMAT={-:-/ absolute / metric / decimal}
; #@! TF.CreationDate,2023-04-19T14:15:12+01:00
; #@! TF.GenerationSoftware,Kicad,Pcbnew,(5.1.9)-1
; #@! TF.FileFunction,Plated,1,2,PTH
FMAT,2
METRIC
T1C0.400
T2C0.508
T3C0.800
T4C1.000
T5C1.100
T6C1.200
T7C1.500
T8C3.048
%
G90
G05
T1
X93.779Y-148.345
X96.979Y-47.345
X96.979Y-48.42
X97.879Y-43.52
X101.829Y-146.07
X102.029Y-43.901
X105.229Y-65.49
X106.936Y-120.162
X112.854Y-146.845
X113.232Y-143.799
X116.604Y-130.72
X117.925Y-134.216
X121.629Y-101.645
X123.452Y-126.62
X124.779Y-126.595
X126.488Y-125.954
X127.201Y-125.242
X127.888Y-124.554
X128.613Y-123.829
X129.792Y-122.302
X130.006Y-123.072
X130.776Y-122.033
X132.229Y-132.395
X141.029Y-116.67
X141.179Y-115.745
X142.254Y-102.895
X146.604Y-57.845
X147.229Y-60.42
X147.854Y-64.02
X148.479Y-65.495
X149.129Y-69.195
X149.564Y-56.52
X149.754Y-71.545
X150.554Y-73.395
X153.104Y-103.62
T2
X82.365Y-147.331
X84.804Y-100.52
X84.905Y-147.459
X87.445Y-147.561
X88.129Y-111.02
X88.604Y-66.17
X92.779Y-111.77
X103.779Y-147.57
X109.654Y-130.645
X118.954Y-102.645
X122.204Y-110.17
X130.654Y-110.495
X135.705Y-147.811
T3
X84.629Y-57.745
X84.629Y-60.285
X84.629Y-62.825
X84.629Y-65.365
X84.629Y-67.905
X84.629Y-70.445
X84.629Y-72.985
X84.629Y-75.525
X84.879Y-80.72
X85.879Y-47.42
X90.33Y-91.02
X90.33Y-106.26
X90.879Y-47.42
X92.249Y-57.745
X92.249Y-60.285
X92.249Y-62.825
X92.249Y-65.365
X92.249Y-67.905
X92.249Y-70.445
X92.249Y-72.985
X92.249Y-75.525
X92.499Y-80.72
X92.87Y-91.02
X92.87Y-106.26
X95.104Y-40.37
X95.41Y-91.02
X95.41Y-106.26
X95.819Y-116.665
X95.819Y-124.285
X96.739Y-60.285
X96.739Y-62.825
X96.739Y-65.365
X96.739Y-67.905
X96.739Y-70.445
X96.739Y-72.985
X96.739Y-75.525
X96.739Y-78.065
X96.739Y-80.605
X97.95Y-87.475
X97.95Y-91.02
X97.95Y-106.26
X98.359Y-116.665
X98.359Y-124.285
X100.104Y-40.37
X100.49Y-87.475
X100.49Y-91.02
X100.49Y-106.26
X100.899Y-116.665
X100.899Y-124.285
X101.024Y-50.25
X101.024Y-52.79
X101.024Y-55.33
X101.024Y-57.87
X101.024Y-60.41
X101.024Y-62.95
X101.024Y-65.49
X101.024Y-68.03
X101.024Y-70.57
X101.024Y-73.11
X101.024Y-75.65
X101.024Y-78.19
X101.024Y-80.73
X101.024Y-83.27
X103.03Y-87.475
X103.03Y-91.02
X103.03Y-106.26
X103.439Y-116.665
X103.439Y-124.285
X105.184Y-40.37
X105.57Y-87.475
X105.57Y-91.02
X105.57Y-106.26
X105.979Y-116.665
X105.979Y-124.285
X108.11Y-87.475
X108.11Y-91.02
X108.11Y-106.26
X108.519Y-116.665
X108.519Y-124.285
X110.184Y-40.37
X110.65Y-87.475
X110.65Y-91.02
X110.65Y-106.26
X111.059Y-116.665
X111.059Y-124.285
X113.19Y-87.475
X113.19Y-91.02
X113.19Y-106.26
X115.264Y-40.37
X115.73Y-87.475
X115.73Y-91.02
X115.73Y-106.26
X116.264Y-50.25
X116.264Y-52.79
X116.264Y-55.33
X116.264Y-57.87
X116.264Y-60.41
X116.264Y-62.95
X116.264Y-65.49
X116.264Y-68.03
X116.264Y-70.57
X116.264Y-73.11
X116.264Y-75.65
X116.264Y-78.19
X116.264Y-80.73
X116.264Y-83.27
X118.27Y-91.02
X118.27Y-106.26
X119.819Y-114.215
X119.819Y-119.195
X119.957Y-50.25
X119.957Y-52.79
X119.957Y-55.33
X119.957Y-57.87
X119.957Y-60.41
X119.957Y-62.95
X119.957Y-65.49
X119.957Y-68.03
X119.957Y-70.57
X119.957Y-73.11
X119.957Y-75.65
X119.957Y-78.19
X119.957Y-80.73
X119.957Y-83.27
X120.264Y-40.37
X120.81Y-91.02
X120.81Y-106.26
X123.35Y-91.02
X123.35Y-106.26
X124.819Y-114.215
X124.819Y-119.195
X125.344Y-40.37
X125.89Y-91.02
X125.89Y-106.26
X128.43Y-91.02
X128.43Y-106.26
X130.344Y-40.37
X130.97Y-91.02
X130.97Y-106.26
X133.51Y-91.02
X133.51Y-106.26
X134.609Y-110.545
X134.609Y-125.785
X135.197Y-50.25
X135.197Y-52.79
X135.197Y-55.33
X135.197Y-57.87
X135.197Y-60.41
X135.197Y-62.95
X135.197Y-65.49
X135.197Y-68.03
X135.197Y-70.57
X135.197Y-73.11
X135.197Y-75.65
X135.197Y-78.19
X135.197Y-80.73
X135.197Y-83.27
X135.424Y-40.37
X136.05Y-91.02
X136.05Y-106.26
X137.149Y-110.545
X137.149Y-125.785
X138.59Y-91.02
X138.59Y-106.26
X138.89Y-50.25
X138.89Y-52.79
X138.89Y-55.33
X138.89Y-57.87
X138.89Y-60.41
X138.89Y-62.95
X138.89Y-65.49
X138.89Y-68.03
X138.89Y-70.57
X138.89Y-73.11
X138.89Y-75.65
X138.89Y-78.19
X138.89Y-80.73
X138.89Y-83.27
X139.689Y-110.545
X139.689Y-125.785
X140.424Y-40.37
X142.229Y-110.545
X142.229Y-125.785
X144.769Y-91.02
X144.769Y-106.26
X144.769Y-110.545
X144.769Y-125.785
X145.504Y-40.37
X147.309Y-91.02
X147.309Y-106.26
X147.309Y-110.545
X147.309Y-125.785
X149.849Y-91.02
X149.849Y-106.26
X149.849Y-110.545
X149.849Y-125.785
X150.504Y-40.37
X152.389Y-91.02
X152.389Y-106.26
X152.389Y-110.545
X152.389Y-125.785
X154.13Y-50.25
X154.13Y-52.79
X154.13Y-55.33
X154.13Y-57.87
X154.13Y-60.41
X154.13Y-62.95
X154.13Y-65.49
X154.13Y-68.03
X154.13Y-70.57
X154.13Y-73.11
X154.13Y-75.65
X154.13Y-78.19
X154.13Y-80.73
X154.13Y-83.27
X154.929Y-91.02
X154.929Y-106.26
X154.929Y-110.545
X154.929Y-125.785
X157.469Y-91.02
X157.469Y-106.26
X157.469Y-110.545
X157.469Y-125.785
X157.823Y-50.25
X157.823Y-52.79
X157.823Y-55.33
X157.823Y-57.87
X157.823Y-60.41
X157.823Y-62.95
X157.823Y-65.49
X157.823Y-68.03
X157.823Y-70.57
X157.823Y-73.11
X157.823Y-75.65
X157.823Y-78.19
X157.823Y-80.73
X157.823Y-83.27
X160.009Y-91.02
X160.009Y-106.26
X160.009Y-110.545
X160.009Y-125.785
X162.549Y-91.02
X162.549Y-106.26
X162.549Y-110.545
X162.549Y-125.785
X165.089Y-91.02
X165.089Y-106.26
X165.089Y-110.545
X165.089Y-125.785
X167.629Y-91.02
X167.629Y-106.26
X167.629Y-110.545
X167.629Y-125.785
X170.169Y-91.02
X170.169Y-106.26
X172.709Y-91.02
X172.709Y-106.26
X173.063Y-50.25
X173.063Y-52.79
X173.063Y-55.33
X173.063Y-57.87
X173.063Y-60.41
X173.063Y-62.95
X173.063Y-65.49
X173.063Y-68.03
X173.063Y-70.57
X173.063Y-73.11
X173.063Y-75.65
X173.063Y-78.19
X173.063Y-80.73
X173.063Y-83.27
X175.249Y-91.02
X175.249Y-106.26
X176.756Y-50.25
X176.756Y-52.79
X176.756Y-55.33
X176.756Y-57.87
X176.756Y-60.41
X176.756Y-62.95
X176.756Y-65.49
X176.756Y-68.03
X176.756Y-70.57
X176.756Y-73.11
X176.756Y-75.65
X176.756Y-78.19
X176.756Y-80.73
X176.756Y-83.27
X177.789Y-91.02
X177.789Y-106.26
X180.329Y-91.02
X180.329Y-106.26
X182.754Y-115.025
X182.754Y-122.645
X182.869Y-91.02
X182.869Y-106.26
X185.409Y-91.02
X185.409Y-106.26
X187.949Y-91.02
X187.949Y-106.26
X190.489Y-91.02
X190.489Y-106.26
X191.996Y-50.25
X191.996Y-52.79
X191.996Y-55.33
X191.996Y-57.87
X191.996Y-60.41
X191.996Y-62.95
X191.996Y-65.49
X191.996Y-68.03
X191.996Y-70.57
X191.996Y-73.11
X191.996Y-75.65
X191.996Y-78.19
X191.996Y-80.73
X191.996Y-83.27
X193.029Y-91.02
X193.029Y-106.26
X195.689Y-50.315
X195.689Y-52.855
X195.689Y-55.395
X195.689Y-57.935
X195.689Y-60.475
X195.689Y-63.015
X195.689Y-65.555
X195.689Y-68.095
X195.689Y-70.635
X195.689Y-73.175
X195.689Y-75.715
X195.689Y-78.255
X195.689Y-80.795
X195.689Y-83.335
X210.929Y-50.315
X210.929Y-52.855
X210.929Y-55.395
X210.929Y-57.935
X210.929Y-60.475
X210.929Y-63.015
X210.929Y-65.555
X210.929Y-68.095
X210.929Y-70.635
X210.929Y-73.175
X210.929Y-75.715
X210.929Y-78.255
X210.929Y-80.795
X210.929Y-83.335
X212.679Y-105.72
X212.679Y-113.34
T4
X84.619Y-109.225
X84.619Y-111.765
X84.619Y-114.305
X203.274Y-89.17
X205.814Y-89.17
X208.354Y-89.17
T5
X197.204Y-38.12
X197.204Y-42.62
X203.704Y-38.12
X203.704Y-42.62
T6
X175.679Y-113.585
X175.679Y-123.745
X200.769Y-100.47
X210.929Y-100.47
T7
X192.889Y-119.47
X213.379Y-119.47
T8
X84.409Y-127.255
X84.889Y-40.111
X212.25Y-40.111
X212.25Y-127.095
T0
M30
